<svg xmlns="http://www.w3.org/2000/svg" xmlns:xlink="http://www.w3.org/1999/xlink" viewBox="0 0 408.48 113.07"><defs><style>.cls-1{fill:#a5a5a5;}.cls-2{fill:url(#linear-gradient);}.cls-3{fill:#ddd;}.cls-4{fill:url(#linear-gradient-2);}.cls-5,.cls-7{fill:#9d9d9d;}.cls-6{fill:#fefefe;}.cls-7{font-size:31px;font-family:SegoeUI, Segoe UI;letter-spacing:0.03em;}.cls-8{letter-spacing:0.03em;}.cls-9{letter-spacing:0.02em;}.cls-10{letter-spacing:0.03em;}.cls-11{letter-spacing:0.04em;}.cls-12{letter-spacing:0.03em;}.cls-13{letter-spacing:0.04em;}.cls-14{letter-spacing:0.04em;}.cls-15{letter-spacing:0.06em;}.cls-16{letter-spacing:0.07em;}.cls-17{letter-spacing:0.04em;}.cls-18{letter-spacing:0.02em;}.cls-19{letter-spacing:0.03em;}</style><linearGradient id="linear-gradient" x1="136.97" y1="139.12" x2="208.26" y2="139.12" gradientUnits="userSpaceOnUse"><stop offset="0" stop-color="#fff" stop-opacity="0"/><stop offset="0.18" stop-color="#fdfdfd" stop-opacity="0.02"/><stop offset="0.34" stop-color="#f6f6f6" stop-opacity="0.09"/><stop offset="0.49" stop-color="#eaeaea" stop-opacity="0.21"/><stop offset="0.64" stop-color="#dadada" stop-opacity="0.38"/><stop offset="0.79" stop-color="#c5c5c5" stop-opacity="0.59"/><stop offset="0.93" stop-color="#ababab" stop-opacity="0.85"/><stop offset="1" stop-color="#9c9c9c"/></linearGradient><linearGradient id="linear-gradient-2" x1="125.46" y1="139.31" x2="189.72" y2="139.31" gradientUnits="userSpaceOnUse"><stop offset="0" stop-color="#9c9c9c"/><stop offset="0.28" stop-color="#bababa" stop-opacity="0.7"/><stop offset="0.77" stop-color="#ebebeb" stop-opacity="0.2"/><stop offset="1" stop-color="#fff" stop-opacity="0"/></linearGradient></defs><g id="Layer_5" data-name="Layer 5"><path class="cls-1" d="M79.08,187.16H93l31-49s9-15.72,17.76-1.44l31.2,50.4H215.4L160.22,98.45c-1.81-2.9-3.49-4.89-6.55-6.41-4.36-2.15-11.35-3.49-16.75,3.68Z" transform="translate(-79.08 -90.33)"/><path class="cls-2" d="M156.78,153.62,175.5,183.5h32.76l-35.64-57.24L154.8,96.92s-9.36-6.48-16.56,2.88S156.78,153.62,156.78,153.62Z" transform="translate(-79.08 -90.33)"/><path class="cls-3" d="M122.94,151.46v18.9S163.8,162.44,205.2,93C205.2,93,160.92,153.08,122.94,151.46Z" transform="translate(-79.08 -90.33)"/><path class="cls-4" d="M125.46,153.63V167.3s31.92-5.73,64.26-56C189.72,111.32,155.13,154.8,125.46,153.63Z" transform="translate(-79.08 -90.33)"/><polygon class="cls-5" points="155.52 57.71 174 30.83 196.08 30.83 191.04 25.07 177.36 25.07 186 13.07 197.52 13.07 227.76 57.71 216 57.71 203.52 41.33 180.24 41.33 167.04 57.71 155.52 57.71"/><path class="cls-5" d="M315.51,103.4v12.24H376v5.28H315.51V148H376s8.4.48,11.28-7.2V130s-.93-3.69-6.69-3.33c0,0,6.8-2.28,6.75-5.13v-9.45s.27-7.29-11-8.73Z" transform="translate(-79.08 -90.33)"/><rect class="cls-6" x="247.68" y="41.03" width="49.32" height="5.4"/><path class="cls-5" d="M396.36,103.4v12.42h60.48v5H396.36V148h11.16l-.36-16.68H441.9l14.94,16.69h12.24l-14-16.69s13.86.48,14-7.44,0-10.62,0-10.62-.18-9.9-11.16-9.9Z" transform="translate(-79.08 -90.33)"/><text class="cls-7" transform="translate(153.12 97.14) scale(1 1.25)">L<tspan class="cls-8" x="15.48" y="0">o</tspan><tspan class="cls-9" x="34.72" y="0">g</tspan><tspan class="cls-10" x="53.72" y="0">i</tspan><tspan class="cls-11" x="62.03" y="0">s</tspan><tspan class="cls-12" x="76.38" y="0">t</tspan><tspan class="cls-10" x="87.73" y="0">i</tspan><tspan class="cls-13" x="96.04" y="0">c</tspan><tspan class="cls-14" x="111.47" y="0">s </tspan><tspan class="cls-15" x="135.66" y="0">P</tspan><tspan class="cls-16" x="154.83" y="0">v</tspan><tspan class="cls-17" x="171.84" y="0">t </tspan><tspan class="cls-18" x="193.38" y="0">L</tspan><tspan class="cls-19" x="208.51" y="0">t</tspan><tspan class="cls-14" x="219.88" y="0">d</tspan></text></g></svg>