<svg width="54" height="53" viewBox="0 0 54 53" fill="none" xmlns="http://www.w3.org/2000/svg">
<path d="M29.5 20C34.7467 20 39 15.7467 39 10.5C39 5.25329 34.7467 1 29.5 1C24.2533 1 20 5.25329 20 10.5C20 15.7467 24.2533 20 29.5 20Z" fill="#D4910B"/>
<path d="M39.1778 17.8585C39.6681 17.3561 39.9005 17.3297 40.508 17.6935C44.546 20.1263 46.9982 23.6571 47.798 28.3207C47.8223 28.4624 47.798 28.6433 48.0431 28.7438C48.0991 28.3968 48.1371 28.0637 48.2079 27.7389C48.5048 26.3639 49.5349 25.2892 50.7436 25.0745C51.7377 24.8989 52.7383 25.5346 53.2116 26.6441C53.6057 27.5686 53.3257 28.4709 52.453 29.0854C51.7684 29.5678 50.9739 29.7719 50.1287 30.0025C50.9094 31.0814 51.9078 31.6653 53.1926 31.7668C53.7081 31.807 54.023 32.1635 53.9987 32.6236C53.9754 33.0604 53.6469 33.364 53.1535 33.4C53.0308 33.4054 52.9079 33.4019 52.7858 33.3894C50.8841 33.2223 49.6162 32.1074 48.6316 30.5811C48.4805 30.3463 48.36 30.1791 48.0399 30.3547C48.1595 32.1566 48.0146 33.9662 47.6099 35.726C46.5724 40.1114 44.0114 43.3513 40.1498 45.599C39.8614 45.7671 39.6839 45.9353 39.6216 46.3024C39.3543 47.8414 38.9877 49.3645 38.7521 50.9078C38.5904 51.9454 38.1181 52.6467 37.125 52.9915H36.9137C36.8556 52.9587 36.7986 52.8963 36.7404 52.8963C35.4853 52.8914 34.2298 52.8914 32.974 52.8963C32.9158 52.8963 32.8588 52.9587 32.8007 52.9926H32.5894C31.5392 52.579 31.1293 51.7413 31.0046 50.6783C30.919 49.9706 30.7468 49.2736 30.6084 48.5426C27.8504 48.8085 25.0712 48.7595 22.3242 48.3967C22.1203 49.447 21.9428 50.4466 21.7315 51.4388C21.5498 52.285 20.9402 52.8339 20.1616 52.8942C18.8937 52.8942 17.6294 52.8942 16.3686 52.8942C16.2165 52.8942 16.0517 52.8424 15.9291 53H15.7178C14.6824 52.6097 14.2778 51.809 14.1161 50.7565C13.871 49.1625 13.5129 47.5833 13.2371 45.9967C13.1748 45.6413 13.0184 45.4572 12.7184 45.2911C10.0126 43.7923 7.75274 41.8164 6.16056 39.1266C5.99545 38.8541 5.72975 38.6576 5.421 38.5798C4.33595 38.2392 3.25408 37.8869 2.17009 37.541C1.18647 37.2237 0.507129 36.5975 0.151082 35.6223C0.117274 35.5324 0.136291 35.4023 0 35.3716V30.304C0.156365 30.2627 0.133121 30.1072 0.172213 30.0046C0.327043 29.5638 0.584811 29.1665 0.924055 28.8456C1.2633 28.5247 1.6742 28.2896 2.12255 28.1599C2.77336 27.9536 3.41995 27.7368 4.07394 27.538C4.27826 27.4858 4.46528 27.3807 4.61623 27.2333C4.76718 27.0859 4.87675 26.9013 4.93394 26.6981C5.58229 24.6844 6.67702 22.8435 8.13625 21.3131C8.21675 21.2362 8.2743 21.1384 8.30247 21.0306C8.33064 20.9228 8.32833 20.8093 8.29579 20.7028C7.91333 18.8338 7.75062 16.951 8.02004 15.0492C8.05519 14.8062 8.10959 14.5664 8.18274 14.332C8.55358 13.1262 9.27307 12.6682 10.5219 12.8152C11.5471 12.9498 12.5541 13.1982 13.5245 13.5556C15.0958 14.0998 16.6318 14.7414 18.1235 15.4765C18.2154 15.522 18.2947 15.5971 18.412 15.5685C18.9011 15.4447 19.3913 15.3231 19.9048 15.1951C19.384 13.9512 19.0311 12.7105 18.9804 11.3978C18.9561 10.7579 19.0976 10.5749 19.7294 10.3919C20.3633 10.5474 20.4954 10.7335 20.562 11.4158C20.9138 15.0523 22.7807 17.6152 26.0675 19.1627C26.3542 19.2966 26.6743 19.3415 26.9867 19.2918C28.7805 19.0532 30.598 19.0532 32.3918 19.2918C32.5978 19.3182 32.8081 19.3595 33.0152 19.2738C34.1256 18.8147 35.1536 18.2287 35.985 17.3392C38.395 15.0216 39.2771 12.1806 38.6327 8.94068C37.6575 4.03803 33.1145 0.922956 28.1922 1.70674C26.1974 2.02407 24.4648 2.90096 23.0966 4.42623C22.45 5.00376 21.9914 5.71984 21.5868 6.47401C21.3427 6.92778 21.0089 7.16155 20.4806 7.01241C19.945 6.56604 19.8911 6.30161 20.208 5.69764C22.3063 1.70254 26.8018 -0.561061 31.2846 0.120127C35.7674 0.801315 39.3923 4.294 40.2079 8.72384C40.7911 11.8907 40.059 14.7477 38.1763 17.3318C37.3818 18.2721 36.5112 19.1299 35.386 19.8312C35.9142 19.9962 36.3696 20.1221 36.8102 20.2786C37.1789 20.4098 37.3796 20.6848 37.3448 21.0899C37.3131 21.4675 37.0933 21.6907 36.7309 21.787C36.4932 21.8505 36.2809 21.7553 36.0664 21.6876C31.8673 20.3512 27.3555 20.366 23.1652 21.7299C22.6106 21.9097 22.1827 21.7172 22.0422 21.2698C21.8964 20.8033 22.1193 20.4236 22.6761 20.2395C23.0691 20.1041 23.4685 19.9856 23.9576 19.8302C22.7181 19.0405 21.6514 18.0074 20.8219 16.7934C20.7959 16.747 20.7546 16.7111 20.7051 16.6918C20.6555 16.6725 20.6008 16.671 20.5503 16.6876C20.133 16.8008 19.6893 16.8219 19.2698 17.024C19.4273 17.959 19.5498 18.8771 19.5287 19.8122C19.4463 23.4445 16.8874 25.9989 13.2635 26.0359C11.2931 26.056 9.83936 25.2628 9.09451 23.3609C9.03429 23.2076 9.02162 23.0193 8.82827 22.9019C7.76019 24.142 6.95052 25.5834 6.44688 27.1413C6.12992 28.1261 5.50552 28.7544 4.50922 29.0389C3.88588 29.2166 3.27415 29.4345 2.66031 29.645C1.9049 29.9031 1.59746 30.3346 1.59429 31.1417C1.59429 32.2322 1.59429 33.3228 1.59429 34.4133C1.59429 35.3716 1.89011 35.7767 2.81034 36.0729C3.84502 36.4072 4.88076 36.7361 5.91756 37.0598C6.54197 37.2544 7.07973 37.5707 7.41676 38.1471C8.96456 40.7915 11.1959 42.6954 13.8742 44.1096C14.0954 44.2163 14.287 44.3758 14.432 44.5741C14.577 44.7724 14.671 45.0034 14.7057 45.2467C15.0364 47.0777 15.403 48.9033 15.7305 50.7354C15.815 51.2082 15.983 51.4356 16.5123 51.4144C17.5298 51.3732 18.5504 51.3848 19.5699 51.4144C20.0094 51.425 20.1954 51.2642 20.264 50.8316C20.4183 49.8606 20.6116 48.8959 20.7997 47.9302C20.9624 47.0914 21.516 46.6609 22.3422 46.7857C25.0576 47.1743 27.8097 47.236 30.5397 46.9698C31.5529 46.8767 31.9935 47.2448 32.1773 48.2391C32.34 49.1202 32.526 49.996 32.6707 50.8835C32.7341 51.2706 32.9063 51.4197 33.2994 51.4123C34.3707 51.3943 35.443 51.3965 36.5154 51.4123C36.8989 51.4176 37.0785 51.2875 37.1493 50.8919C37.4599 49.1815 37.8181 47.4796 38.1213 45.7682C38.1627 45.4647 38.2787 45.1763 38.4589 44.9287C38.639 44.6812 38.8777 44.4822 39.1535 44.3498C40.6984 43.538 42.0729 42.4362 43.2021 41.1046C46.284 37.4332 46.9792 33.1535 46.2449 28.5671C45.5772 24.3965 43.3416 21.2465 39.7314 19.0749C39.2455 18.7798 38.9951 18.4297 39.1778 17.8585ZM9.47697 16.9901C9.47357 17.6584 9.51735 18.3261 9.60798 18.9882C9.80555 20.4193 10.0919 21.8272 10.7469 23.1314C10.9878 23.6095 11.2878 24.0347 11.8309 24.2209C13.7538 24.8809 16.8853 24.1532 17.7083 21.2888C18.0612 20.0608 17.983 18.8242 17.7463 17.5867C17.7173 17.3866 17.6351 17.198 17.5084 17.0405C17.3816 16.8831 17.215 16.7627 17.0258 16.6918C16.1225 16.3089 15.2297 15.9028 14.3148 15.5463C13.0903 15.0682 11.8541 14.6176 10.5483 14.4029C9.88796 14.2971 9.75695 14.3881 9.61749 15.0513C9.48331 15.6891 9.47697 16.3417 9.47697 16.9901ZM49.6881 28.4645C50.3072 28.3397 50.8503 28.2075 51.3511 27.9357C51.6765 27.759 51.9617 27.5581 51.6944 27.1117C51.3997 26.6198 51.051 26.4897 50.6157 26.7774C50.0378 27.1614 49.7726 27.7315 49.6891 28.4645H49.6881Z" fill="#040303"/>
<path d="M39.6544 18.1594C39.4713 18.7184 39.7222 19.0611 40.2059 19.3458C43.8225 21.4712 46.0621 24.5543 46.7311 28.6365C47.4667 33.1255 46.7702 37.3143 43.6828 40.9077C42.5516 42.2111 41.1746 43.2894 39.6269 44.084C39.3506 44.2137 39.1115 44.4084 38.931 44.6507C38.7505 44.893 38.6343 45.1753 38.5928 45.4723C38.2891 47.1474 37.9303 48.8132 37.6191 50.4873C37.5471 50.8745 37.3672 51.0049 36.984 50.9966C35.9097 50.9811 34.8354 50.979 33.7622 50.9966C33.3685 51.0039 33.1959 50.8579 33.1324 50.479C32.9874 49.6145 32.8012 48.7573 32.6382 47.8907C32.454 46.9134 32.0126 46.5532 30.9976 46.6484C28.2626 46.909 25.5056 46.8485 22.7853 46.4683C21.9576 46.3492 21.403 46.7675 21.24 47.5884C21.0516 48.5337 20.8579 49.4778 20.7034 50.4282C20.6346 50.8517 20.4483 51.009 20.008 50.9987C18.9866 50.9738 17.9642 50.9624 16.9449 50.9987C16.4157 51.0194 16.2464 50.7968 16.1617 50.334C15.8336 48.5409 15.4663 46.754 15.135 44.9619C15.1003 44.7238 15.0061 44.4977 14.8608 44.3036C14.7155 44.1095 14.5236 43.9533 14.302 43.849C11.6189 42.4648 9.38356 40.6023 7.83297 38.0131C7.49427 37.4488 6.95659 37.1393 6.33107 36.9488C5.29169 36.632 4.25409 36.31 3.21824 35.9829C2.29636 35.693 2.00106 35.2965 2 34.3585C2 33.2911 2 32.2237 2 31.1563C2 30.3664 2.31118 29.944 3.06795 29.6914C3.68289 29.4844 4.29572 29.2721 4.92019 29.0982C5.91828 28.8197 6.54487 28.2048 6.86134 27.2409C7.36614 25.7168 8.17725 24.3067 9.24702 23.0935C9.44071 23.2085 9.4587 23.3927 9.51374 23.5429C10.2599 25.4064 11.7163 26.1808 13.6903 26.1611C17.3186 26.1248 19.8842 23.6246 19.9667 20.0695C19.9879 19.1543 19.8609 18.2556 19.7074 17.3404C20.1308 17.1427 20.5721 17.122 20.9902 17.0112C21.0408 16.995 21.0956 16.9964 21.1452 17.0153C21.1948 17.0342 21.2362 17.0693 21.2622 17.1148C22.0919 18.3042 23.1595 19.3167 24.4005 20.0912C23.9104 20.2434 23.5103 20.3594 23.1166 20.4919C22.562 20.6772 22.3386 21.0437 22.4815 21.5002C22.6223 21.9382 23.051 22.1214 23.6066 21.9506C27.8044 20.6157 32.3244 20.6012 36.531 21.9092C36.7427 21.9754 36.9544 22.0686 37.1968 22.0065C37.5598 21.9123 37.78 21.6959 37.8117 21.3242C37.8467 20.9277 37.6456 20.6585 37.2762 20.5302C36.8348 20.3769 36.3818 20.2537 35.8494 20.0922C36.9766 19.4058 37.8488 18.5662 38.6447 17.6458L39.6544 18.1594ZM11.5798 31.3996C12.906 31.4359 14.0057 30.5217 14.2121 29.209C14.3031 28.6334 14.0523 28.2141 13.577 28.1447C13.0679 28.0702 12.7642 28.3362 12.6562 28.9502C12.5504 29.5279 12.1672 29.8695 11.6285 29.855C11.1109 29.8405 10.7542 29.503 10.6642 28.9439C10.569 28.3466 10.2409 28.0671 9.73284 28.1457C9.27242 28.2172 9.02793 28.6064 9.09249 29.1634C9.16402 29.766 9.45457 30.3233 9.91115 30.7338C10.3677 31.1443 10.9599 31.3806 11.5798 31.3996Z" fill="#EDC67A"/>
<path d="M10.0002 16.6066C10.0002 15.9605 10.0002 15.3164 10.1328 14.6808C10.2645 14.0231 10.3882 13.9308 11.0117 14.0378C12.2447 14.2476 13.4119 14.6976 14.5681 15.1717C15.431 15.5252 16.2749 15.928 17.1279 16.3077C17.3065 16.378 17.4638 16.4974 17.5835 16.6535C17.7032 16.8096 17.7808 16.9966 17.8082 17.1951C18.0317 18.4255 18.1075 19.6517 17.7723 20.8663C16.9952 23.7068 14.0384 24.4327 12.2228 23.774C11.71 23.5893 11.4247 23.1677 11.1992 22.6936C10.5808 21.4002 10.3104 20.0041 10.1239 18.5849C10.0384 17.9294 9.99708 17.2683 10.0002 16.6066Z" fill="#EDC67A"/>
<path d="M11.4273 30.999C10.825 30.982 10.2495 30.7653 9.80567 30.3885C9.36188 30.0116 9.07945 29.4997 9.00993 28.9463C8.94723 28.4351 9.18465 28.0777 9.63174 28.0122C10.1271 27.9399 10.4437 28.1965 10.5362 28.7449C10.6236 29.258 10.9699 29.5679 11.4725 29.5812C11.9957 29.5945 12.3729 29.2809 12.4705 28.7506C12.5733 28.187 12.8703 27.9428 13.3647 28.0112C13.8282 28.0749 14.0718 28.4598 13.9813 28.9882C13.783 30.1932 12.7151 31.0323 11.4273 30.999Z" fill="#040303"/>
</svg>
