<svg width="62" height="67" viewBox="0 0 62 67" fill="none" xmlns="http://www.w3.org/2000/svg">
<g opacity="0.4">
<path d="M35.8314 23.6603C35.951 23.7345 36.0149 23.7819 36.085 23.817L44.6456 27.9901L54.4638 32.7817C54.5502 32.817 54.6251 32.8755 54.6803 32.9507C55.1772 33.7631 55.3319 34.6002 54.8535 35.4847C54.6576 35.8496 54.3298 36.0022 53.9917 36.163L47.4104 39.3134C45.0311 40.4515 42.6504 41.5896 40.2684 42.7278C37.4588 44.0734 34.6486 45.4212 31.8377 46.7709C31.2192 47.0678 30.6109 47.4245 29.8996 47.5049C29.4616 47.5701 29.014 47.5123 28.6069 47.3379C26.2015 46.2383 23.796 45.1352 21.3906 44.0287L14.2774 40.7608L13.4073 40.3691C13.8939 40.1361 14.3351 39.9237 14.7805 39.7134C17.4622 38.4461 20.1425 37.1767 22.8215 35.9053L30.0378 32.5054C30.2445 32.4237 30.4172 32.274 30.5274 32.081C30.6376 31.8879 30.6787 31.6631 30.6439 31.4436C30.6345 31.3321 30.592 31.2261 30.5218 31.139C30.4516 31.0519 30.357 30.9878 30.2501 30.9549C28.6007 30.3096 26.9513 29.6519 25.3018 29.0065C25.1748 28.9591 25.035 28.9591 24.908 29.0065C21.3865 30.5116 17.8684 32.0236 14.3537 33.5425L6.43642 36.9444C6.35188 36.9795 6.26323 37.0104 6.14364 37.0537C6.14364 36.93 6.12921 36.8331 6.12921 36.7341C6.12921 33.7878 6.12921 30.8415 6.12921 27.8932C6.11725 27.7982 6.13869 27.7021 6.18984 27.6212C6.241 27.5403 6.3187 27.4797 6.40961 27.4499C8.77793 26.3283 11.1435 25.2018 13.5063 24.0706C13.6259 24.0129 13.7393 23.9428 13.9187 23.8417C13.6754 23.7263 13.5063 23.6355 13.3269 23.5654L6.52301 20.58C6.45712 20.5586 6.40062 20.5151 6.36306 20.4569C6.3255 20.3986 6.30917 20.3292 6.31683 20.2604C6.31683 17.0138 6.31683 13.7657 6.31683 10.5164C6.31683 10.4442 6.33127 10.372 6.34157 10.271L8.13739 11.1328L14.8423 14.3492L20.4257 17.0296C21.7638 17.6728 23.106 18.3182 24.4421 18.9491C24.573 19.005 24.7203 19.0095 24.8544 18.9615C26.6069 18.1903 28.3595 17.4048 30.1037 16.6234C30.2337 16.5815 30.3466 16.4985 30.4254 16.387C30.5043 16.2755 30.5448 16.1414 30.5408 16.0048C30.5264 15.6461 30.4996 15.2894 30.1141 15.0956L22.9576 11.5431L14.6424 7.40098L13.9578 7.05872L15.2135 6.49173C17.0526 5.66701 18.8931 4.8423 20.735 4.01758L28.0337 0.745512C28.479 0.539332 28.9265 0.351711 29.3718 0.151717C29.6169 0.0412411 29.8845 -0.0101572 30.1531 0.00166025C30.4217 0.0134777 30.6837 0.0881813 30.9181 0.219757L42.0663 5.82577L54.3319 11.9782C54.4741 12.0483 54.6123 12.1307 54.7566 12.1988C55.0803 12.3514 55.3916 12.4916 55.5133 12.8915C55.6597 13.3324 55.6354 13.812 55.4453 14.2358C55.3414 14.4878 55.1431 14.689 54.8927 14.7966C52.3938 15.9451 49.9031 17.112 47.4084 18.2708L40.4828 21.4789C39.0354 22.1511 37.5874 22.8232 36.1386 23.4953C36.0541 23.5366 35.9695 23.5861 35.8314 23.6603Z" fill="black"/>
<path d="M0 66.2859V56.616C0.08041 56.616 0.171128 56.6016 0.261847 56.6016C3.72772 56.6016 7.19154 56.616 10.6553 56.5892C11.1354 56.5953 11.6007 56.7558 11.9825 57.0469C12.3642 57.338 12.642 57.7443 12.7749 58.2057C13.0367 59.1974 12.6986 60.3747 11.913 60.9479C11.647 61.109 11.3676 61.2469 11.078 61.3602C11.1187 61.3974 11.1629 61.4306 11.21 61.4592C12.4141 62.0324 12.8058 63.2426 12.4903 64.4818C12.3967 64.8258 12.2506 65.1533 12.0574 65.4529C11.9143 65.6909 11.7087 65.8852 11.463 66.0146C11.2173 66.144 10.9408 66.2036 10.6636 66.1869C8.32758 66.1601 5.99363 66.1869 3.6535 66.1869H3.28856C3.49474 65.8776 3.68236 65.6013 3.87411 65.3292C4.13183 64.9581 4.40193 64.5972 4.65347 64.222C4.69382 64.1543 4.75222 64.0991 4.82213 64.0627C4.89205 64.0263 4.97071 64.0101 5.04933 64.0158C6.25548 64.0158 7.45957 64.0158 8.66366 64.0158C9.26158 64.0158 9.62033 63.6509 9.58115 63.0447C9.5598 62.8414 9.4996 62.644 9.40384 62.4633C9.34762 62.3436 9.25591 62.2442 9.14117 62.1786C9.02644 62.1129 8.89426 62.0842 8.76262 62.0963C7.02247 62.0963 5.28232 62.0736 3.54216 62.0592C3.47618 62.0592 3.41021 62.0592 3.28856 62.0489C3.49474 61.7499 3.70092 61.4819 3.89267 61.2242C4.08441 60.9664 4.32358 60.653 4.5277 60.3603C4.56632 60.2975 4.62176 60.2469 4.68773 60.2141C4.7537 60.1813 4.82755 60.1676 4.90088 60.1747C6.22043 60.1747 7.53792 60.1747 8.8554 60.1747C9.22859 60.1747 9.38941 60.0489 9.44095 59.6778C9.46881 59.4836 9.46881 59.2864 9.44095 59.0923C9.38116 58.7088 9.19766 58.5727 8.80798 58.5727H3.58752C3.19578 58.5727 3.19578 58.5727 3.19578 58.95C3.19578 61.286 3.19578 63.62 3.19578 65.9601C3.19578 66.2384 3.11537 66.3085 2.84734 66.3024C1.92778 66.2694 0.991723 66.2859 0 66.2859Z" fill="black"/>
<path d="M27.5374 66.1209C26.3787 66.1209 25.2695 66.1209 24.1767 66.1209C24.1253 66.1139 24.076 66.0961 24.032 66.0688C23.9879 66.0414 23.9501 66.0051 23.921 65.9621C23.6461 65.492 23.3829 65.0158 23.1314 64.5333C23.0955 64.4472 23.0327 64.375 22.9525 64.3275C22.8722 64.2799 22.7788 64.2595 22.686 64.2694C21.3211 64.2694 19.9562 64.2694 18.5913 64.2694H18.1563C18.5006 63.5808 18.8119 62.9416 19.1439 62.3127C19.181 62.2447 19.3335 62.2076 19.4346 62.2076C20.0923 62.1973 20.7521 62.2076 21.4118 62.2076H21.8118L20.0717 59.3025C19.9541 59.4881 19.8655 59.6139 19.7892 59.7499C18.6511 61.8117 17.513 63.877 16.3749 65.9456C16.3484 65.9899 16.3125 66.0278 16.2697 66.0566C16.227 66.0855 16.1784 66.1046 16.1275 66.1126C14.9399 66.1229 13.7543 66.1126 12.5688 66.1126C12.5284 66.1064 12.4884 66.0974 12.4492 66.0858C12.5997 65.8322 12.7379 65.591 12.8801 65.3539C14.6258 62.4578 16.3735 59.563 18.1233 56.6696C18.1582 56.6202 18.2034 56.5788 18.2556 56.5482C18.3079 56.5176 18.3661 56.4985 18.4264 56.4923C19.5562 56.4799 20.6861 56.4799 21.8159 56.4923C21.8753 56.4978 21.9328 56.5162 21.9844 56.5461C22.0361 56.576 22.0806 56.6167 22.1149 56.6655C23.5087 59.0709 24.8963 61.4818 26.2777 63.8983L27.5374 66.1209Z" fill="black"/>
<path d="M36.8623 66.1002C37.1468 65.6198 37.4169 65.16 37.687 64.7044C39.2911 62.0405 40.8945 59.376 42.4972 56.7108C42.5342 56.6376 42.5923 56.5771 42.6639 56.537C42.7355 56.497 42.8175 56.4792 42.8992 56.486C43.9899 56.486 45.0806 56.486 46.1734 56.486C46.2593 56.479 46.3454 56.499 46.4193 56.5434C46.4933 56.5878 46.5515 56.6543 46.5857 56.7335C47.8847 59.0124 49.1863 61.2873 50.4908 63.558L51.835 65.9043C51.866 65.96 51.8907 66.0198 51.934 66.1105C51.8412 66.1105 51.7711 66.127 51.7031 66.127C50.6949 66.127 49.6887 66.127 48.6826 66.127C48.6006 66.1354 48.5182 66.1168 48.4478 66.074C48.3775 66.0312 48.3231 65.9665 48.2929 65.8899C48.0393 65.4054 47.7651 64.9353 47.5135 64.4466C47.4208 64.2673 47.2847 64.2569 47.1156 64.259C45.7425 64.259 44.3672 64.259 42.992 64.259H42.5797C42.926 63.5724 43.2374 62.9333 43.5714 62.3044C43.6064 62.2364 43.759 62.1993 43.8559 62.1972C44.5239 62.1972 45.1919 62.1972 45.86 62.1972H46.2373L44.4765 59.288C44.3961 59.4117 44.3446 59.4942 44.3013 59.5643C43.1384 61.6797 41.9742 63.7944 40.8086 65.9084C40.7795 65.9614 40.7391 66.0073 40.6903 66.043C40.6415 66.0786 40.5854 66.103 40.5261 66.1146C39.3488 66.127 38.1736 66.1146 36.9963 66.1146C36.9778 66.1208 36.9345 66.1105 36.8623 66.1002Z" fill="black"/>
<path d="M58.2887 56.3892H61.5876C61.5876 56.5109 61.6082 56.6284 61.6082 56.748C61.6082 58.9582 61.5773 61.1705 61.6247 63.3808C61.6433 64.3292 61.2536 65.0178 60.6144 65.6343C60.4931 65.7574 60.3478 65.8543 60.1875 65.9188C60.0272 65.9834 59.8553 66.0143 59.6825 66.0095C57.4908 66.0095 55.3012 66.0508 53.1095 66.0838C53.0226 66.093 52.9349 66.0754 52.8583 66.0334C52.7816 65.9914 52.7197 65.9269 52.6806 65.8487C52.3322 65.2797 51.9693 64.7209 51.6126 64.1581C51.5838 64.1127 51.5652 64.0632 51.5137 63.9622H51.8807L57.9485 63.9416C58.3176 63.9416 58.3176 63.9416 58.3176 63.5601C58.3176 61.6784 58.3107 59.7967 58.297 57.915C58.297 57.5026 58.2784 57.1067 58.2722 56.7026C58.2681 56.5954 58.2805 56.4923 58.2887 56.3892Z" fill="black"/>
<path d="M27.2422 63.9457H30.2421C31.4111 63.9457 32.5781 63.9313 33.7471 63.9457C34.0007 63.9457 34.0915 63.8797 34.0873 63.6117C34.0688 62.4076 34.0729 61.2014 34.0647 59.9974C34.0647 58.9232 34.042 57.851 34.0296 56.7789V56.3892H37.3285C37.3285 56.482 37.347 56.581 37.347 56.6799C37.347 59.0427 37.347 61.4056 37.347 63.7684C37.347 64.7704 36.7285 65.3972 35.9615 65.923C35.862 65.9753 35.7501 65.9996 35.6378 65.9931C33.3801 66.0219 31.1204 66.0446 28.8628 66.0755C28.7759 66.0844 28.6885 66.0662 28.6124 66.0233C28.5364 65.9805 28.4755 65.9152 28.438 65.8364C28.1102 65.29 27.7556 64.756 27.4071 64.2178C27.3576 64.1477 27.3185 64.0756 27.2422 63.9457Z" fill="black"/>
</g>
</svg>
