<svg width="42" height="46" viewBox="0 0 42 46" fill="none" xmlns="http://www.w3.org/2000/svg">
<path d="M33.4424 12.3462C34.052 12.363 34.1814 12.4819 34.3233 13.0925C34.8738 15.4327 34.9751 17.8161 35.0279 20.2048C35.0808 22.5776 35.0024 24.9539 35.2684 27.3188C35.336 27.974 35.4805 28.619 35.6991 29.2404C36.0893 30.3233 36.8257 30.896 38.0016 30.926C39.4171 30.9621 40.556 31.5701 41.2792 32.7992C42.8832 35.5359 41.022 38.7316 37.8237 38.7493C34.82 38.766 31.8164 38.7493 28.8128 38.7493H28.3098C28.19 39.8172 27.8967 40.8093 27.3471 41.7053C26.1456 43.6649 24.4236 44.8544 22.1272 45.1698C22.0665 45.1786 22.0145 45.1857 21.9995 45.2579H20.2379C19.5711 45.0271 18.862 44.9381 18.2199 44.6236C15.8733 43.4737 14.4631 41.6278 14.0694 39.0339C14.0571 38.9458 14.0297 38.8656 14.0016 38.751C13.1648 38.751 12.3341 38.751 11.5035 38.751C10.9142 38.751 10.7654 38.6374 10.5936 38.0796C10.6887 37.6972 10.8834 37.4267 11.3221 37.4241C11.4797 37.4241 11.6374 37.4126 11.796 37.4074C11.8981 37.4126 12.0003 37.4214 12.1025 37.4214H37.7215C37.8096 37.4214 37.8977 37.4215 37.9858 37.417C39.6461 37.314 40.7533 35.9641 40.4829 34.3737C40.2627 33.0803 39.1872 32.2468 37.7197 32.2468C29.195 32.2468 20.6701 32.2468 12.1448 32.2468C12.0285 32.2468 11.9113 32.2556 11.7924 32.26C9.31818 32.26 6.84392 32.2238 4.36966 32.26C2.70048 32.282 1.57213 33.6918 1.84695 35.3103C2.05659 36.5439 3.12151 37.4074 4.48945 37.425C5.8107 37.4382 7.12578 37.4347 8.44351 37.425C8.91123 37.425 9.19222 37.6179 9.27678 38.0832C9.21864 38.4788 9.01253 38.7537 8.59413 38.7493C6.98397 38.7316 5.3694 38.8612 3.76541 38.6832C2.20457 38.507 0.819021 37.1668 0.535393 35.6302C0.22534 33.9482 0.987257 32.2591 2.39835 31.4635C2.97374 31.1407 3.61645 30.9567 4.27541 30.926C5.63982 30.8476 6.26785 30.3515 6.69681 29.0448C7.08614 27.8615 7.16014 26.6324 7.21122 25.405C7.31957 22.8137 7.23677 20.218 7.39444 17.6284C7.5618 14.8688 7.96169 12.1559 9.22569 9.64832C10.79 6.54333 13.3753 4.78025 16.7066 4.02867C17.0713 3.94673 17.2157 3.8128 17.2835 3.42776C17.6042 1.59332 19.3359 0.202941 21.198 0.233779C23.1182 0.26638 24.7909 1.68318 25.0578 3.54583C25.108 3.89827 25.2947 3.95465 25.5634 4.01457C27.5972 4.46833 29.439 5.30538 30.9673 6.75743C31.9825 7.73561 32.7967 8.90295 33.364 10.1937C33.5613 10.6281 33.4354 10.9532 33.054 11.2052C32.4585 11.2475 32.3449 11.1779 32.0401 10.5241C30.9338 8.15397 29.1255 6.56535 26.6671 5.71509C24.4297 4.94061 22.114 4.80227 19.7728 4.9406C19.1914 4.97497 18.603 4.98555 18.0358 5.15472C17.5469 5.15472 17.0818 5.3001 16.6176 5.41905C13.4863 6.24464 11.2384 8.08349 10.0211 11.1339C9.14024 13.3428 8.85221 15.6565 8.71304 18.0011C8.59765 19.9475 8.64258 21.8965 8.6003 23.8446C8.57299 25.1319 8.53776 26.4218 8.36335 27.7012C8.21009 28.821 7.93262 29.9039 7.27112 30.8828H35.0773C34.7029 30.4079 34.5382 29.9057 34.3127 29.4343C34.1797 28.8061 34.0114 28.1858 33.9392 27.5443C33.6873 25.2993 33.7234 23.0437 33.6908 20.7898C33.6547 18.2866 33.5763 15.7861 32.9994 13.3313C32.9034 12.8996 32.9958 12.5419 33.4424 12.3462ZM21.5723 43.864C23.6379 43.916 25.9809 42.1618 26.6301 40.0753C26.7957 39.6594 26.9366 39.2383 26.919 38.7704H15.425C15.4146 38.8179 15.4087 38.8663 15.4074 38.9149C15.4134 39.0037 15.4248 39.0919 15.4417 39.1792C15.8117 40.9221 16.7454 42.2693 18.2983 43.1521C19.3077 43.7275 20.3955 44.0385 21.5723 43.8667V43.864ZM18.648 3.68592C20.3363 3.51675 22.0373 3.51499 23.726 3.68064C23.4934 2.42595 22.3166 1.50432 21.0835 1.566C19.8503 1.62768 18.7387 2.56604 18.648 3.68504V3.68592Z" fill="#030202"/>
<path d="M33.4429 12.3462C32.9963 12.5392 32.9073 12.8969 33.0086 13.326C33.5856 15.7808 33.664 18.2813 33.7001 20.7845C33.7327 23.0384 33.7001 25.294 33.9485 27.539C34.0207 28.1805 34.1889 28.8008 34.3219 29.429C28.7539 29.429 23.1864 29.429 17.6196 29.429C17.1353 29.4354 16.6561 29.3302 16.2191 29.1215C14.941 28.495 14.3103 27.4324 14.2751 26.0297C14.2513 25.0799 14.2927 24.13 14.3314 23.1793C14.4195 21.0876 14.3121 18.9941 14.4195 16.8998C14.5146 15.0609 14.6292 13.2273 14.9744 11.4184C15.4254 9.05092 16.0808 6.77504 18.0441 5.14325C18.6114 4.97408 19.1998 4.96702 19.7811 4.92914C22.1224 4.7908 24.4381 4.92914 26.6754 5.70363C29.1347 6.55389 30.9431 8.1425 32.0485 10.5127C32.3533 11.1664 32.4669 11.2361 33.0623 11.1938C33.1915 11.5803 33.3184 11.9644 33.4429 12.3462Z" fill="#EDC67A"/>
<path d="M9.28647 38.0813C9.19839 37.6161 8.92092 37.4196 8.4532 37.4232C7.13195 37.4329 5.81687 37.4364 4.49915 37.4232C3.12857 37.4091 2.06364 36.5474 1.85665 35.3085C1.58183 33.69 2.71017 32.2802 4.37935 32.2582C6.85361 32.2247 9.32787 32.2582 11.8021 32.2582C11.6348 32.3956 11.4757 32.5427 11.3256 32.6987C10.1497 34.082 10.3021 36.2487 11.8048 37.4011C11.6462 37.4064 11.4886 37.4161 11.3309 37.4179C10.8905 37.4179 10.6976 37.691 10.6024 38.0734L9.28647 38.0813Z" fill="#F1BB50"/>
<path d="M37.9395 13.7189C37.9535 13.9524 37.98 14.1868 37.9809 14.4238C37.9809 14.8802 37.751 15.1657 37.3722 15.1957C36.9608 15.2283 36.6728 14.986 36.6499 14.4996C36.5997 13.4608 36.5557 12.422 36.3337 11.4025C35.7171 8.57333 34.4003 6.18114 31.9868 4.47974C31.5684 4.18457 31.4583 3.81627 31.6847 3.47881C31.911 3.14135 32.3189 3.09377 32.7311 3.37485C34.5879 4.63834 35.8933 6.35032 36.775 8.39711C37.4949 10.0818 37.89 11.8874 37.9395 13.7189Z" fill="#030202"/>
<path d="M4.40022 13.7612C4.54115 10.6386 5.41141 7.77943 7.43557 5.33702C8.06103 4.57868 8.79366 3.91559 9.61035 3.36865C10.012 3.10432 10.3934 3.1378 10.6295 3.44266C10.8655 3.74752 10.8056 4.17662 10.426 4.4295C9.29298 5.19322 8.33519 6.18914 7.61614 7.35122C6.60582 8.94866 6.04385 10.6994 5.81836 12.57C5.74261 13.1973 5.73996 13.8273 5.70121 14.4555C5.67126 14.934 5.43696 15.1824 5.0538 15.1956C4.65918 15.2089 4.38084 14.9454 4.36234 14.5066C4.35177 14.259 4.38613 14.0097 4.40022 13.7612Z" fill="#030202"/>
<path d="M1.43637 9.98408C1.54383 7.91349 2.26436 5.83499 3.94851 4.15738C4.1154 3.99427 4.29188 3.84127 4.47701 3.6992C4.88043 3.38465 5.26976 3.38288 5.52784 3.68598C5.78593 3.98908 5.71987 4.40408 5.29707 4.7433C4.70269 5.22007 4.20362 5.80479 3.82607 6.46673C3.14519 7.643 2.82192 8.91972 2.76114 10.2687C2.72415 11.0758 2.53653 11.3894 2.07233 11.3797C1.60813 11.3701 1.41347 11.0326 1.43637 9.98408Z" fill="#030202"/>
<path d="M40.9187 10.2413C40.9187 10.3735 40.9187 10.5056 40.9187 10.6369C40.9072 11.0775 40.6544 11.3665 40.2721 11.3762C39.8899 11.3859 39.6089 11.1022 39.5948 10.6634C39.5692 9.8413 39.4944 9.02893 39.2601 8.2377C38.8531 6.86318 38.1899 5.65343 37.0465 4.74326C36.629 4.41108 36.5524 4.00225 36.8149 3.68594C37.0774 3.36962 37.4676 3.37667 37.8648 3.69563C39.4503 4.97058 40.3312 6.66141 40.7302 8.62978C40.8367 9.16095 40.8997 9.69991 40.9187 10.2413Z" fill="#030202"/>
<path d="M18.0444 5.14856C16.0811 6.78035 15.4257 9.05623 14.9747 11.4237C14.6295 13.2326 14.5149 15.0662 14.4198 16.9051C14.3115 18.9994 14.4198 21.0929 14.3317 23.1847C14.293 24.1354 14.2516 25.0852 14.2754 26.035C14.3106 27.4377 14.9413 28.5021 16.2194 29.1268C16.6564 29.3355 17.1356 29.4407 17.6199 29.4343C23.1879 29.4343 28.7554 29.4343 34.3222 29.4343C34.5477 29.9057 34.7124 30.4035 35.0868 30.8828H7.27979C7.94129 29.9013 8.21876 28.821 8.37202 27.7012C8.54819 26.4218 8.58166 25.1319 8.60896 23.8446C8.65124 21.8965 8.60896 19.9475 8.72171 18.0011C8.86088 15.6565 9.14892 13.3428 10.0297 11.1339C11.2471 8.08349 13.4949 6.24464 16.6263 5.41905C17.0905 5.29746 17.5556 5.1512 18.0444 5.14856Z" fill="#F1BB50"/>
<path d="M11.802 37.4109C10.2993 36.2585 10.1469 34.0919 11.3228 32.7085C11.4729 32.5525 11.632 32.4054 11.7993 32.268C11.9165 32.268 12.0336 32.2548 12.1517 32.2548C20.6769 32.2548 29.2019 32.2548 37.7266 32.2548C39.1941 32.2548 40.2696 33.0883 40.4898 34.3817C40.7602 35.9677 39.653 37.322 37.9927 37.425C37.9046 37.4303 37.8165 37.4295 37.7284 37.4295H12.1085C12.0063 37.4251 11.9042 37.4162 11.802 37.4109Z" fill="#EDC67A"/>
<path d="M21.5722 43.8667C20.3919 44.0429 19.3076 43.7275 18.2981 43.153C16.7452 42.2719 15.8115 40.9229 15.4416 39.1801C15.4247 39.0928 15.4132 39.0045 15.4072 38.9158C15.4086 38.8672 15.4145 38.8188 15.4248 38.7713H26.9188C26.9365 39.2392 26.7955 39.6603 26.629 40.0762C24.6718 40.0762 22.7137 40.0709 20.7565 40.0762C20.1576 40.0762 19.6731 40.2982 19.4353 40.8939C19.1974 41.4895 19.3877 41.9512 19.7973 42.4005C20.3196 42.9812 20.953 43.412 21.5722 43.8667Z" fill="#1A3875"/>
<path d="M21.5723 43.8666C20.9558 43.412 20.3198 42.9855 19.7948 42.4049C19.3852 41.9555 19.1959 41.485 19.4328 40.8982C19.6698 40.3114 20.1577 40.0823 20.7541 40.0806C22.7113 40.0744 24.6694 40.0806 26.6266 40.0806C25.9809 42.1644 23.6379 43.9186 21.5723 43.8666Z" fill="#808FAD"/>
<path d="M18.6484 3.68505C18.7365 2.56958 19.8455 1.63385 21.0857 1.57041C22.3259 1.50697 23.4939 2.42772 23.7282 3.68505C22.0391 3.51752 20.3376 3.51752 18.6484 3.68505Z" fill="#FFF7E9"/>
</svg>
