<svg width="84" height="68" viewBox="0 0 84 68" fill="none" xmlns="http://www.w3.org/2000/svg">
  <path d="M42.1274 67.8721H5.93806C5.06807 67.9055 4.20495 67.7059 3.43783 67.2942C2.67071 66.8825 2.02741 66.2734 1.57436 65.53C1.06646 64.7399 0.803648 63.8172 0.818995 62.878C0.818995 59.5849 0.818995 56.2908 0.818995 52.9959C0.818995 37.0228 0.818995 21.0488 0.818995 5.07394C0.818995 2.92741 1.82705 1.37592 3.75349 0.430364C4.38538 0.133767 5.07714 -0.0131362 5.77503 0.00106147H6.00871C30.0915 0.00106147 54.1743 0.00106147 78.2571 0.00106147C79.9254 0.00106147 81.303 0.587956 82.3518 1.88946C83.0488 2.73762 83.4283 3.80223 83.425 4.90004C83.425 7.10634 83.425 9.31265 83.425 11.5217V62.7449C83.4462 63.4252 83.3276 64.1027 83.0767 64.7354C82.8257 65.3681 82.4476 65.9426 81.9658 66.4234C81.484 66.9042 80.9087 67.281 80.2754 67.5307C79.6422 67.7803 78.9645 67.8975 78.2842 67.8748C67.327 67.8748 56.3679 67.8748 45.407 67.8748L42.1274 67.8721ZM2.22918 15.2414H82.0067C82.0067 15.1572 82.0067 15.092 82.0067 15.024C82.0067 11.6476 82.0067 8.26928 82.0067 4.88917C82.004 4.66047 81.9767 4.43273 81.9252 4.20989C81.5312 2.49267 80.1373 1.40854 78.3196 1.40854H5.92176C5.67535 1.40308 5.42894 1.41945 5.18542 1.45744C4.34861 1.59909 3.59037 2.03617 3.04841 2.68931C2.50646 3.34244 2.21675 4.1683 2.2319 5.01687C2.2319 8.32633 2.2319 11.6367 2.2319 14.948L2.22918 15.2414ZM28.0174 63.5329L28.0745 63.5682L36.4405 51.9063H35.302C35.3067 51.8633 35.314 51.8207 35.3238 51.7786C36.3273 48.8278 37.3326 45.8779 38.3398 42.9289C38.3615 42.8909 38.3922 42.8586 38.4291 42.835C38.466 42.8113 38.508 42.7969 38.5517 42.7931C39.068 42.823 39.5815 42.8719 40.0978 42.918C40.3124 42.9371 40.5271 42.9642 40.7716 42.9914C39.9157 45.8906 39.068 48.7571 38.2121 51.6618H41.8258L38.0436 64.0437L38.1034 64.0736L47.2248 51.9063H45.9504L52.6291 31.8213H48.3306C49.5642 27.7456 50.7896 23.6699 52.0178 19.6296L51.9281 19.5725C51.8284 19.6295 51.737 19.6999 51.6564 19.7817C51.3304 20.2165 51.0179 20.6594 50.7 21.0995L43.7088 30.8078C43.5376 31.0442 43.3502 31.2697 43.1491 31.5306L44.3664 31.5876C44.1436 32.2941 43.9371 32.9462 43.7278 33.5983C43.0268 35.8173 42.324 38.0372 41.6193 40.258C41.584 40.3721 41.5759 40.5052 41.3857 40.4944C40.6412 40.4482 39.8967 40.4156 39.1196 40.3775C40.0162 37.5246 40.9047 34.6933 41.8041 31.8267H37.8127C39.106 27.6777 40.3885 23.5613 41.6683 19.4448L41.6139 19.4204L32.8784 31.5903H34.0168L27.6696 51.659H31.6937C30.4628 55.6478 29.232 59.5903 28.0174 63.5329ZM27.3001 41.6899C27.4577 41.6111 27.5718 41.554 27.6968 41.4888C28.0702 41.3378 28.3683 41.0445 28.5255 40.6737C29.2736 38.3804 30.0236 36.0863 30.7753 33.7912C30.8662 33.5652 30.8983 33.3198 30.8687 33.0779C30.8391 32.8361 30.7488 32.6056 30.6061 32.4081C30.4634 32.2106 30.273 32.0525 30.0527 31.9485C29.8324 31.8444 29.5893 31.7979 29.3461 31.8132C24.439 31.8023 19.5327 31.7914 14.6274 31.7806C14.5457 31.7679 14.4622 31.7863 14.3934 31.832C14.3245 31.8778 14.2752 31.9476 14.2552 32.0278C13.7661 33.3185 13.2254 34.5901 12.7743 35.8943C11.1305 40.6465 9.5138 45.4042 7.88352 50.1701C7.75531 50.5183 7.64825 50.874 7.5629 51.2352C7.49497 51.5558 7.61453 51.6672 7.9433 51.6645H23.0152C23.4032 51.6538 23.7803 51.5332 24.1025 51.3168C24.4248 51.1004 24.679 50.7969 24.8357 50.4418C25.7323 48.1186 26.6208 45.7928 27.5229 43.4723C27.7756 42.8311 27.8055 42.2388 27.2892 41.6899H27.3001ZM67.144 31.8458H66.8207C63.1272 31.8458 59.4355 31.8367 55.7457 31.8186C55.6568 31.8053 55.5661 31.8258 55.4917 31.8761C55.4172 31.9264 55.3643 32.0029 55.3435 32.0903C53.36 37.2257 51.5613 42.4154 49.8142 47.6486C49.4501 48.7354 49.0806 49.8223 48.7409 50.9308C48.5833 51.4471 48.7763 51.6618 49.317 51.6645L54.0774 51.6971C56.1315 51.7098 58.1857 51.717 60.2398 51.7188C60.2942 51.7186 60.3478 51.7066 60.3971 51.6836C60.4464 51.6607 60.49 51.6272 60.5251 51.5857C60.8445 51.0326 61.0157 50.4065 61.0223 49.7679C61.0223 49.6022 60.9707 49.5234 60.7941 49.5125C60.0659 49.4636 59.3377 49.4065 58.6204 49.3522C58.1313 49.3142 57.645 49.2707 57.1341 49.2272C57.1613 49.1403 57.1776 49.0751 57.2021 49.0153C57.9139 47.0481 58.6313 45.0836 59.3404 43.1137C59.3556 43.0415 59.3978 42.9778 59.4585 42.9359C59.5192 42.8939 59.5936 42.8768 59.6665 42.8882C60.862 42.8882 62.0603 42.8746 63.2558 42.8583C63.3509 42.8583 63.4976 42.8202 63.5275 42.7523C63.8715 42.096 64.0576 41.3684 64.071 40.6275L60.2398 40.4944C60.2561 40.4183 60.2615 40.3775 60.2724 40.3368C60.9843 38.2446 61.6953 36.1515 62.4054 34.0575C62.4597 33.8945 62.5575 33.8945 62.6906 33.8918C63.9043 33.8628 65.117 33.8302 66.3289 33.7939C66.4176 33.7959 66.5036 33.7627 66.568 33.7016C66.9207 33.1448 67.1194 32.5044 67.144 31.8458V31.8458ZM62.5793 51.6808H62.8319L65.7855 51.7052L73.9559 51.7569C74.0272 51.7627 74.0987 51.7479 74.1618 51.7142C74.225 51.6804 74.277 51.6292 74.3118 51.5667C74.6846 51.0165 74.8946 50.3723 74.9177 49.7081C74.9177 49.5016 74.8661 49.4364 74.646 49.4364C73.7113 49.4228 72.7793 49.3957 71.8474 49.3712C71.5947 49.3712 71.3447 49.3441 71.0676 49.3277L76.692 32.0523C76.5697 32.0387 76.4937 32.0278 76.4203 32.0251L73.7466 31.9599C72.2712 31.9219 70.7958 31.8892 69.3204 31.8349C69.2753 31.825 69.2286 31.8242 69.1831 31.8325C69.1376 31.8408 69.0942 31.8582 69.0555 31.8835C69.0168 31.9088 68.9835 31.9415 68.9576 31.9798C68.9317 32.0182 68.9138 32.0613 68.9047 32.1066C66.8506 38.0426 64.7883 43.9768 62.7178 49.9092C62.5082 50.4725 62.4584 51.0828 62.5738 51.6726L62.5793 51.6808Z" fill="#999" />
</svg>