<svg width="49" height="46" viewBox="0 0 49 46" fill="none" xmlns="http://www.w3.org/2000/svg">
<path d="M24.1181 45.6603C23.6777 45.4576 23.1889 45.4929 22.7238 45.425C19.2962 44.9318 16.0302 43.6483 13.1835 41.676C13.0954 41.6187 13.0144 41.5623 12.9272 41.5086C12.8989 41.4969 12.8693 41.4889 12.8391 41.4848C12.6391 41.8689 12.4603 42.2654 12.2348 42.6302C11.4773 43.8637 9.84688 43.8576 9.09553 42.617C8.82636 42.1985 8.61399 41.746 8.46398 41.2715C8.38118 40.9843 8.21999 40.8433 7.94252 40.7587C7.46986 40.6035 7.01856 40.3895 6.59925 40.1217C5.38106 39.3825 5.36609 37.7648 6.57635 37.0079C6.9463 36.7771 7.34708 36.5947 7.75314 36.3797C6.7763 35.0105 5.90868 33.5734 5.28065 32.0094C2.24941 24.4508 2.95408 17.2551 7.39465 10.4225C7.68356 9.98195 7.89144 9.92996 8.44196 10.1203C8.76258 10.4921 8.70621 10.8454 8.44196 11.234C6.72774 13.7113 5.58453 16.5383 5.0948 19.511C4.17433 25.1386 5.27096 30.3389 8.46398 35.0801C8.51507 35.1567 8.53709 35.2818 8.67978 35.2616C8.81983 35.0052 8.94932 34.7426 9.10082 34.4932C9.85658 33.2527 11.4791 33.25 12.2428 34.4932C12.5133 34.9116 12.7258 35.3648 12.8743 35.8404C12.958 36.1303 13.1271 36.2599 13.3984 36.3506C13.884 36.5154 14.3475 36.7391 14.7787 37.0167C15.9643 37.7718 15.959 39.3657 14.7663 40.112C14.5091 40.2724 14.2378 40.4125 13.9736 40.564C14.0044 40.6098 14.0141 40.6371 14.0344 40.6521C14.1163 40.7129 14.2008 40.7702 14.2863 40.8283C17.5868 43.0214 21.2264 44.1765 25.1778 44.3263C27.6371 44.4144 30.055 44.1219 32.4006 43.3236C32.5125 43.2928 32.6261 43.2672 32.7362 43.2302C35.2216 42.4004 37.5277 41.1077 39.5327 39.4204C39.9 39.1137 40.2427 39.0459 40.6294 39.349C40.8628 39.8776 40.8275 40.0636 40.403 40.416C37.1598 43.1042 33.4655 44.7827 29.2948 45.4145C28.7443 45.4973 28.1753 45.4656 27.6415 45.6603H24.1181ZM10.6537 34.9012C10.4379 34.9012 10.3137 35.0351 10.2133 35.2096C9.92152 35.6834 9.701 36.1976 9.55885 36.7356C9.45667 37.1436 9.21533 37.3612 8.82512 37.4564C8.34526 37.5859 7.88404 37.7766 7.45279 38.0238C7.22818 38.1454 7.00268 38.2732 7.01237 38.5683C7.01854 38.8379 7.22376 38.9622 7.43516 39.082C7.87602 39.3418 8.35014 39.5404 8.8445 39.6723C9.24528 39.7728 9.46109 40.0019 9.5659 40.401C9.70359 40.9253 9.91883 41.426 10.2045 41.8865C10.4873 42.3518 10.866 42.3544 11.1488 41.8918C11.4346 41.433 11.6496 40.9337 11.7865 40.4107C11.8878 40.008 12.1089 39.7807 12.5052 39.6785C13.0143 39.5423 13.5022 39.3365 13.9551 39.067C14.4836 38.7595 14.4836 38.3621 13.9428 38.052C13.4763 37.7764 12.9743 37.5662 12.4506 37.4273C12.2928 37.3952 12.1478 37.3175 12.0337 37.2038C11.9196 37.0901 11.8413 36.9454 11.8085 36.7876C11.6582 36.2368 11.4339 35.7089 11.1417 35.2184C11.0299 35.0228 10.8916 34.8915 10.6564 34.9012H10.6537Z" fill="#040303"/>
<path d="M9.19024 9.08229C8.90221 8.70342 8.96387 8.37125 9.27832 8.02498C12.9875 3.99835 17.5449 1.5445 22.9665 0.829048C28.8751 0.0501568 34.2869 1.43083 39.1535 4.89707C39.5217 5.1614 39.8855 5.05127 40.0784 4.63274C40.1859 4.37695 40.3113 4.12905 40.4536 3.89087C40.9971 3.03356 42.1633 2.9428 42.6813 3.80276C43.112 4.51557 43.5876 5.05128 44.3381 5.45746C45.1608 5.9033 45.0956 7.10071 44.309 7.6373C44.0361 7.80566 43.7508 7.95293 43.4555 8.07785C43.0864 8.25407 43.0301 8.46201 43.2917 8.78273C45.8409 11.8453 47.524 15.5347 48.1662 19.4678C48.2631 20.0441 48.3116 20.6291 48.3873 21.2097C48.3996 21.2978 48.338 21.4203 48.4754 21.4741V24.9914C48.2922 25.2099 48.3521 25.4857 48.323 25.7315C47.7557 30.5141 45.8452 34.6835 42.639 38.2669C42.2497 38.7022 42.0435 38.7322 41.5362 38.4528C41.2437 38.0431 41.3671 37.7136 41.678 37.3594C45.9694 32.4719 47.8015 26.7783 46.9507 20.3357C46.1139 14.0068 42.9244 9.05763 37.6473 5.46804C36.0411 4.36344 34.2701 3.52034 32.4002 2.97011C32.3491 2.94337 32.2965 2.91984 32.2425 2.89963C28.9023 1.84683 25.3504 1.65558 21.9165 2.34365C17.3362 3.25295 13.4605 5.44689 10.2957 8.87877C9.87993 9.32548 9.69143 9.35632 9.19024 9.08229ZM42.0717 7.3994C42.4241 6.81699 43.1622 6.95885 43.5586 6.50068C43.3096 6.30861 43.0216 6.17356 42.7147 6.10507C42.343 6.01696 42.1466 5.80637 42.0374 5.44776C41.944 5.14114 41.8612 4.81161 41.6128 4.58429C41.1724 5.03365 41.3089 5.78171 40.6853 6.09626L42.0717 7.3994Z" fill="#040303"/>
<path d="M44.7805 45.6602C44.1938 45.3518 43.8389 44.854 43.6354 44.239C43.6094 44.1568 43.5637 44.0822 43.5023 44.0217C43.4409 43.9612 43.3656 43.9166 43.2831 43.8919C43.0105 43.7875 42.7493 43.6555 42.5035 43.498C41.6984 42.9694 41.6033 41.8239 42.4154 41.3226C43.1527 40.8741 43.6997 40.3675 44.1286 39.6044C44.5779 38.8044 45.8137 38.8502 46.2594 39.6661C46.6496 40.3798 47.0847 40.949 47.859 41.2521C48.199 41.3834 48.2994 41.7596 48.465 42.0583V42.7632C48.169 43.3606 47.6493 43.6866 47.0557 43.9015C46.8539 43.9747 46.7667 44.1007 46.6927 44.2901C46.4584 44.8937 46.1458 45.4355 45.4807 45.6655L44.7805 45.6602ZM45.1795 44.3386C45.3712 44.0797 45.5079 43.7844 45.5811 43.4707C45.6692 43.0786 45.907 42.8742 46.2779 42.7711C46.5963 42.6958 46.8948 42.553 47.1534 42.3526C46.8841 42.1656 46.5829 42.0295 46.2647 41.9508C45.893 41.8689 45.6904 41.638 45.5917 41.2829C45.5167 40.9604 45.3731 40.6577 45.1707 40.3957C44.9373 40.7076 44.8254 41.0424 44.7214 41.3754C44.6874 41.5102 44.6167 41.633 44.5172 41.73C44.4177 41.8271 44.2933 41.8946 44.1577 41.9252C43.8221 42.0134 43.4944 42.1332 43.2064 42.3658C43.4573 42.5519 43.7431 42.6856 44.0467 42.7588C44.4546 42.8469 44.6721 43.0909 44.7734 43.4821C44.8497 43.7918 44.9878 44.0828 45.1795 44.3377V44.3386Z" fill="#040303"/>
<path d="M9.19026 9.0823C9.69145 9.35632 9.87995 9.32549 10.2939 8.87701C13.4649 5.44513 17.3344 3.25119 21.9148 2.34189C25.3486 1.65382 28.9006 1.84508 32.2408 2.89787C32.2947 2.91808 32.3474 2.94163 32.3984 2.96837C32.3456 3.01594 32.3016 3.08379 32.2399 3.10934C31.5545 3.40081 30.8884 3.73572 30.2457 4.11203C27.9377 5.40957 25.8863 7.1182 24.1926 9.15368C22.7064 10.9234 21.5206 12.9252 20.6825 15.0791C20.1795 16.384 19.7382 17.7109 19.5374 19.1057C19.4493 19.0088 19.3612 18.911 19.2732 18.8158C18.8947 18.4164 18.3984 18.1486 17.8569 18.0514C17.3154 17.9543 16.757 18.0328 16.2633 18.2757C15.2742 18.7621 14.6937 19.8344 14.8663 20.8556C13.8384 20.9234 12.895 21.208 12.0935 21.8935C10.6657 23.1182 10.6639 24.8963 11.9393 26.1095C13.7089 27.7942 16.8332 27.6127 18.35 25.891C19.1428 24.9879 19.319 23.6619 18.6548 22.6565C18.0382 21.712 17.1142 21.2124 16.0458 20.9454C16.0819 20.7895 16.1242 20.6344 16.1524 20.4767C16.2774 19.7515 16.754 19.3233 17.4269 19.3313C18.0867 19.3427 18.5773 19.8044 18.6495 20.5269C18.6865 20.8943 18.8495 21.126 19.1912 21.2432C19.1912 22.2177 19.1912 23.1931 19.1912 24.1676C19.1971 25.1297 19.2959 26.089 19.4863 27.0321C19.9329 29.3837 20.6992 31.6244 21.8804 33.7187C23.074 35.8663 24.6196 37.7981 26.4528 39.4335C28.1085 40.9144 29.9796 42.1349 32.0021 43.0531C32.1439 43.1165 32.3139 43.1526 32.3923 43.3174C30.0501 44.1157 27.6358 44.4126 25.1694 44.3201C21.218 44.1703 17.5784 43.0152 14.278 40.8221C14.1899 40.7649 14.108 40.7076 14.026 40.6459C14.0058 40.6309 13.9961 40.6036 13.9653 40.5578C14.2295 40.4063 14.5026 40.2662 14.758 40.1058C15.9506 39.3595 15.9559 37.7656 14.7703 37.0105C14.3392 36.7329 13.8756 36.5092 13.3901 36.3444C13.1188 36.2563 12.9497 36.1241 12.866 35.8342C12.7175 35.3586 12.505 34.9054 12.2344 34.487C11.4743 33.2473 9.84824 33.2535 9.09249 34.487C8.94098 34.7364 8.8115 34.999 8.67145 35.2554C8.52875 35.2756 8.50673 35.1505 8.45564 35.0739C5.2635 30.3327 4.16598 25.1324 5.08645 19.5048C5.57618 16.5321 6.71939 13.7051 8.43362 11.2278C8.69787 10.8392 8.75512 10.4859 8.43362 10.1141L9.19026 9.0823Z" fill="#F1BB50"/>
<path d="M19.5439 19.1056C19.7403 17.7109 20.1816 16.3839 20.689 15.079C21.5266 12.9252 22.7118 10.9235 24.1974 9.15363C25.8911 7.11815 27.9425 5.40952 30.2504 4.11199C30.8932 3.73567 31.5593 3.40076 32.2446 3.1093C32.3063 3.08374 32.3504 3.0159 32.4032 2.96832C34.2731 3.51855 36.0441 4.36164 37.6503 5.46624C42.9274 9.05407 46.1169 14.005 46.9537 20.3339C47.8046 26.7765 45.9724 32.4702 41.681 37.3576C41.3701 37.71 41.2468 38.0413 41.5392 38.4511L40.6258 39.3533C40.2391 39.0502 39.8964 39.1181 39.5291 39.4247C37.5245 41.1112 35.219 42.4032 32.7344 43.2328C32.6243 43.2698 32.5107 43.2953 32.3988 43.3262C32.3204 43.1614 32.1504 43.1253 32.0086 43.0618C29.9861 42.1437 28.115 40.9232 26.4593 39.4423C24.6261 37.8069 23.0805 35.875 21.8869 33.7275C20.7057 31.6331 19.9394 29.3925 19.4928 27.0408C19.3025 26.0977 19.2036 25.1385 19.1978 24.1764C19.2022 23.2019 19.1978 22.2265 19.1978 21.252C19.8302 21.1912 20.0451 20.9251 19.9702 20.2978C19.92 19.8643 19.7456 19.4801 19.5439 19.1056ZM35.9036 21.0264C35.3697 21.118 34.8602 21.3176 34.4062 21.6133C32.4508 22.8142 32.2993 25.1376 34.1878 26.4954C35.9248 27.7431 38.0731 27.6409 39.8524 26.3139C40.9094 25.5209 41.2186 23.8918 40.5201 22.771C39.7273 21.4934 38.4942 21.0308 37.0734 20.9383C37.3473 19.6273 36.3229 18.295 34.8713 18.0765C33.4197 17.858 31.9469 19.1286 31.9742 20.5744C31.9822 20.9753 32.2385 21.2679 32.604 21.2881C32.9476 21.3075 33.2206 21.0687 33.2849 20.6819C33.2981 20.6097 33.3034 20.5366 33.3166 20.4643C33.4364 19.8185 33.9447 19.3735 34.5595 19.3761C35.1902 19.3761 35.7046 19.8511 35.8067 20.5154C35.827 20.6872 35.8693 20.8564 35.9036 21.0264ZM22.0746 21.7639C22.0751 22.2856 22.1743 22.8025 22.367 23.2873C23.1289 25.3033 25.1601 26.3668 27.0777 25.7544C28.775 25.2143 29.9844 23.3587 29.8699 21.467C29.7818 19.9638 29.0904 19.1682 27.6 18.9012C26.5741 18.7195 25.5256 18.705 24.4951 18.8581C22.8497 19.0995 22.0605 20.0352 22.0772 21.7639H22.0746Z" fill="#EDC67A"/>
<path d="M10.6557 34.9011C10.8908 34.8914 11.0291 35.0227 11.1401 35.2139C11.4323 35.7045 11.6566 36.2323 11.8069 36.7832C11.8397 36.9409 11.918 37.0856 12.0321 37.1993C12.1462 37.313 12.2912 37.3907 12.449 37.4228C12.9727 37.5617 13.4747 37.7719 13.9412 38.0475C14.4785 38.3612 14.4829 38.7524 13.9535 39.0626C13.5006 39.3321 13.0127 39.5378 12.5036 39.6741C12.1073 39.7763 11.8871 40.0036 11.7849 40.4062C11.6481 40.9308 11.4328 41.4317 11.1463 41.8918C10.8635 42.3544 10.4848 42.3517 10.202 41.8865C9.91635 41.4259 9.7011 40.9252 9.56342 40.401C9.46213 40.0018 9.2428 39.7727 8.84202 39.6723C8.34766 39.5403 7.87354 39.3417 7.43268 39.082C7.22128 38.9621 7.01606 38.8379 7.00989 38.5683C7.00372 38.2731 7.22922 38.1453 7.45031 38.0238C7.88156 37.7766 8.34278 37.5859 8.82264 37.4563C9.21285 37.3612 9.45419 37.1435 9.55637 36.7356C9.69852 36.1975 9.91904 35.6833 10.2108 35.2095C10.3157 35.0359 10.4399 34.9055 10.6557 34.9011Z" fill="#FFF7E9"/>
<path d="M42.072 7.3994L40.6855 6.09626C41.3092 5.78171 41.1726 5.03365 41.6131 4.58429C41.8632 4.81161 41.9443 5.14114 42.0376 5.44776C42.1469 5.80637 42.3433 6.01696 42.715 6.10507C43.0218 6.17356 43.3099 6.30861 43.5588 6.50068C43.1625 6.95621 42.4208 6.81699 42.072 7.3994Z" fill="#FFF7E9"/>
<path d="M45.1806 44.3377C44.9894 44.0839 44.8513 43.7941 44.7745 43.4857C44.6732 43.0945 44.4557 42.8504 44.0478 42.7623C43.7442 42.6891 43.4584 42.5555 43.2075 42.3693C43.4956 42.1323 43.8241 42.0169 44.1588 41.9288C44.2944 41.8982 44.4188 41.8306 44.5183 41.7335C44.6178 41.6365 44.6885 41.5137 44.7226 41.379C44.8265 41.0459 44.9384 40.7111 45.1718 40.3992C45.3742 40.6612 45.5178 40.9639 45.5928 41.2864C45.6915 41.6389 45.8941 41.8724 46.2658 41.9543C46.584 42.033 46.8852 42.1691 47.1545 42.3561C46.8959 42.5566 46.5974 42.6993 46.279 42.7746C45.9082 42.8777 45.6677 43.0821 45.5822 43.4742C45.5084 43.7863 45.3717 44.0801 45.1806 44.3377Z" fill="#FFF7E9"/>
<path d="M16.0542 20.9454C17.1226 21.2097 18.0431 21.712 18.6632 22.6565C19.3238 23.6618 19.1539 24.9879 18.3585 25.891C16.8417 27.6127 13.7173 27.7942 11.9478 26.1095C10.6723 24.8962 10.6741 23.1138 12.1019 21.8935C12.9035 21.2053 13.8468 20.9243 14.8748 20.8555C15.2949 21.3348 15.5741 21.3569 16.0542 20.9454Z" fill="#F4A70F"/>
<path d="M16.0534 20.9454C15.5769 21.3569 15.2941 21.3348 14.874 20.8573C14.6978 19.8361 15.2818 18.7638 16.271 18.2774C16.7646 18.0346 17.323 17.956 17.8645 18.0532C18.406 18.1503 18.9023 18.4182 19.2808 18.8176C19.3689 18.9127 19.4569 19.0105 19.545 19.1074C19.7467 19.4819 19.9211 19.8661 19.9731 20.2951C20.048 20.9225 19.8331 21.1886 19.2006 21.2494C18.8589 21.1322 18.6959 20.8969 18.6589 20.533C18.5867 19.8105 18.0961 19.3488 17.4363 19.3374C16.7634 19.3251 16.2868 19.7533 16.1617 20.4828C16.1318 20.6344 16.0895 20.7894 16.0534 20.9454Z" fill="#040303"/>
<path d="M37.0664 20.9384C38.4907 21.0265 39.7177 21.4935 40.5131 22.771C41.2116 23.8918 40.9051 25.5218 39.8454 26.3139C38.0662 27.6435 35.9178 27.7431 34.1808 26.4954C32.2923 25.1394 32.4438 22.8142 34.3993 21.6133C34.8548 21.317 35.3662 21.1172 35.902 21.0265C36.4058 21.4256 36.6454 21.4071 37.0664 20.9384Z" fill="#F4A70F"/>
<path d="M22.0774 21.764C22.0607 20.0353 22.8499 19.0995 24.4979 18.8608C25.5285 18.7077 26.577 18.7222 27.6029 18.9039C29.0932 19.1683 29.782 19.9665 29.8728 21.4697C29.9864 23.3614 28.7779 25.217 27.0805 25.7571C25.163 26.3668 23.1318 25.3033 22.3699 23.29C22.1768 22.8044 22.0776 22.2866 22.0774 21.764ZM28.5357 21.667C28.5357 20.7921 28.3146 20.3921 27.6046 20.2573C26.5135 20.0423 25.3909 20.0423 24.2998 20.2573C24.0648 20.295 23.8497 20.4114 23.6896 20.5875C23.5295 20.7637 23.4341 20.989 23.4189 21.2265C23.3247 22.1076 23.507 22.9235 24.0549 23.6257C24.6028 24.328 25.3347 24.7245 26.2314 24.5949C27.6416 24.3747 28.5269 23.2178 28.5357 21.667Z" fill="#040303"/>
<path d="M37.067 20.9383C36.6433 21.4071 36.4037 21.4256 35.9025 21.0264C35.8673 20.8564 35.825 20.6872 35.7977 20.5154C35.6956 19.8511 35.1811 19.3797 34.5505 19.3761C33.9339 19.3761 33.4274 19.8167 33.3076 20.4643C33.2944 20.5366 33.2891 20.6097 33.2759 20.6819C33.2072 21.0687 32.9385 21.3075 32.595 21.2881C32.2304 21.2679 31.9731 20.9753 31.9652 20.5744C31.9379 19.1286 33.4115 17.8571 34.8623 18.0765C36.313 18.2959 37.3436 19.6273 37.067 20.9383Z" fill="#040303"/>
<path d="M28.5355 21.667C28.5267 23.2177 27.6449 24.3755 26.2303 24.5852C25.3336 24.7182 24.6034 24.3209 24.0538 23.616C23.5041 22.9111 23.3236 22.0961 23.4178 21.2168C23.433 20.9792 23.5285 20.7539 23.6885 20.5778C23.8486 20.4017 24.0637 20.2852 24.2987 20.2475C25.3898 20.0326 26.5124 20.0326 27.6035 20.2475C28.3144 20.392 28.5399 20.7921 28.5355 21.667Z" fill="#1A3875"/>
</svg>
