<svg width="118" height="58" viewBox="0 0 118 58" fill="none" xmlns="http://www.w3.org/2000/svg">
<g opacity="0.4">
<path d="M65.3671 57.8637C65.4116 57.616 65.2456 57.457 65.1498 57.2537C64.5514 55.9868 63.9974 54.6989 63.3664 53.4274C63.3056 54.1286 63.1817 54.7737 63.4622 55.496C63.6959 56.1247 63.3313 56.8984 63.6842 57.5996H61.7021C61.992 56.9218 61.833 56.2135 61.8564 55.5193C61.8821 54.741 61.8564 53.9627 61.8564 53.182V50.903H63.3967C64.2195 52.3171 64.6683 53.9206 65.6266 55.4773C66.3839 53.8411 67.0758 52.3686 67.777 50.8656H69.3757C69.0018 51.5996 69.1116 52.3475 69.1046 53.0838C69.0976 53.8201 69.0882 54.561 69.1046 55.2996C69.121 56.0382 68.9573 56.8119 69.3874 57.5739H67.5175C67.244 56.9194 67.8401 56.279 67.7209 55.5661C67.6063 54.8906 67.6952 54.18 67.6952 53.3245C67.0851 54.6031 66.5405 55.7297 66.0076 56.861C65.8533 57.1859 65.7294 57.5225 65.5915 57.8544L65.3671 57.8637Z" fill="black"/>
<path d="M42.6946 57.8637C42.5965 57.7866 42.496 57.6417 42.3954 57.6417C41.0445 57.6417 40.2123 56.9405 39.7425 55.7227C39.6847 55.5471 39.657 55.3629 39.6607 55.1781C39.649 54.7503 39.6981 54.3203 39.649 53.8995C39.5018 52.6327 40.2007 51.8193 41.1286 51.1695C41.4141 50.929 41.7824 50.8099 42.1547 50.8376C42.621 50.8838 43.0908 50.8838 43.5571 50.8376C44.0304 50.8015 44.504 50.904 44.9199 51.1328C45.3359 51.3615 45.6761 51.7065 45.8992 52.1255C46.556 53.3129 46.785 54.6592 46.1095 55.9518C45.5883 56.9451 44.8754 57.7539 43.5782 57.6417C43.5221 57.6417 43.4566 57.7866 43.3935 57.8637H42.6946ZM41.2922 53.0955C41.2922 53.6798 41.3179 54.2642 41.2922 54.8392C41.2525 55.5544 41.575 55.9564 42.2272 56.2416C43.5524 56.8283 44.7983 56.0546 44.8123 54.5844C44.8123 54.159 44.8123 53.7336 44.8123 53.577C44.5786 52.4808 43.8773 52.1746 43.1598 52.046C42.2973 51.8847 41.7971 52.5439 41.2922 53.0932V53.0955Z" fill="black"/>
<path d="M28.6704 57.8637C28.5722 57.7866 28.4647 57.63 28.3735 57.6417C27.2633 57.7352 26.6322 57.034 26.1086 56.2392C25.1293 54.741 25.5827 52.2657 26.9571 51.291C27.3507 51.0246 27.8119 50.8755 28.287 50.861C28.7124 50.8376 29.1425 50.882 29.5656 50.8493C29.8815 50.8214 30.1997 50.8624 30.4983 50.9693C30.7969 51.0762 31.0688 51.2466 31.2952 51.4687C31.8702 51.9806 32.3891 52.7519 32.4078 53.4344C32.45 54.0571 32.4461 54.6821 32.3961 55.3043C32.3026 56.0499 31.9848 56.7745 31.3233 57.1461C30.8418 57.4196 30.3229 57.8076 29.6684 57.6557C29.5913 57.637 29.4721 57.7983 29.3716 57.8754L28.6704 57.8637ZM30.774 55.4141C30.774 54.6311 30.774 53.8528 30.774 53.0768C30.58 52.8828 30.3977 52.6794 30.1943 52.4995C29.2594 51.6814 28.1024 51.9151 27.4923 52.995C27.3148 53.3329 27.2103 53.7044 27.1858 54.0854C27.1612 54.4663 27.2171 54.8482 27.3498 55.2061C27.7611 56.4426 29.063 56.9451 30.1943 55.9868C30.4024 55.8092 30.5847 55.6035 30.774 55.4141Z" fill="black"/>
<path d="M36.3836 57.8637C36.3836 57.5435 36.1358 57.644 35.9675 57.63C35.3291 57.6076 34.7195 57.3583 34.2482 56.9269C33.777 56.4955 33.475 55.9103 33.3964 55.2762C33.2679 54.4535 33.1744 53.5513 33.5717 52.7051C34.0392 51.7118 34.8082 50.9638 36.0049 50.8656C36.4714 50.8231 36.9408 50.8231 37.4074 50.8656C37.8366 50.9308 38.2619 51.0198 38.6812 51.1321C38.7093 51.7959 38.7093 51.7959 38.3797 52.4854C38.0618 52.4036 37.6785 52.4083 37.4448 52.2236C36.7763 51.6907 36.2106 52.1886 35.7081 52.42C35.2056 52.6514 34.9578 53.2217 34.9929 53.8411C35.0116 54.1894 34.9765 54.5423 34.9929 54.8906C35.0443 55.6175 35.5234 56.0429 36.22 56.2462C37.1292 56.515 37.8725 56.1785 38.6765 55.7951V57.3004C38.354 57.6206 37.8865 57.6557 37.3933 57.644C37.2952 57.644 37.1923 57.7889 37.0918 57.866L36.3836 57.8637Z" fill="black"/>
<path d="M116.322 57.8637C116.025 57.5949 115.721 57.3285 115.621 56.9124C115.68 56.6923 115.796 56.4916 115.957 56.3304C116.118 56.1692 116.319 56.0531 116.539 55.9938C116.955 56.0943 117.222 56.3982 117.491 56.695V56.9288C117.179 57.2404 116.867 57.5521 116.556 57.8637H116.322Z" fill="black"/>
<path d="M0.902255 11.8315C0.584373 10.5179 1.20378 9.27682 1.32298 7.97256C1.85123 7.31109 1.95407 6.4486 2.46128 5.74739C3.02692 4.96437 3.57387 4.13693 4.24002 3.47546C5.12954 2.58568 6.16223 1.85166 7.29496 1.30405C8.87268 0.551414 10.5112 0.0255056 12.2993 0.135362C12.8415 0.168085 13.3885 0.156398 13.9354 0.135362C15.0316 0.100301 16.0391 0.43922 17.0348 0.836572C18.6709 1.49337 20.1528 2.38625 21.3379 3.68816C22.5229 4.99008 23.5724 6.493 24.0118 8.30213C24.1661 8.94023 24.3998 9.54561 24.5097 10.2071C24.6252 10.8334 24.6878 11.4683 24.6967 12.105C24.6967 13.449 24.3063 14.7252 23.909 15.9851C23.2918 17.9046 22.1464 19.6114 20.6039 20.9099C19.1033 22.2048 17.4041 23.1795 15.3869 23.5465C14.8765 23.6455 14.3606 23.7134 13.8419 23.7498C13.6274 23.7877 13.4151 23.8376 13.2062 23.8994C12.9724 23.9368 12.6943 24.0536 12.5494 23.9602C12.0118 23.6142 11.4368 23.7965 10.8805 23.7428C10.0837 23.65 9.30345 23.4478 8.56181 23.1421C7.25186 22.6613 6.04245 21.9417 4.99499 21.0198C4.73554 20.786 4.35689 20.6154 4.1325 20.3185C3.43129 19.4116 2.60152 18.5515 2.106 17.5347C1.7367 16.7727 1.26922 15.9874 1.12898 15.1459C0.934978 14.0754 0.68488 12.9839 0.902255 11.8315ZM17.5887 5.9741C16.9717 6.493 16.586 7.11474 16.5439 7.81595C16.5019 8.51716 16.3242 9.25812 16.7356 9.9453C16.8338 10.1089 16.7496 10.3824 16.7496 10.5764C16.6036 10.6535 16.4345 10.6747 16.2739 10.636C16.1134 10.5973 15.9725 10.5013 15.8778 10.366C15.2093 9.58768 14.5291 8.81869 13.8887 8.08241H12.6545C11.9674 8.79531 11.8435 9.14592 11.8575 10.2889L12.4746 10.9293H13.2202C13.3324 11.516 13.4235 11.6983 13.7718 12.0513C14.4964 11.4038 14.4964 11.4038 15.1251 11.4272V12.3411C15.1251 13.7809 15.1251 15.22 15.1251 16.6582C15.1251 16.8101 15.1602 17.0088 15.0831 17.1047C14.7021 17.5558 14.9826 18.0536 14.875 18.5188C15.5435 18.7525 15.9806 18.3809 16.4715 18.1378C16.7803 18.0064 17.0413 17.7832 17.219 17.4984C17.3967 17.2137 17.4825 16.8812 17.4648 16.546C17.4648 15.6111 17.4648 14.6761 17.4648 13.7412C17.4648 13.3298 17.4859 12.9184 17.4976 12.5117C20.0359 12.6169 20.0687 12.6076 20.9779 11.6072C20.4613 11.5397 19.9731 11.3319 19.5663 11.0063C19.1596 10.6808 18.8499 10.2499 18.6709 9.76064C18.8906 9.46847 19.2459 9.195 19.302 8.87245C19.3838 8.38627 20.0173 8.58963 20.0804 8.12916C19.9635 7.58923 19.8466 7.05163 19.7695 6.67765L19.2483 5.97644L17.5887 5.9741ZM7.40014 13.1615C7.40014 14.7439 7.40014 16.144 7.40014 17.5441C7.39637 18.0664 7.4632 18.587 7.59881 19.0914C7.98682 20.4938 8.30002 21.0151 9.58324 21.6392C9.69814 21.7075 9.80685 21.7857 9.90813 21.8729H12.3624C13.2786 21.2745 13.6619 20.4307 13.4516 19.414C13.3698 19.0143 13.3721 18.479 12.9654 18.2453C12.7317 18.1097 12.4021 18.1658 12.2058 18.1448C11.5046 18.7665 11.6074 19.5098 11.6097 20.225H10.2073C10.3148 19.6571 9.61129 19.9913 9.47806 19.5098C9.32379 18.9512 8.99189 18.437 9.04331 17.8269C9.10408 17.1257 9.02695 16.3286 9.32379 15.7233C9.58791 15.188 9.3682 14.6364 9.70011 14.1152C9.97358 13.6874 9.81464 13.0096 9.99695 12.4954C10.1933 11.9391 10.0601 11.3407 10.2307 10.8428C10.5813 9.87751 10.5112 8.84674 10.9319 7.86972H7.72737C7.62364 8.1882 7.53704 8.51199 7.46792 8.83972C7.30197 9.91257 6.55869 10.6722 5.95331 11.4739C5.48583 12.084 5.18198 12.6426 5.3526 13.4817L7.40014 13.1615ZM10.0858 3.40067C9.41962 3.43573 8.71608 3.25809 8.13407 3.73491V4.64181L9.72348 6.23122C11.1493 6.07462 12.3273 5.3851 13.2716 4.12759C12.5213 4.08552 11.8271 4.01306 11.2428 4.56234L10.0858 3.40067Z" fill="black"/>
<path d="M49.9148 23.4529V25.3228C48.379 25.4511 46.8869 25.8993 45.5346 26.6388C44.3916 27.2979 43.3749 28.1066 42.6947 29.273C42.496 29.6166 42.2693 29.9508 42.0987 30.3108C41.9281 30.6707 41.8953 31.1125 41.6593 31.4047C41.3718 31.7646 41.7715 32.2905 41.2923 32.5453C41.1544 34.7401 41.332 36.8858 42.482 38.8235C43.2704 40.1133 44.4039 41.1569 45.7543 41.8363C46.5444 42.2267 47.3695 42.6871 48.3254 42.6895C48.6036 42.6895 48.8794 42.8601 49.1646 42.9022C49.4359 42.9267 49.7089 42.9267 49.9803 42.9022C51.671 42.8525 53.3189 42.3584 54.7579 41.4694C56.4665 40.3989 57.4669 38.7674 58.292 36.998C58.4486 36.6661 58.1985 36.2196 58.5818 35.9508C58.4275 35.1421 58.8155 34.3895 58.8155 33.5948C58.8155 28.4175 58.8155 23.2402 58.8039 18.063C58.8039 17.7381 58.9605 17.3618 58.5865 17.0883C59.075 16.3871 59.7879 16.9176 60.3442 16.6675C60.48 16.8338 60.5896 17.0198 60.6691 17.2192C60.6964 17.4895 60.7003 17.7616 60.6808 18.0326C60.6808 23.2496 60.7018 28.4666 60.6667 33.6929C60.6418 34.9176 60.4507 36.1332 60.0988 37.3065C59.781 38.4229 59.2561 39.4695 58.5514 40.3918C57.7292 41.4932 56.7081 42.4311 55.5409 43.1569C54.1174 44.0124 53.5004 44.1831 51.9203 44.5827C50.9593 44.8275 49.96 44.8838 48.9776 44.7487C47.3297 44.515 45.7052 44.1223 44.2771 43.1523C42.5381 41.9836 41.1637 40.483 40.3036 38.55C39.7847 37.3813 39.3429 36.1612 39.399 34.8359C39.4115 34.5243 39.4115 34.2126 39.399 33.901C39.3125 31.8371 39.988 29.9906 41.0702 28.2913C41.6818 27.3565 42.4449 26.5302 43.3281 25.8464C44.5646 24.8624 46.0114 24.2593 47.4863 23.7731C48.2203 23.5324 49.0407 23.5581 49.9148 23.4529Z" fill="black"/>
<path d="M82.196 34.49C82.4298 36.5796 81.4948 38.5266 80.3262 40.3872C79.5829 41.5559 78.3511 42.617 76.9557 43.3743C76.4157 43.6665 75.8922 43.9984 75.3405 44.2649C74.7889 44.5313 74.1952 44.4448 73.6717 44.751C73.4964 44.8515 73.2159 44.7744 72.9845 44.7744C72.129 44.7744 71.2665 44.8399 70.4134 44.7744C68.6221 44.6331 66.9082 43.9845 65.4722 42.9045C65.1359 42.6732 64.8122 42.4243 64.5022 42.1589C63.1226 40.9147 62.0996 39.3253 61.5384 37.5543C61.3584 36.9629 61.141 36.3739 61.1457 35.7265C61.1457 35.2917 60.9307 34.8546 60.9424 34.4222C60.9353 33.6331 61.0137 32.8455 61.1761 32.0732C61.7254 29.8737 62.8122 27.8168 64.5372 26.3583C65.8864 25.1643 67.5153 24.3306 69.2727 23.9344C70.6639 23.6612 72.0901 23.6138 73.4964 23.7942C75.191 23.9765 76.7219 24.825 78.1173 25.8394C79.6203 26.9333 80.6253 28.4105 81.3897 30.063C81.8571 31.0657 82.2171 32.1012 82.2007 33.2302C82.1937 33.5784 82.196 33.9267 82.196 34.49ZM71.9303 42.8508C72.2552 42.8508 72.912 42.9863 73.4777 42.8204C74.383 42.5731 75.2538 42.2135 76.0698 41.7499C77.8461 40.7085 79.1947 39.07 79.875 37.1265C80.3098 35.9579 80.3425 34.7892 80.3425 33.5761C80.3425 32.8912 80.1088 32.2742 79.9382 31.6361C79.5245 30.1645 78.6863 28.8474 77.5283 27.8495C75.9903 26.5009 74.256 25.6057 72.1524 25.615C71.7644 25.615 71.3717 25.6407 70.9837 25.615C69.6771 25.5192 68.4734 25.9983 67.4215 26.5967C65.964 27.4233 64.7691 28.6442 63.9739 30.1191C63.4083 31.1593 62.9665 32.2391 63.0226 33.4686C63.0366 33.7794 62.7421 34.1978 62.866 34.3871C63.0139 34.6531 63.0714 34.9599 63.0296 35.2613C63.0296 36.1285 63.3031 36.9396 63.5929 37.7179C64.182 39.2886 65.4418 40.3825 66.6502 41.4577C67.1691 41.9252 67.9054 42.1589 68.5715 42.437C69.6341 42.8723 70.7939 43.0151 71.9303 42.8508Z" fill="black"/>
<path d="M95.9963 34.441C95.8677 32.6365 96.3492 30.9933 97.1533 29.418C98.3593 27.0595 100.297 25.5075 102.662 24.4651C103.121 24.257 103.603 24.1055 104.098 24.014C104.565 23.9368 105.033 23.7966 105.514 23.7545C106.171 23.6657 106.837 23.6657 107.494 23.7545C109.866 24.1869 112.063 24.9933 113.856 26.7323C114.957 27.7852 115.821 29.0599 116.392 30.4721C116.719 31.2855 117.033 32.1083 117.03 33.0152C117.03 33.3026 116.909 33.6252 117.213 33.8776C117.294 33.9454 117.273 34.1721 117.252 34.3171C117.189 34.7542 117.107 35.1889 117.019 35.6237C116.93 36.0584 117.152 36.5002 116.82 36.9489C116.586 37.2738 116.6 37.7834 116.46 38.1948C115.777 40.1909 114.356 41.6634 112.804 42.9653C111.93 43.674 110.925 44.2052 109.848 44.529C108.331 45.0203 106.725 45.1664 105.145 44.9568C104.147 44.788 103.174 44.4975 102.246 44.0919C100.517 43.3907 99.1634 42.1893 98.0391 40.7939C97.2811 39.8179 96.7249 38.7007 96.403 37.5076C96.1108 36.5123 95.9736 35.478 95.9963 34.441ZM115.163 34.441C115.308 33.1006 115.037 31.7479 114.384 30.5679C114.048 29.9629 113.68 29.3755 113.283 28.8079C112.558 27.8426 111.597 27.0791 110.493 26.5897C109.703 26.2134 108.868 25.6852 107.886 25.8418C106.666 25.1873 105.463 25.9329 104.247 25.8862C102.366 26.6622 100.507 27.5036 99.4041 29.3408C98.8268 30.2968 98.0718 31.1944 98.0952 32.4145C97.6137 33.2816 97.9713 34.2189 97.8615 35.1188C97.7797 35.806 98.0391 36.4394 98.2331 37.0658C98.8058 38.9217 99.8506 40.4573 101.505 41.5208C102.936 42.4846 104.597 43.0494 106.318 43.157C106.97 43.1897 107.578 43.0097 108.207 42.9233C109 42.8221 109.768 42.5749 110.472 42.194C111.827 41.4554 113.103 40.5578 113.847 39.1554C114.281 38.3397 114.95 37.5894 114.922 36.5703C115.389 35.9041 115.039 35.1492 115.153 34.4503L115.163 34.441Z" fill="black"/>
<path d="M19.7884 44.2882H17.6847V43.1196C17.6847 40.6677 17.7455 38.2111 17.6614 35.7639C17.6401 34.5098 17.7458 33.2568 17.9769 32.0241C18.2013 30.5105 18.8115 29.0801 19.7486 27.8706C20.1493 27.321 20.5933 26.8044 21.0763 26.3256C22.4957 25.0525 24.2087 24.1515 26.0619 23.703C27.4853 23.3735 28.8854 23.6236 30.2925 23.4997C31.9918 24.0373 33.6349 24.6333 35.0911 25.7599C35.8882 26.377 36.4795 27.1296 37.0825 27.8636C37.5968 28.4923 37.9076 29.301 38.2512 30.056C38.7025 30.9836 38.942 32 38.9524 33.0315C38.9408 33.7701 38.8005 34.5554 39.0015 35.2333C39.1488 35.7311 39.2773 36.2384 39.1558 36.6614C38.7795 37.9914 39.0132 39.3283 38.9618 40.6606C38.915 41.855 38.9501 43.0541 38.9501 44.2719H37.0802V43.1289C37.0802 39.8987 37.0568 36.6684 37.0919 33.4382C37.0885 32.0039 36.6554 30.6036 35.8484 29.4179C34.9006 27.8792 33.478 26.6905 31.7954 26.0311C30.9376 25.7015 30.0891 25.3626 29.1495 25.3743C28.8385 25.4013 28.5256 25.4013 28.2146 25.3743C27.1698 25.2083 26.174 25.5145 25.2812 25.9119C24.2551 26.3793 23.2173 26.8468 22.4086 27.749C21.7471 28.4783 21.0412 29.1818 20.6415 30.0654C20.2418 30.9489 19.7884 31.9236 19.7907 32.9824C19.7954 36.7128 19.7884 40.448 19.7884 44.2882Z" fill="black"/>
<path d="M55.3168 16.7494H57.1867V17.6843C57.1867 23.1748 57.2101 28.67 57.175 34.1558C57.1633 35.8106 56.5299 37.2668 55.5552 38.6295C54.9452 39.4826 54.1084 40.0319 53.295 40.5228C52.5222 41.0273 51.6163 41.2894 50.6935 41.2754H50.5743C49.8731 41.2754 49.1508 41.3853 48.4707 41.245C47.8536 41.1165 47.2693 40.7775 46.6569 40.5625C46.3121 40.4357 45.9976 40.2383 45.7336 39.9828C44.7987 39.0689 43.7912 38.1947 43.3238 36.8975C43.1368 36.3786 42.903 35.8901 42.9054 35.3128C42.9054 34.9551 42.6716 34.5905 42.7067 34.2422C42.7535 33.6228 42.9404 33.0151 43.0316 32.3981C43.3144 30.6567 44.4223 29.4203 45.7009 28.3848C46.4086 27.8105 47.2438 27.4145 48.1364 27.2301C48.7231 27.1133 49.2864 26.959 49.9081 27.0455V28.899C48.5548 28.7261 47.4609 29.4062 46.4979 30.1589C45.4251 30.998 44.7355 32.1784 44.7963 33.6369C44.8267 34.3194 44.7052 34.9972 44.9108 35.6868C45.3783 37.2458 46.3787 38.2579 47.8115 38.9591C49.3869 39.7281 50.9529 39.5341 52.4185 38.8656C53.704 38.2789 54.5455 37.1079 55.0363 35.7919C55.2701 35.1445 55.2958 34.3895 55.2981 33.6883C55.3262 28.0622 55.3168 22.4549 55.3168 16.7494Z" fill="black"/>
<path d="M23.0602 44.2789H21.1903V43.2762C21.1903 40.3942 21.2441 37.5146 21.1693 34.6279C21.1342 33.2839 21.5082 32.0428 21.9616 30.8577C22.3603 29.8717 23.0449 29.0276 23.9274 28.4339C24.7387 27.8911 25.6141 27.4506 26.5335 27.1226C27.001 26.952 27.555 27.2699 27.9056 26.7767C28.373 26.8375 28.906 26.6061 29.3267 27.0104C30.6917 26.9894 31.7389 27.7327 32.8327 28.3965C33.6181 28.864 34.0902 29.5652 34.5016 30.3038C34.9691 31.1569 35.5114 32.0124 35.4366 33.0619C35.8479 33.6906 35.6703 34.3965 35.6703 35.0673C35.689 37.8722 35.6703 40.677 35.6703 43.4819V44.2929H33.8004V43.15C33.8004 40.3077 33.8401 37.4655 33.7817 34.6256C33.7951 33.4462 33.4777 32.2866 32.8655 31.2785C31.9679 29.876 30.7385 28.9925 29.0462 28.8967C27.3539 28.8009 26.8841 28.8967 25.6827 29.5979C24.5688 30.2336 23.7345 31.2648 23.3454 32.4869C23.1434 33.2084 23.0497 33.956 23.0672 34.7051C23.0368 37.5847 23.0532 40.4643 23.0532 43.3533L23.0602 44.2789Z" fill="black"/>
<path d="M95.026 42.9116C95.0681 44.4846 95.0681 44.4846 94.7478 44.9638C93.7451 44.4262 92.6442 44.9357 91.5597 44.6038C90.5241 44.289 89.5208 43.8765 88.5632 43.372C87.6236 42.8808 86.7922 42.206 86.1183 41.3876C85.4171 40.5532 84.7276 39.7515 84.2928 38.7487C83.858 37.746 83.4139 36.7386 83.3765 35.6307C83.3091 34.507 83.32 33.38 83.4093 32.2579C83.5074 31.3229 84.8421 28.5578 85.1927 28.102C86.5216 26.4154 88.2539 25.0907 90.2297 24.25C91.3704 23.7381 93.0182 23.633 95.2621 23.8106V25.358C95.0811 25.4634 94.8859 25.5421 94.6824 25.5917C94.2932 25.614 93.903 25.614 93.5137 25.5917C91.3236 25.566 89.5402 26.4939 87.9391 27.908C86.5647 29.1281 85.8542 30.7269 85.3072 32.4215C85.2566 32.6016 85.233 32.7883 85.2371 32.9754C85.2371 33.4803 85.2745 33.9898 85.2254 34.49C85.0524 36.2828 86.0061 37.7296 86.6442 39.2746C87.8807 40.5906 89.1709 41.792 90.9309 42.4511C92.2632 42.9653 93.5979 42.8742 95.026 42.9116Z" fill="black"/>
<path d="M49.9078 30.8063V32.5243L48.8724 32.8679C48.7905 33.4031 48.0893 33.7561 48.3722 34.4386C48.5778 34.9388 48.641 35.5535 49.3492 35.654H50.8194L51.6094 34.5695V16.7517H53.4466V17.8923C53.4466 23.2239 53.4279 28.5554 53.4606 33.887C53.4606 35.3057 52.8389 36.3272 51.8034 37.1593C51.5893 37.2903 51.3507 37.3762 51.1022 37.4117C48.4516 38.0802 46.14 36.3692 46.4766 33.5901C46.6542 32.0848 48.267 30.4323 49.9078 30.8063Z" fill="black"/>
<path d="M31.9127 44.2742H30.0732V43.2762C30.0732 40.2828 30.0732 37.2886 30.0732 34.2937C30.0732 33.5177 29.76 33.0128 29.0752 32.5804C28.5025 32.2204 28.0304 32.3911 27.633 32.6388C27.3597 32.807 27.1369 33.0458 26.9879 33.3301C26.839 33.6143 26.7696 33.9335 26.7869 34.254C26.8126 37.2925 26.7869 40.3311 26.7869 43.3533V44.2883H24.917V42.6731C24.917 39.7966 24.917 36.9193 24.917 34.0412C24.917 32.4822 25.8987 31.2972 27.4297 30.7315C28.3646 30.3856 29.1383 30.5515 29.9493 30.984C30.7813 31.4148 31.4108 32.1551 31.7024 33.0455C31.8407 33.3872 31.9198 33.7501 31.9361 34.1184C31.9174 37.3907 31.9361 40.649 31.9244 43.9166C31.9431 44.0241 31.9244 44.134 31.9127 44.2742Z" fill="black"/>
<path d="M95.028 27.0572V28.8266C94.2089 28.8873 93.3936 28.9911 92.5855 29.1375C92.018 29.2548 91.4829 29.4941 91.0171 29.8387C89.7082 30.8555 88.7335 32.0896 88.7311 33.8824C88.7311 34.9014 88.7826 35.8808 89.2851 36.8111C89.6875 37.5541 90.2692 38.1848 90.9773 38.6459C91.6131 39.0573 92.3354 39.5809 93.2212 39.4032C93.7728 39.7141 94.3899 39.6206 95.014 39.637V41.4928C92.3774 41.6074 90.0634 40.836 88.3011 38.7838C87.9239 38.3375 87.605 37.8451 87.3521 37.3183C87.1379 36.8601 86.9809 36.3773 86.8846 35.8808C86.7607 35.2614 86.7093 34.6256 86.6509 33.9945C86.6656 33.8494 86.6978 33.7066 86.7467 33.5691C86.894 32.709 87.0202 31.7951 87.4479 31.0635C87.9154 30.2384 88.3992 29.3128 89.2383 28.7752C89.9933 28.289 90.6898 27.6743 91.6154 27.4733C92.728 27.2279 93.8313 26.8632 95.028 27.0572Z" fill="black"/>
<path d="M7.90234 24.9302H9.70212V44.2486H7.90234V24.9302Z" fill="black"/>
<path d="M13.2271 24.9489V44.2673H11.4857C11.3198 43.2809 11.252 28.857 11.4109 24.9489H13.2271Z" fill="black"/>
<path d="M16.7498 44.2859H14.8799V24.9395C15.4712 24.8717 16.0743 24.9255 16.7498 24.9021V44.2859V44.2859Z" fill="black"/>
<path d="M15.8641 55.1103C15.9436 53.6447 16.2825 52.3054 15.7356 50.903C16.4017 50.8142 17.0024 50.8796 17.6569 50.8516C17.8041 51.6369 17.3437 52.3311 17.4231 53.0884C17.5026 53.8457 17.4231 54.5657 17.4512 55.3043C17.4792 56.0429 17.2385 56.8259 17.7737 57.5855H16.1025L12.8933 53.1632C12.6596 54.6545 12.7227 56.8867 13.0336 57.5832C12.6806 57.5996 12.3581 57.6229 12.0332 57.6299C11.7083 57.6369 11.332 57.6299 10.9182 57.6299C11.3086 56.4916 11.131 55.3557 11.1263 54.2337C11.1216 53.1118 11.3273 52.0249 10.9136 50.903H12.7554L15.8641 55.1103Z" fill="black"/>
<path d="M18.7856 57.63C19.2344 56.7956 19.1713 51.8146 18.9002 50.9288C18.9282 50.9031 18.9563 50.8563 18.9843 50.8563C20.2301 50.8563 21.476 50.8563 22.6587 50.8563C22.881 51.0127 23.1155 51.1511 23.3599 51.27C24.2411 51.5973 24.4748 52.3733 24.6875 53.1563C24.7623 53.4368 24.6384 53.7313 24.8932 54.0164C25.1269 54.2642 24.7015 54.5657 24.7132 54.8298C24.7262 55.1477 24.6737 55.4648 24.5591 55.7615C24.4446 56.0582 24.2703 56.3282 24.0471 56.5548C23.5399 57.1322 22.8059 57.6183 22.0533 57.6324C21.0132 57.644 19.966 57.63 18.7856 57.63ZM20.749 56.2276C21.1709 56.2551 21.5941 56.2551 22.0159 56.2276C22.2894 56.1879 22.7171 56.0827 22.7825 55.9004C23.042 55.1992 23.5118 54.5283 23.2243 53.7056C22.9906 53.0231 23.0023 53.0044 22.2753 52.3032H20.749V56.2276Z" fill="black"/>
<path d="M75.5835 57.6299C76.1047 56.4098 75.8523 55.2926 75.8663 54.1987C75.8803 53.1048 76.0743 52.0039 75.6209 50.8516C76.7896 50.8516 77.9185 50.7674 79.0194 50.8866C79.6342 50.9521 80.3447 51.1204 80.7748 51.6673C81.2049 52.2143 81.5648 52.8173 81.4994 53.5769C81.4667 53.9626 81.4994 54.3529 81.4994 54.7456C81.4994 55.8465 81.0109 56.6342 80.0385 57.1835C79.5372 57.5009 78.9535 57.6635 78.3603 57.651C77.4744 57.6042 76.5886 57.6299 75.5835 57.6299ZM79.8422 55.3931C79.9567 55.0308 79.6552 54.561 80.0899 54.2407C79.6552 53.9229 79.9567 53.453 79.8422 53.0908L79.0895 52.2984H77.5819V56.2275H79.0498L79.8422 55.3931Z" fill="black"/>
<path d="M108.678 50.8516C109.898 50.8516 110.864 50.8633 111.829 50.8516C113.647 50.8282 114.561 51.9501 114.683 53.6564C114.706 54.0024 114.683 54.3576 114.683 54.7036C114.683 56.0078 113.907 56.9615 112.659 57.4196C112.239 57.5678 111.795 57.6391 111.35 57.63C110.541 57.63 109.73 57.63 108.802 57.63C109.176 56.4846 109.094 55.358 109.066 54.2361C109.038 53.1142 109.291 52.0296 108.678 50.8516ZM110.508 52.254C110.508 52.7004 110.485 53.1516 110.48 53.605C110.476 54.0585 110.48 54.4581 110.48 54.8859C110.48 55.3136 110.497 55.7858 110.506 56.2275H112.21C112.5 55.9494 112.778 55.6783 113.049 55.4141C113.024 54.9844 113.024 54.5536 113.049 54.1239C113.14 53.3245 112.792 52.7449 112.21 52.254H110.508Z" fill="black"/>
<path d="M54.164 57.63L52.7101 55.0939H51.9061C51.5111 55.919 52.1398 56.7441 52.0346 57.6089H50.139C50.5107 56.875 50.4008 56.127 50.4078 55.3908C50.4148 54.6545 50.4242 53.9112 50.4078 53.1726C50.3915 52.434 50.5574 51.6603 50.0923 50.8516C51.1979 50.8516 52.1959 50.7721 53.194 50.889C53.7145 50.9388 54.1982 51.1794 54.552 51.5645C54.8412 51.8963 55.0122 52.3148 55.0382 52.7542C55.0325 53.3777 54.8074 53.9794 54.4024 54.4535C54.3148 54.5556 54.2211 54.6524 54.1219 54.7433C54.5239 55.7694 55.2298 56.4426 56.0456 57.0222L55.4355 57.6323L54.164 57.63ZM51.8523 51.9548V53.591C52.5535 54.2712 52.9369 53.5676 53.4207 53.3783V52.233L51.8523 51.9548Z" fill="black"/>
<path d="M95.0517 30.7385V32.6084C94.7174 32.6084 94.3832 32.6084 94.0489 32.6084C93.6607 32.6234 93.2852 32.7512 92.9685 32.9762C92.6518 33.2012 92.4075 33.5136 92.2655 33.8753C92.0855 34.4292 92.4829 35.2193 93.1607 35.6447C93.2846 35.7218 93.4179 35.7779 93.6119 35.8784H95.0143C95.0797 36.4698 95.026 37.0705 95.047 37.6641C92.0715 38.1059 90.6481 36.4557 90.3886 34.3918C90.353 33.9124 90.4332 33.4314 90.6224 32.9894C90.8047 32.5219 91.0524 31.9189 91.4404 31.7413C91.8728 31.5426 92.0552 31.1148 92.5133 30.9606C93.3477 30.6824 94.1565 30.7876 95.0517 30.7385Z" fill="black"/>
<path d="M70.5908 50.8773H74.2955C74.0618 51.3285 74.548 51.7445 74.2254 52.2026C73.6551 51.8754 73.0567 52.0858 72.4303 52.004V53.4064H74.0267C73.9356 53.9113 74.2465 54.4255 73.8164 54.713L72.414 54.5634V56.4777C73.1502 56.3818 73.9005 56.6132 74.6602 56.2954C74.9781 56.7348 74.5456 57.1345 74.4264 57.6019H70.5932C70.9017 56.9007 70.724 56.1434 70.7521 55.4095C70.7801 54.6756 70.7825 53.9323 70.7521 53.196C70.7217 52.4597 70.8736 51.6908 70.5908 50.8773Z" fill="black"/>
<path d="M87.6186 53.4227H89.1402V54.5563H87.6233V56.48C88.3479 56.3842 89.0982 56.6249 89.8438 56.2953C90.1219 56.7628 89.7316 57.1578 89.5843 57.6136H85.7744C86.0572 56.8773 85.8983 56.1294 85.924 55.3954C85.9497 54.6615 85.9544 53.9206 85.924 53.1843C85.8936 52.448 86.0689 51.6697 85.7838 50.9054H89.4067V52.1301L87.6373 51.9759C87.5414 52.4528 87.5351 52.9434 87.6186 53.4227V53.4227Z" fill="black"/>
<path d="M106.271 57.6042H104.167C104.27 57.4453 104.401 57.3378 104.401 57.2303C104.412 55.5941 104.401 53.9766 104.401 52.268H102.084L102.589 50.882H108.519C108.472 51.09 108.433 51.3167 108.374 51.5364C108.316 51.7561 108.232 52.0039 108.155 52.261H106.032C106.119 54.0421 105.843 55.7951 106.271 57.6042Z" fill="black"/>
<path d="M94.8176 54.9233V56.6786C94.6021 56.8965 94.3674 57.0944 94.1164 57.27C93.8459 57.4492 93.5396 57.5673 93.2188 57.6159C92.6378 57.6638 92.0538 57.6638 91.4728 57.6159C91.1971 57.5619 90.9292 57.4731 90.6758 57.3518V55.8792C91.398 56.3584 92.0782 56.5922 92.9687 56.4005C93.0505 56.2065 93.1604 55.933 93.2562 55.6993C92.555 54.9981 91.8889 54.402 91.3022 53.7312C90.3976 52.6934 90.8487 51.4359 92.1296 50.8703C92.3914 50.7557 92.7397 50.8446 93.0505 50.8422C93.3617 50.8162 93.6744 50.8162 93.9855 50.8422C94.2723 50.9144 94.5523 51.0114 94.8223 51.1321C94.7241 51.4873 94.6329 51.8333 94.5231 52.2213L92.5363 51.9314V52.6327C93.2516 53.3643 94.0206 54.1309 94.8176 54.9233Z" fill="black"/>
<path d="M58.7175 53.4438H59.9633V54.7293C59.4094 54.5797 58.8437 54.346 58.3435 54.9631C58.4604 55.4305 58.0981 56.0219 58.7245 56.466C59.3042 56.4379 59.9446 56.5198 60.723 56.3818L60.8842 56.5314L60.4588 57.6066H56.719C56.7962 57.0597 56.9037 56.5268 56.9411 55.9868C56.9785 55.4048 56.9411 54.8182 56.9411 54.2361C56.9411 53.6915 56.9411 53.1469 56.9411 52.6C56.9411 52.053 57.0533 51.4687 56.5391 50.8493C57.9578 50.9498 59.2083 50.6156 60.4261 51.0573V52.2377C59.8511 51.845 59.2574 52.1162 58.7081 52.004C58.2266 52.6561 58.2266 52.7893 58.7175 53.4438Z" fill="black"/>
<path d="M100.954 50.8937C100.573 51.8146 100.668 52.7215 100.664 53.6214C100.659 54.5213 100.664 55.4749 100.664 56.4963C101.451 56.3608 102.204 56.6506 103.015 56.2416C102.917 56.709 103.237 57.2396 102.678 57.6042H98.8475C99.1701 56.861 98.9924 56.106 99.0205 55.3697C99.0485 54.6334 99.0556 53.8902 99.0205 53.1539C98.9854 52.4176 99.2542 51.6393 98.6582 50.8913L100.954 50.8937Z" fill="black"/>
<path d="M82.481 50.8797H84.5309C84.4538 51.4266 84.3439 51.9595 84.3088 52.4995C84.2714 53.0815 84.3088 53.6681 84.3088 54.2525C84.3088 54.7971 84.2831 55.344 84.3088 55.8886C84.3346 56.4333 84.4421 56.9872 84.5215 57.5856H82.4717C82.7335 56.896 82.7452 51.5902 82.481 50.8797Z" fill="black"/>
<path d="M9.76058 57.5996H7.91874C7.97951 56.4309 8.08937 55.3113 8.08937 54.1847C8.08937 53.0931 7.97717 52.0039 7.91406 50.8843H9.66943C9.98263 51.6299 9.39362 52.3171 9.48477 53.0744C9.57593 53.8317 9.48477 54.554 9.51282 55.2926C9.54087 56.0312 9.66943 56.7815 9.76058 57.5996Z" fill="black"/>
<path d="M64.4014 34.1231C64.52 32.1568 65.3765 30.3078 66.7995 28.9458C68.2019 27.5995 69.9246 27.1857 71.7243 27.0502C72.5307 26.9917 73.4026 27.2652 74.1809 27.5597C75.172 27.9536 76.0776 28.5353 76.8479 29.273C77.5491 29.9322 77.8997 30.8461 78.3391 31.6852C78.7575 32.4869 78.7949 33.3985 78.8743 34.2563C78.9221 35.1033 78.7616 35.9492 78.4069 36.7199C78.0002 37.6548 77.5397 38.5898 76.7988 39.3237C76.0578 40.0576 75.1042 40.4737 74.209 40.9599C73.3678 41.2097 72.508 41.3918 71.6379 41.5045C69.6114 41.2707 67.7485 40.7051 66.332 39.0946C65.1222 37.717 64.4384 35.9561 64.4014 34.1231V34.1231ZM76.8198 34.317C76.9671 32.737 76.2448 31.3159 74.9756 30.1706C74.0126 29.3011 72.7691 29.2753 71.6495 28.8803C70.8268 29.2613 69.8755 29.1561 69.0621 29.6984C68.2487 30.2407 67.5171 30.8437 67.0309 31.6454C66.565 32.4367 66.3189 33.338 66.318 34.2563C66.3299 34.7745 66.4085 35.2891 66.5517 35.7873C66.6544 36.1325 66.8055 36.4615 67.0005 36.7643C67.2356 37.2221 67.5295 37.6472 67.8747 38.0288C68.3214 38.4114 68.8071 38.7459 69.3239 39.0269C69.5319 39.1554 69.8147 39.1648 70.0251 39.291C70.5299 39.5855 71.1774 39.1647 71.6355 39.6322C72.7551 39.2395 74.0033 39.2209 74.9593 38.3443C76.1653 37.2481 76.9273 35.9906 76.8198 34.317V34.317Z" fill="black"/>
<path d="M106.271 41.4927C105.151 41.7826 104.055 41.1772 103.034 40.6583C101.82 40.0436 100.909 38.9824 100.201 37.7997C99.5854 36.7097 99.2731 35.475 99.2961 34.2235C99.2863 33.0476 99.6053 31.8924 100.217 30.8881C100.789 29.897 101.583 29.0527 102.538 28.4222C103.808 27.5828 105.311 27.1649 106.832 27.2278C108.889 27.333 110.515 28.1931 111.89 29.689C113.091 30.9633 113.749 32.6549 113.725 34.4058C113.711 36.5095 112.846 38.2555 111.266 39.6836C109.87 40.9505 108.307 41.6143 106.271 41.4927ZM106.577 29.1047C104.006 28.9387 101.271 31.5426 101.33 33.9056C101.367 35.4577 101.519 36.9115 102.681 38.0101C103.709 38.9824 104.917 39.6462 106.42 39.6462C107.923 39.6462 109.139 39.0689 110.228 38.134C110.755 37.6684 111.172 37.0911 111.448 36.4442C111.724 35.7973 111.853 35.097 111.824 34.3942C111.803 33.1133 111.418 31.7974 110.422 30.804C109.405 29.7658 108.029 29.1547 106.577 29.0954V29.1047Z" fill="black"/>
<path d="M68.1718 34.2119C68.1087 32.2088 69.9085 30.7222 71.6008 30.769C73.8259 30.8321 75.1419 32.4262 75.1629 34.2937C75.1816 36.0911 73.4964 37.774 71.5119 37.767C69.808 37.7624 68.0573 36.1449 68.1718 34.2119ZM70.0417 34.8453C70.2596 35.1128 70.5083 35.3537 70.7827 35.5629C71.1193 35.7639 71.4839 35.9836 71.9256 35.8925C72.531 35.7639 73.2019 35.0417 73.314 34.4433C73.4099 33.9454 72.884 33.1157 72.4375 32.8492C72.1916 32.6869 71.9003 32.6073 71.606 32.622C71.3118 32.6367 71.0299 32.745 70.8014 32.931C70.5323 33.158 70.2807 33.4049 70.0487 33.6696L70.0417 34.8453Z" fill="black"/>
<path d="M108.353 37.4328C107.353 37.9003 106.392 37.7133 105.534 37.7694C104.889 37.4071 104.31 37.1079 103.819 36.6264C103.232 36.0537 103.216 35.3034 103.022 34.6209C102.839 33.9758 103.136 33.284 103.55 32.6435C103.844 32.1354 104.259 31.7075 104.758 31.3977C105.726 30.818 106.703 30.8578 107.678 31.1266C108.216 31.2772 108.706 31.5651 109.1 31.9622C109.494 32.3592 109.778 32.8517 109.924 33.3915C110.102 33.9286 110.133 34.5037 110.013 35.0567C109.893 35.6097 109.626 36.1203 109.241 36.5352C108.933 36.8788 108.592 37.1991 108.353 37.4328ZM107.318 35.8995C108.213 34.9529 108.384 34.1137 107.86 33.3892C107.393 32.7347 106.458 32.6739 105.45 33.2349C104.723 33.8379 104.805 34.5976 105.128 35.245C105.565 36.1215 106.486 35.8574 107.318 35.9018V35.8995Z" fill="black"/>
</g>
</svg>
