<svg width="157" height="61" viewBox="0 0 157 61" fill="none" xmlns="http://www.w3.org/2000/svg">
<g opacity="0.4">
<path d="M96.9892 19.1259C97.1083 29.3884 88.3185 38.1143 77.9862 38.0649C67.8893 38.0155 59.0327 29.5046 59.1576 18.8702C59.2737 8.84299 67.7527 0.0735156 78.3667 0.207135C88.3475 0.33204 97.2041 8.88366 96.9892 19.1259ZM75.6101 21.4177C71.8572 21.6762 63.811 21.563 62.6346 21.1999L72.4788 4.12856C66.9597 5.46185 61.0195 12.3229 61.8764 20.7148C62.6985 28.7755 69.0512 34.3468 75.4823 35.012C78.0356 30.5822 80.6092 26.1089 83.3252 21.4061H77.931L80.7312 16.5319C81.2802 16.5319 81.7595 16.5319 82.2359 16.5319C85.9153 16.561 89.5888 16.5939 93.2566 16.6307C93.2943 16.6307 93.3379 16.6829 93.3669 16.7178C93.396 16.7527 93.4105 16.802 93.5296 17.0315L90.9153 21.531H86.3432C83.6999 26.1292 81.0856 30.6723 78.3464 35.4303C84.5258 35.043 89.1066 32.3319 92.0889 27.297C95.377 21.7518 95.255 15.9684 91.8594 10.5568C88.3737 5.00871 83.0754 2.5658 76.345 2.92309C73.7162 7.35576 71.1019 11.8175 68.4818 16.5377H71.8949C72.9116 16.5377 73.9283 16.497 74.9449 16.5377C75.9616 16.5784 77.0393 16.3024 78.207 16.7991C77.321 18.3851 76.4816 19.8753 75.6101 21.4206V21.4177Z" fill="black"/>
<path d="M24.2568 59.7664H18.4298C18.2381 58.8339 18.0551 57.9538 17.8489 57.0098H12.9108C12.3821 57.8609 11.8012 58.7904 11.1912 59.7664H0.638174C0.573605 59.4081 0.556028 59.0429 0.585889 58.68C1.34694 55.0607 2.13413 51.45 2.92422 47.8365C3.01326 47.5869 3.13019 47.3482 3.27279 47.1249H6.02941C5.29451 50.6106 4.57703 53.9714 3.84794 57.4571H8.45199L8.83251 58.5899C11.2841 54.6889 13.6864 50.8633 16.0654 47.0813H19.0398C19.6847 49.0042 19.9345 50.994 20.3092 52.9547C20.6538 54.9018 21.1047 56.8286 21.6599 58.7265C22.4936 54.9096 23.3273 51.0928 24.1813 47.1771C24.48 47.101 24.7855 47.0543 25.0934 47.0377C26.874 47.1103 28.6604 46.8431 30.4294 47.2991C32.6951 47.8801 33.4504 49.4254 32.3959 51.5343C32.1681 51.9285 31.9168 52.3087 31.6436 52.6729L30.1535 53.5444C30.6008 55.5922 31.0481 57.6343 31.5129 59.7693H28.3177C28.0272 58.2762 27.7367 56.7803 27.4143 55.1217L25.7557 54.4971C24.9017 56.2371 24.9859 58.0903 24.2568 59.7664ZM28.704 52.1443L29.5754 51.3368C29.5493 50.7994 29.5289 50.3782 29.5115 50.0296C28.6575 49.254 27.7687 49.3121 26.8043 49.4487C26.4063 50.445 25.9038 51.3687 26.2988 52.5626L28.704 52.1443ZM16.9717 50.6193L16.6812 50.567L14.2499 54.7644H17.5846L16.9717 50.6193Z" fill="black"/>
<path d="M97.7209 49.4283H94.4531C94.2468 50.1051 93.9796 50.811 93.8227 51.543C93.2854 54.0324 92.7916 56.5276 92.2658 59.0199C92.1782 59.2723 92.0623 59.514 91.9201 59.7402H89.1577C89.9013 56.2545 90.6101 52.8908 91.3711 49.3586H87.6763C87.8418 48.554 87.9667 47.9237 88.0916 47.3398C89.1345 46.968 96.2569 46.8692 98.3426 47.183C98.3743 47.445 98.384 47.7093 98.3716 47.9731C98.2895 48.3489 98.1847 48.7195 98.0579 49.0827C98.4878 48.7661 98.6824 48.6179 98.8828 48.4785C101.227 46.8315 103.821 46.5904 106.482 47.3514C108.105 47.8133 109.116 49.3848 109.198 51.0782C109.308 53.3846 108.788 55.4644 107.286 57.277C106.377 58.3392 105.21 59.1502 103.897 59.6323C102.584 60.1144 101.17 60.2516 99.7891 60.0307C96.286 59.4033 95.3971 56.5072 95.9142 53.8639C96.1814 52.49 96.5968 51.148 97.5002 50.0209C97.6012 49.8347 97.6756 49.6353 97.7209 49.4283V49.4283ZM105.482 49.9163C103.879 48.6992 102.647 48.9084 101.175 50.0209C99.2053 51.5023 98.7666 53.6548 99.0629 55.9786C99.11 56.3937 99.2874 56.7833 99.5698 57.0912C99.8521 57.3992 100.225 57.6096 100.634 57.6924C101.429 57.9123 102.275 57.8559 103.034 57.5326C105.767 56.2836 106.935 52.7427 105.482 49.9163Z" fill="black"/>
<path d="M55.7969 51.0492L53.8826 59.7286H51.0708C51.9916 55.4761 52.8892 51.331 53.8013 47.1133H57.2638L59.9942 55.7172C60.9412 52.856 61.252 50.0267 61.9898 47.2934C62.8351 46.8576 63.6833 47.0639 64.6854 47.1016C64.6012 49.3209 63.8459 51.3513 63.4974 53.4427C63.1488 55.5342 62.5388 57.6343 62.045 59.7577H58.5738L55.7969 51.0492Z" fill="black"/>
<path d="M77.0509 53.3265L78.5033 55.3221C79.5228 54.8341 79.3747 53.6402 80.0166 52.9111H82.3695C82.079 54.7324 81.103 56.0628 79.9469 57.2683L81.562 59.6734C80.4001 59.9639 79.3544 59.7896 78.1518 59.8099L77.4837 59.0286C76.1533 59.746 74.7677 60.2863 73.2311 60.0946C72.5191 60.0171 71.8239 59.8269 71.1716 59.5311C70.5292 59.2293 70.0312 58.6871 69.7851 58.0214C69.5389 57.3557 69.5643 56.6199 69.8558 55.9727C70.0911 55.3918 70.4077 54.8486 70.704 54.2531L73.083 52.7717L72.6444 52.1907C71.5115 50.6832 71.9298 48.8735 73.5158 47.8336C75.0117 46.8547 76.6297 46.9157 78.2622 47.058C79.0668 47.1277 79.6448 47.6942 80.0457 48.3477C80.6412 50.9853 78.846 52.1268 77.0509 53.3265ZM74.4802 54.6104C73.2369 54.959 72.6066 55.6794 72.5979 56.8267C72.9145 57.7417 73.6872 57.7911 74.3756 58.009C74.974 57.6575 75.828 57.9364 76.3189 57.1201L74.4802 54.6104ZM77.5621 49.6258C76.9812 48.8503 76.2869 49.0449 75.6392 49.1407C74.6632 50.1865 74.669 50.3724 75.6827 51.5691L77.0944 50.8342L77.5621 49.6258Z" fill="black"/>
<path d="M130.039 53.1784L131.628 54.4623C131.532 55.3337 131.564 56.2196 131.315 57.0214C130.734 58.8862 129.136 59.6095 127.411 59.7751C125.543 59.9581 123.634 59.8041 121.758 59.7751C121.677 59.7751 121.598 59.6821 121.424 59.5805C122.295 55.4964 123.193 51.3774 124.102 47.1626C124.404 47.0921 124.711 47.0455 125.02 47.0232C126.374 47.0057 127.73 46.9796 129.087 47.0232C130.385 47.0696 131.55 47.4589 132.317 48.5627C132.842 50.7877 132.035 52.2953 130.039 53.1784ZM124.863 57.3118C127.132 57.6866 127.602 57.5558 128.57 56.3765V54.9677C127.628 54.1398 126.618 54.2299 125.502 54.4303L124.863 57.3118ZM128.506 51.9061C129.211 51.2874 129.795 50.811 129.331 49.9454C128.567 49.2366 127.672 49.315 126.69 49.4574C126.365 50.3288 125.996 51.1363 126.109 52.0717C127.01 52.5306 127.742 51.8741 128.506 51.9061V51.9061Z" fill="black"/>
<path d="M156.142 49.1466C157.129 52.368 156.56 55.2785 154.37 57.7011C152.421 59.8535 149.83 60.4345 146.974 59.9901C143.86 59.5021 142.716 56.4085 143.311 53.983C143.692 52.4406 144.07 50.9156 145.168 49.6549C146.53 48.0922 148.154 47.1104 150.257 47.0174C150.788 46.9942 151.323 47.0523 151.851 47.0174C153.432 46.878 154.669 47.4938 155.686 48.6557C155.811 48.7951 155.947 48.9345 156.142 49.1466ZM152.409 49.5097C150.431 48.8445 149.31 49.1146 147.881 50.6019C146.451 52.0891 146.178 54.0063 146.428 55.9786C146.492 56.4654 146.73 56.9127 147.098 57.2378C147.466 57.563 147.939 57.744 148.43 57.7476C149.213 57.7264 149.994 57.6517 150.768 57.5239C153.891 54.6482 154.477 51.514 152.409 49.5097Z" fill="black"/>
<path d="M142.275 59.7518H139.027L138.098 55.0752L136.317 54.4942C135.884 56.3388 135.495 58.0032 135.088 59.7228H132.184C133.088 55.5128 133.979 51.3697 134.856 47.2933C135.091 47.1742 135.219 47.0522 135.344 47.0551C137.267 47.0551 139.184 46.8605 141.11 47.2527C142.086 47.4502 142.815 47.8336 143.349 48.6005C143.791 51.1131 143.059 52.5248 140.828 53.5182C141.307 55.5661 141.758 57.5675 142.275 59.7518ZM140.215 49.9163C139.361 49.3354 138.455 49.2598 137.473 49.4719C137.183 50.4537 136.779 51.3629 136.86 52.3941C137.83 52.7572 138.603 52.1849 139.387 52.121L140.215 51.2264V49.9163Z" fill="black"/>
<path d="M109.843 58.1775C109.736 57.736 109.608 57.2247 109.486 56.7251C109.776 55.1101 110.067 53.5008 110.401 51.909C110.735 50.3172 111.168 48.7515 111.563 47.1307H114.357C113.977 50.416 112.672 53.434 112.649 56.8616L113.497 57.6517C115.786 58.0933 117.088 57.6285 117.84 54.747C118.444 52.4232 118.857 50.0645 119.362 47.7204C119.399 47.5877 119.448 47.4584 119.507 47.334C120.486 46.9477 120.655 46.9361 122.412 47.1597C121.936 49.408 121.465 51.6476 120.983 53.8843C120.823 54.6366 120.655 55.386 120.443 56.1238C119.745 58.558 117.913 59.6647 115.595 60.0714C114.684 60.2079 113.758 60.2079 112.847 60.0714C112.234 60.0085 111.644 59.8048 111.123 59.4763C110.602 59.1478 110.164 58.7033 109.843 58.1775V58.1775Z" fill="black"/>
<path d="M49.7929 57.7127C49.6767 58.4012 49.5721 59.0402 49.453 59.7461H41.6101C41.5479 59.5211 41.5205 59.288 41.5288 59.0547C42.2802 55.5342 43.0441 52.0165 43.8207 48.5017C43.9223 48.037 44.0937 47.5896 44.2419 47.1104H51.7942C52.1544 47.9295 51.7942 48.5627 51.4631 49.3586H46.5657C46.3623 50.3608 46.188 51.238 45.9847 52.2779H50.5742C50.4058 53.039 50.2838 53.6141 50.124 54.3113H45.4822C45.2818 55.357 45.1075 56.2778 44.9216 57.2596C46.5628 57.8028 48.1952 57.1783 49.7929 57.7127Z" fill="black"/>
<path d="M31.7075 59.7925C32.059 58.7294 32.3088 57.98 32.5935 57.1202C33.0844 57.2915 33.4329 57.4106 33.7844 57.5326C34.8737 57.8928 35.9543 57.948 37.0087 57.4019C37.6216 57.0853 37.6187 57.0795 37.9847 56.028C37.8373 55.7336 37.6302 55.4731 37.3767 55.2631C37.1231 55.053 36.8287 54.898 36.512 54.808C35.9177 54.6017 35.3486 54.3288 34.8156 53.9946C33.6043 53.2946 33.0728 52.1443 33.4097 50.7994C33.9907 48.4175 36.1373 46.9738 37.9499 47.0232C38.8213 47.0435 39.6927 46.9854 40.5641 47.0464C41.1191 47.1335 41.666 47.2656 42.1995 47.4415C41.909 48.2577 41.665 48.9171 41.4152 49.6114L38.8503 49.0972C38.005 49.2483 37.1423 49.501 36.6514 50.4131C36.4161 51.0812 36.7211 51.5343 37.2643 51.8654C37.5188 52.0102 37.7839 52.1354 38.0573 52.2402C38.4553 52.4115 38.8765 52.5452 39.2541 52.7514C41.5779 54.0208 41.7638 55.8421 40.204 58.0584C39.1902 59.5108 37.61 60.0569 35.9136 60.0917C34.6239 60.1208 33.3371 59.9233 31.7075 59.7925Z" fill="black"/>
</g>
</svg>
