<svg width="28" height="27" viewBox="0 0 28 27" fill="none" xmlns="http://www.w3.org/2000/svg">
<path d="M16.1677 26.4489C15.8589 26.5686 15.5295 26.627 15.198 26.6205C11.8823 26.9336 8.56971 25.9922 5.92167 23.9841C3.27364 21.976 1.48499 19.049 0.912861 15.7876C0.326669 12.4324 1.07996 8.9823 3.01262 6.17052C4.94528 3.35873 7.90493 1.40698 11.2625 0.730102C13.0106 0.363394 14.8153 0.353168 16.5675 0.700042C18.3196 1.04692 19.9827 1.74367 21.456 2.74812C22.9293 3.75256 24.1822 5.04379 25.1388 6.54362C26.0954 8.04344 26.7358 9.72066 27.0211 11.4737C27.3626 13.5573 27.1889 15.6922 26.515 17.6941C26.4914 17.7694 26.4914 17.8611 26.3944 17.894C26.1744 17.894 26.0846 17.7153 25.9616 17.5931C24.2272 15.8691 22.4928 14.1451 20.7584 12.4211C20.616 12.2367 20.4205 12.0998 20.1978 12.0285C19.7437 11.1399 18.9893 10.719 18.0149 10.6062C17.0935 10.4759 16.1579 10.7143 15.4133 11.2692C15.3473 11.0823 15.2143 10.9261 15.0398 10.8307C14.8652 10.7353 14.6613 10.7072 14.4672 10.752C14.4344 10.7489 14.4024 10.7401 14.3726 10.7261C14.2733 10.6391 14.1692 10.5592 14.077 10.4675C13.2752 9.64939 12.4214 8.883 11.6575 8.02963C11.6031 7.96615 11.5818 8.02962 11.5487 8.05548C11.4636 8.00611 11.4801 7.91208 11.447 7.84155C11.2998 7.52328 11.0571 7.25815 10.7522 7.0826C10.4472 6.90705 10.0951 6.82972 9.74413 6.86123C9.39352 6.89992 9.06562 7.05278 8.81152 7.296C8.55742 7.53922 8.39138 7.85915 8.33926 8.20594C8.17607 9.06167 8.59469 9.73637 9.50052 10.0749C9.43193 10.1266 9.37754 10.1595 9.48396 10.2442C9.64479 10.3711 9.84346 10.4793 9.86001 10.7143C9.6139 10.7551 9.36366 10.7653 9.11501 10.7449C8.56394 10.7684 8.46934 10.853 8.46697 11.382C8.46697 13.7329 8.46697 16.0697 8.46697 18.4135C8.46697 18.7309 8.55212 18.9589 8.86431 19.0718C8.91871 19.2199 9.05352 19.3069 9.15758 19.4032L15.8319 26.0234C15.943 26.1691 16.1086 26.2655 16.1677 26.4489Z" fill="#0C2455"/>
<path d="M11.532 8.06735C11.5652 8.03914 11.5864 7.97802 11.6408 8.04149C12.4071 8.89487 13.2586 9.66126 14.0603 10.4794C14.1526 10.5711 14.2566 10.651 14.356 10.738C13.9232 10.738 13.488 10.738 13.0552 10.7591C12.6224 10.7803 12.4568 10.9072 12.4568 11.3586C12.4568 13.7252 12.4568 16.0941 12.4568 18.4653C12.4568 18.9355 12.594 19.0742 13.0859 19.0813C13.6204 19.0813 14.1549 19.0813 14.6895 19.0813C15.2713 19.0813 15.3564 18.9896 15.3564 18.4183C15.3564 17.21 15.3564 16.0008 15.3564 14.7909C15.3394 14.3923 15.4362 13.997 15.6355 13.6507C15.898 13.2299 16.3001 13.1359 16.7613 13.1805C16.9628 13.1918 17.1545 13.2711 17.3046 13.4054C17.4547 13.5396 17.5542 13.7207 17.5867 13.9187C17.6448 14.1603 17.6703 14.4086 17.6624 14.6569C17.6624 15.9311 17.6624 17.2076 17.6624 18.4818C17.6624 18.952 17.7735 19.0742 18.2442 19.0813C18.8142 19.0813 19.3818 19.0813 19.9494 19.0813C20.517 19.0813 20.588 18.999 20.588 18.4442C20.588 16.9208 20.5738 15.388 20.5667 13.8741C20.5644 13.2437 20.4299 12.6208 20.1717 12.0451C20.4024 12.1107 20.6066 12.2463 20.7559 12.433C22.4903 14.1569 24.2247 15.8809 25.9591 17.6049C26.0821 17.7272 26.172 17.9152 26.392 17.9058C26.3898 18.1883 26.3079 18.4644 26.1554 18.7028C24.2634 22.8216 21.1131 25.4075 16.6643 26.4302C16.5035 26.479 16.3333 26.4894 16.1676 26.4607C16.1085 26.2774 15.943 26.181 15.8152 26.054L9.14093 19.4339C9.03687 19.3305 8.90442 19.2505 8.84766 19.1024C9.49806 19.1024 10.1485 19.1024 10.7989 19.0907C11.2364 19.0907 11.3665 18.959 11.3689 18.5288C11.3689 16.1309 11.3689 13.7322 11.3689 11.3327C11.3689 10.8978 11.2459 10.7897 10.8012 10.7685C10.4857 10.7829 10.1696 10.7751 9.85519 10.745C9.83863 10.5099 9.63997 10.3947 9.47914 10.2748C9.37271 10.1902 9.42711 10.1573 9.49569 10.1056C9.90828 10.2177 10.3485 10.1668 10.7242 9.96342C11.0998 9.76008 11.3817 9.42011 11.5108 9.01476C11.5805 8.70342 11.5877 8.38147 11.532 8.06735V8.06735Z" fill="#0C2455"/>
<path d="M20.1915 12.0405C20.4497 12.6162 20.5842 13.2391 20.5865 13.8694C20.5865 15.3928 20.6054 16.9256 20.6078 18.4396C20.6078 18.9944 20.5226 19.072 19.9692 19.0767C19.4157 19.0814 18.8339 19.0767 18.2639 19.0767C17.7909 19.0767 17.6845 18.9544 17.6821 18.4772C17.6821 17.203 17.6821 15.9265 17.6821 14.6523C17.69 14.404 17.6646 14.1557 17.6064 13.9141C17.5739 13.7161 17.4744 13.535 17.3243 13.4007C17.1743 13.2665 16.9826 13.1872 16.781 13.1759C16.3198 13.1336 15.9178 13.2276 15.6552 13.6461C15.4559 13.9924 15.3592 14.3877 15.3762 14.7863C15.3762 15.9946 15.3762 17.2038 15.3762 18.4137C15.3762 18.985 15.291 19.0696 14.7092 19.0767C14.1747 19.0767 13.6402 19.0767 13.1057 19.0767C12.6137 19.0767 12.4766 18.938 12.4766 18.4607C12.4766 16.091 12.4766 13.7221 12.4766 11.354C12.4766 10.9026 12.6161 10.7686 13.0749 10.7545C13.5338 10.7404 13.9429 10.7381 14.3757 10.7334C14.4055 10.7474 14.4375 10.7561 14.4703 10.7592C14.6644 10.7145 14.8683 10.7425 15.0429 10.838C15.2175 10.9334 15.3505 11.0895 15.4164 11.2764C16.161 10.7216 17.0967 10.4831 18.018 10.6135C18.9829 10.731 19.7374 11.1518 20.1915 12.0405Z" fill="#FDFDFD"/>
<path d="M9.85019 10.7329C10.1646 10.763 10.4807 10.7708 10.7962 10.7564C11.2409 10.7776 11.3639 10.8857 11.3639 11.3206C11.3639 13.7185 11.3639 16.1172 11.3639 18.5167C11.3639 18.9469 11.2314 19.0715 10.7939 19.0786C10.1435 19.0903 9.49306 19.0786 8.84265 19.0903C8.53046 18.9775 8.44531 18.7495 8.44531 18.4321C8.44531 16.0812 8.44531 13.7444 8.44531 11.4006C8.44531 10.8716 8.54228 10.787 9.09335 10.7635C9.34592 10.7849 9.6002 10.7746 9.85019 10.7329Z" fill="#FDFDFD"/>
<path d="M11.5331 8.06734C11.5824 8.3761 11.5712 8.69143 11.5 8.99594C11.3709 9.40129 11.089 9.74126 10.7134 9.94461C10.3377 10.148 9.89751 10.1989 9.48492 10.0868C8.57909 9.74823 8.16047 9.07352 8.32366 8.2178C8.37578 7.871 8.54182 7.55107 8.79592 7.30785C9.05002 7.06463 9.37791 6.91177 9.72852 6.87309C10.0795 6.84157 10.4316 6.9189 10.7366 7.09445C11.0415 7.27 11.2842 7.53514 11.4314 7.85341C11.4716 7.92394 11.455 8.01797 11.5331 8.06734Z" fill="#FDFDFD"/>
</svg>
