<svg width="108" height="97" viewBox="0 0 108 97" fill="none" xmlns="http://www.w3.org/2000/svg">
<path d="M107.447 47.4288C106.975 48.5998 107.043 49.8629 106.862 51.0778C105.578 59.9372 102.062 68.3253 96.6431 75.4546C93.9788 78.9913 90.8793 82.1788 87.4178 84.9418C85.8432 86.1986 84.0631 86.075 82.868 84.6715C81.7002 83.3016 81.8532 81.4247 83.4153 80.149C87.6548 76.7279 91.2856 72.616 94.1544 67.9868C98.1779 61.4343 100.518 54.3289 100.994 46.6432C101.948 31.2404 96.6075 18.3639 85.3232 7.89013C84.7383 7.34549 84.0946 6.86158 83.4803 6.34836C81.3836 4.60971 81.7379 1.98288 84.2099 0.799334C84.2885 0.742792 84.359 0.675856 84.4196 0.600342H86.0969C86.5454 0.854228 86.9788 1.134 87.3947 1.43825C90.7174 4.09921 93.7108 7.14619 96.3118 10.5148C101.932 17.7589 105.57 26.3383 106.871 35.4111C107.059 36.6994 107.024 38.0233 107.447 39.2759V47.4288Z" fill="#1B5BDD"/>
<path d="M23.3017 0.604614C24.0293 1.05918 24.8092 1.43203 25.239 2.26155C25.5829 2.9143 25.6873 3.66673 25.5341 4.38833C25.3809 5.10993 24.9799 5.75522 24.4004 6.2123C20.4167 9.48222 16.9341 13.1983 14.1267 17.5428C10.2662 23.4843 7.81308 30.2273 6.95403 37.2588C5.69603 47.3388 7.50126 56.8511 12.2963 65.7831C15.1519 71.1083 19.0357 75.8152 23.7231 79.6317C24.3165 80.1155 24.9308 80.5827 25.2726 81.3075C25.9309 82.69 25.587 84.1542 24.371 85.1513C23.2723 86.0542 21.7271 86.0793 20.5236 85.1199C15.4604 81.1115 11.1638 76.2219 7.84092 70.687C4.33204 64.9001 1.99475 58.4811 0.961751 51.7943C-0.988147 39.0749 1.19659 27.1033 7.73398 15.9613C10.9984 10.4307 15.2352 5.53428 20.2406 1.50742C20.6841 1.18256 21.1454 0.882588 21.6223 0.608808L23.3017 0.604614Z" fill="#1B5BDD"/>
<path d="M90.7261 44.0019C90.4599 54.8046 85.9584 64.3672 77.0287 71.8141C75.5086 73.071 73.6111 73.0102 72.4432 71.6675C71.2041 70.2451 71.4138 68.2865 73.0114 66.9689C77.3264 63.4078 80.5594 59.0758 82.48 53.8284C83.9662 49.8058 84.5857 45.5151 84.2978 41.2368C83.9036 35.074 81.7944 29.5942 78.1126 24.6882C76.6219 22.6982 74.823 21.0056 72.9507 19.3822C72.2462 18.7705 71.7094 18.0499 71.6675 17.0779C71.613 15.7394 72.1497 14.6815 73.3574 14.0761C74.5651 13.4707 75.7916 13.6278 76.8756 14.4951C80.2382 17.1689 83.1021 20.4146 85.3356 24.0828C88.9167 29.9481 90.6444 36.3498 90.7261 44.0019Z" fill="#3975F0"/>
<path d="M17.009 43.1931C17.1977 33.6431 20.3197 25.2494 26.8739 18.1921C28.0831 16.894 29.3827 15.683 30.7631 14.5682C32.2769 13.3427 34.1786 13.4684 35.3381 14.8237C36.4682 16.1455 36.3235 17.9659 34.8433 19.2814C32.4887 21.3657 30.2683 23.5526 28.526 26.1941C25.5898 30.5728 23.8428 35.6387 23.4563 40.8951C22.9594 47.502 24.4753 53.5873 27.8593 59.2222C29.6687 62.2261 32.0274 64.7734 34.7468 66.9959C36.1998 68.1815 36.4703 69.9056 35.489 71.3614C34.6252 72.6413 32.8535 73.1419 31.52 72.369C30.7507 71.8926 30.0332 71.3373 29.3794 70.712C22.9657 64.9032 18.9631 57.7454 17.4934 49.2176C17.1325 47.2305 16.9702 45.2123 17.009 43.1931Z" fill="#3975F0"/>
<path d="M53.8666 27.6125C60.6955 27.2878 67.3796 32.4744 69.1199 39.4479C71.2165 47.8374 66.1048 56.34 57.6763 58.4976C57.4435 58.5563 57.2213 58.6506 56.9949 58.726C55.9465 58.726 54.9192 59.0968 53.8604 58.8936L53.8666 27.6125Z" fill="#3975F0"/>
<path d="M53.8669 27.6124V58.8936V58.9752L50.7219 58.7197C48.4659 57.9949 46.2707 57.1758 44.348 55.7137C39.4167 51.962 37.1104 45.4493 38.6535 39.4332C39.4159 36.4292 41.0516 33.718 43.3542 31.6416C45.6568 29.5651 48.5232 28.2164 51.592 27.7653C52.3426 27.6326 53.1053 27.5814 53.8669 27.6124Z" fill="#78A4FD"/>
<path d="M53.8604 58.885C54.9087 59.0945 55.9465 58.7133 56.9948 58.7174C56.9948 70.2959 56.9948 81.8737 56.9948 93.4508C56.9948 95.4094 55.7977 96.6537 53.8729 96.7395L53.8604 58.9667V58.885Z" fill="#A1B3BC"/>
<path d="M53.8647 58.9669L53.8773 96.7397C51.9903 96.6684 50.7323 95.2985 50.7323 93.3357C50.7323 81.7935 50.7281 70.2521 50.7197 58.7113L53.8647 58.9669Z" fill="#C8D3D9"/>
</svg>
