<svg width="113" height="109" viewBox="0 0 113 109" fill="none" xmlns="http://www.w3.org/2000/svg">
<path d="M55.8931 108.208C53.8701 107.485 52.2574 106.102 50.6645 104.76C48.8303 103.215 46.8753 103.096 44.7405 103.728C43.729 104.028 42.7394 104.396 41.7345 104.714C38.7681 105.657 36.9997 104.933 35.4023 102.303C34.5598 100.909 33.7919 99.4531 32.6773 98.2343C31.9217 97.4265 30.8874 96.9352 29.7833 96.8599C28.5217 96.7033 27.2521 96.6191 25.9809 96.6078C22.3584 96.6407 20.8511 95.3298 20.1797 91.7851C20.0524 91.1144 20.2389 90.2945 19.5039 89.8122L32.4491 82.3897C32.6766 82.6699 32.9237 82.9336 33.1885 83.1789C35.9118 85.3686 38.925 87.1715 42.1426 88.5364C45.7478 90.1047 49.5944 91.0469 53.5169 91.3226C56.5309 91.5532 59.5616 91.4326 62.5478 90.9631C69.7783 89.7988 76.4958 86.5026 81.8383 81.4975C85.4869 78.133 88.4001 74.0514 90.3953 69.5089C92.3542 65.1631 93.4346 60.4736 93.5745 55.7095C93.6447 52.976 93.4144 50.2687 93.116 47.5615C95.0269 46.3048 97.0045 45.1522 99.04 44.1089C99.2638 44.525 99.3987 44.983 99.4365 45.4538C99.4743 45.9247 99.414 46.3982 99.2595 46.8446C98.8909 48.027 98.3576 49.1516 97.6753 50.1854C95.8476 52.9256 95.7357 55.6657 97.5568 58.4453C97.9837 59.1217 98.3699 59.823 98.7131 60.5453C99.9155 62.9676 99.8541 64.467 97.4493 66.7556L94.2086 69.8355C93.331 70.686 92.9426 71.7361 92.8922 72.9636C92.8264 74.6866 93.2739 76.3417 93.4692 78.0296C93.6491 79.597 93.4122 80.9495 92.2383 82.1135C90.9855 83.3542 89.3399 83.7795 87.7865 84.332C85.2194 85.2417 83.5958 86.831 83.1657 89.5777C82.9784 90.7947 82.7131 91.9984 82.3715 93.1815C81.8559 94.9352 80.8356 96.143 78.8609 96.4521C77.6564 96.6406 76.4671 96.5639 75.2735 96.6253C73.0794 96.7393 70.9578 97.0308 69.6084 99.0542C68.6627 100.475 67.7851 101.939 66.8745 103.384C65.1193 103.195 63.6295 103.765 62.2669 104.905C60.7311 106.198 59.1645 107.514 57.2205 108.219L55.8931 108.208Z" fill="#A6C2FB"/>
<path d="M112.611 35.3581C111.813 36.9496 110.22 37.5502 108.826 38.4161C107.758 39.0737 106.562 39.5297 105.621 40.389C103.308 41.4171 101.2 42.8003 99.0386 44.0959C97.0031 45.1392 95.0255 46.2917 93.1145 47.5484C92.6603 47.7677 92.1908 47.9715 91.752 48.2236C77.9028 56.1809 64.0551 64.1456 50.2089 72.1176C44.2834 75.5285 38.363 78.9512 32.4477 82.3855L19.5025 89.808C17.9534 90.6848 16.4 91.5507 14.8576 92.4385C12.6086 93.7362 10.9301 93.3285 9.64877 91.1035C8.91155 89.8189 8.02293 88.6154 7.50293 87.2103C7.79383 87.2171 8.07899 87.1286 8.31476 86.9582C9.37012 86.3159 10.4452 85.7043 11.5181 85.0884C16.1477 82.4206 20.7641 79.722 25.4243 77.1068C26.7737 76.3506 27.9936 75.3225 29.5558 74.9695C29.8718 75.5 30.1658 76.0437 30.5059 76.5566C31.0786 77.4203 32.0681 77.6768 32.8667 77.1989C33.6281 76.743 33.8694 75.8179 33.4306 74.9191C33.1147 74.2615 32.7592 73.6389 32.4235 72.9988L35.3351 71.4315C36.3598 71.8896 37.3844 72.3522 38.4068 72.8038C39.2055 73.1545 39.9888 73.1435 40.6163 72.4815C41.2438 71.8195 41.2877 70.9909 40.8357 70.1688C40.5922 69.7304 40.3486 69.2788 40.1073 68.8338C40.7282 68.0052 41.8867 67.9153 42.5208 67.0933C42.7577 67.181 43.0013 67.2533 43.2317 67.3563C44.8958 68.1236 46.774 68.2937 48.5491 67.8381C50.3243 67.3824 51.8877 66.3288 52.9756 64.8552C54.0595 63.4391 54.3294 61.7709 54.5993 60.0917C56.1768 59.7081 57.4275 58.6778 58.801 57.8996C59.7861 57.3428 60.9622 57.0228 61.6401 56.0034C62.0504 56.6479 62.441 57.3033 62.8754 57.9303C63.4634 58.7742 64.3674 58.9913 65.1617 58.5222C65.9559 58.0531 66.2061 57.1543 65.7695 56.2358C65.4733 55.6132 65.131 55.0126 64.8084 54.4032C65.6312 53.9648 66.5045 53.5899 67.268 53.0638C68.4441 52.2549 69.8834 51.8538 70.8488 50.7292C71.1977 51.2772 71.5531 51.8253 71.8954 52.3755C72.5909 53.4935 73.4115 53.7367 74.5546 53.1032C75.915 52.3469 77.2622 51.5688 78.6071 50.7796C79.386 50.3258 79.9433 49.7011 79.6537 48.7409C79.3487 47.7304 78.6005 47.3205 77.5474 47.5046C78.2056 46.4327 79.3378 46.0928 80.3997 45.65C80.6191 46.0183 80.8692 46.3822 81.0864 46.7571C81.9049 48.1819 82.6969 48.4099 84.1187 47.5967C85.3474 46.8952 86.5498 46.1477 87.7982 45.4813C88.7132 44.9925 89.2178 44.3173 88.9369 43.2892C88.6364 42.1931 87.7521 42.0374 86.767 42.1514C86.767 41.7284 87.1356 41.6538 87.4099 41.4938C91.6554 39.0452 95.8681 36.5287 100.166 34.1744C102.334 32.9884 102.902 30.9542 101.759 28.9835C99.6442 25.3424 97.5729 21.675 95.482 18.0229C96.579 17.3653 97.6387 16.6879 98.7512 16.0807C100.469 15.1446 102.244 15.6422 103.242 17.3477C106.314 22.6088 109.344 27.9005 112.394 33.1769C112.459 33.2576 112.533 33.3311 112.613 33.3962L112.611 35.3581Z" fill="#6395FB"/>
<path d="M7.53971 68.3954C6.46679 67.7509 5.60233 66.8609 4.75321 65.9665C3.16907 64.2918 3.28096 62.4306 4.22882 60.5169C4.82561 59.3091 5.49042 58.1363 6.11354 56.9416C6.99118 55.2405 6.94731 53.557 6.12452 51.8252C5.37633 50.2491 4.32316 48.8264 3.7878 47.1406C3.25244 45.4549 3.56839 43.9731 4.83219 42.7389C6.00165 41.5924 7.24569 40.5117 8.40637 39.3674C9.73599 38.0697 10.245 36.5549 9.99272 34.6346C9.77331 33.0256 9.4398 31.421 9.45735 29.7747C9.4749 28.0517 10.1156 26.7321 11.6844 25.9539C12.6585 25.465 13.6415 24.9346 14.6815 24.6496C17.988 23.7399 19.6204 21.5368 19.989 18.2311C20.0908 17.4767 20.2418 16.7298 20.441 15.9951C21.0685 13.4567 22.6351 12.2027 25.2922 12.1786C26.7842 12.1655 28.2696 12.1041 29.755 11.9594C31.9973 11.7402 33.1558 10.1904 34.2002 8.47618C34.6544 7.72867 35.0779 6.97239 35.554 6.23365C37.0723 3.81136 38.8056 3.20852 41.6053 4.02398C43.376 4.54132 45.0522 5.38531 46.9677 5.42038C48.2144 5.45163 49.4298 5.02761 50.3861 4.22783C51.3515 3.4584 52.3323 2.70873 53.313 1.95683C55.5576 0.238217 57.5235 0.231617 59.7615 1.9327C60.5996 2.5706 61.4663 3.18004 62.2496 3.87932C63.5792 5.06306 65.1019 5.60452 66.8572 5.4138C67.7656 6.85621 68.6125 8.34245 69.5976 9.72786C70.4117 10.8721 71.4977 11.7775 72.9722 11.9353C74.3401 12.1018 75.7168 12.186 77.0949 12.1874C80.4585 12.148 81.8122 13.2506 82.6043 16.5366C82.9707 18.0469 83.1418 19.6055 83.7013 21.0677C84.0897 22.0695 84.579 22.977 85.7045 23.3365C85.684 23.4432 85.6379 23.5434 85.5703 23.6285C85.5027 23.7136 85.4155 23.7811 85.3162 23.8254C83.7642 24.6861 82.2152 25.5527 80.6691 26.4252C80.4978 26.189 80.3054 25.9689 80.0942 25.7675C77.2259 23.4085 74.0198 21.4925 70.5828 20.0834C64.7048 17.7181 58.6162 16.9399 52.3125 17.6129C47.7473 18.0931 43.3172 19.4468 39.2642 21.6003C35.0992 23.7829 31.3956 26.7491 28.3573 30.3359C25.5046 33.692 23.2546 37.5159 21.707 41.6385C19.785 46.7636 19.2452 52.0817 19.5721 57.4962C19.6467 58.7282 19.6709 60.0215 20.2084 61.1987C17.9222 62.5381 15.6623 63.9257 13.3409 65.2037C11.4189 66.2734 9.59777 67.5536 7.53971 68.3954Z" fill="#A6C2FB"/>
<path d="M7.53985 68.3954C9.59792 67.5537 11.419 66.2735 13.3542 65.206C15.6756 63.928 17.9355 62.5404 20.2218 61.201C20.358 61.1524 20.4913 61.0961 20.6211 61.0322C36.3879 51.9714 52.154 42.9026 67.9194 33.8258C72.1825 31.3729 76.4281 28.8892 80.6824 26.4209C82.2315 25.5528 83.7805 24.6862 85.3296 23.8211C85.4289 23.7768 85.516 23.7093 85.5836 23.6242C85.6513 23.5391 85.6973 23.4389 85.7179 23.3322C86.0458 23.3491 86.3697 23.2549 86.6372 23.0648C88.8825 21.7627 91.1249 20.4569 93.3643 19.1475L95.486 18.012C97.577 21.6684 99.6548 25.3358 101.763 28.9725C102.907 30.9454 102.338 32.9775 100.17 34.1634C95.8722 36.5178 91.6595 39.0343 87.4139 41.4829C87.1397 41.6407 86.7755 41.7152 86.7711 42.1405C85.7104 42.8424 84.5993 43.4651 83.447 44.0038C83.1661 43.5413 82.916 43.1818 82.7208 42.7938C82.5255 42.4058 82.2008 42.0879 82.2051 41.6473C82.2542 41.5816 82.3109 41.522 82.3741 41.4698C83.0915 41.0313 83.8178 40.617 84.5309 40.1808C85.6279 39.51 85.9066 38.6748 85.3515 37.7256C84.8205 36.8137 83.8946 36.6537 82.7953 37.2872L80.3402 38.6792C79.8838 37.8024 79.3111 37.1294 79.0522 36.2394C79.5152 35.9478 79.9299 35.6694 80.3687 35.4107C80.8382 35.1323 81.3275 34.8846 81.7883 34.5931C82.8085 33.9486 83.1179 33.0389 82.6176 32.2147C82.0976 31.3576 81.1607 31.1186 80.1361 31.6776C78.982 32.2957 77.863 32.9928 76.7177 33.6176C74.6728 34.7575 74.5017 35.3954 75.6755 37.4209C77.2618 40.1589 78.8284 42.9012 80.4038 45.6523C79.3374 46.0907 78.2097 46.4349 77.5514 47.5068L74.1396 49.4666L72.7442 47.0136C73.5648 46.5379 74.3195 46.1061 75.0677 45.6676C76.2416 44.9815 76.5904 44.1047 76.0792 43.1533C75.5987 42.2567 74.5916 42.1054 73.4024 42.6995C72.6038 43.1007 71.917 43.732 70.9889 43.9381C70.5347 43.1555 69.984 42.4803 69.7163 41.5903C70.6949 41.0226 71.6515 40.4943 72.5686 39.9221C73.4858 39.35 73.7688 38.4249 73.2971 37.5897C73.1864 37.3902 73.0365 37.215 72.8563 37.0749C72.6761 36.9348 72.4694 36.8326 72.2486 36.7744C72.0278 36.7162 71.7975 36.7033 71.5716 36.7364C71.3456 36.7696 71.1288 36.848 70.9341 36.9672C69.4355 37.7936 67.9501 38.6485 66.4932 39.5473C65.5607 40.1238 65.3808 40.9261 65.8569 41.895C66.0346 42.2545 66.2518 42.5921 66.4471 42.9429C67.9018 45.5471 69.5189 48.0527 70.8485 50.7314C69.8831 51.856 68.435 52.2659 67.2677 53.066C66.5041 53.5921 65.6309 53.9648 64.8081 54.4054C64.3012 53.7247 63.8721 52.9894 63.529 52.2133C64.3342 51.7376 65.0933 51.3167 65.824 50.8498C66.8837 50.1703 67.1404 49.2518 66.5634 48.3639C66.0192 47.5266 65.0977 47.3731 64.0665 47.9518C63.3183 48.3727 62.5701 48.798 61.7693 49.2518C61.2976 48.4319 60.8916 47.7173 60.4374 46.9435C61.3853 46.3823 62.2651 45.8847 63.123 45.3498C64.1279 44.7207 64.4132 43.835 63.9305 42.9626C63.4478 42.0901 62.4758 41.8665 61.4555 42.4387C60.0842 43.1906 58.726 43.9731 57.3942 44.7908C56.3235 45.4484 56.1524 46.174 56.7141 47.2789C56.8786 47.6033 57.0761 47.9102 57.2516 48.228C58.68 50.841 60.3233 53.3291 61.6398 56.0078C60.9618 57.0359 59.7858 57.3472 58.8007 57.904C57.4271 58.6778 56.1677 59.7081 54.5989 60.0961C54.5134 59.5591 54.4476 59.0154 54.3401 58.4827C53.5129 54.3594 49.1883 51.468 45.1512 52.3317C40.5786 53.3116 37.8075 57.47 38.7707 61.8279C39.2819 64.1384 40.6598 65.7869 42.5358 67.1021C41.9083 67.9242 40.7498 68.014 40.1223 68.8426C38.3845 65.9417 36.6461 63.0416 34.9069 60.1422C34.2004 58.9672 33.235 58.6274 32.3003 59.2061C31.4578 59.73 31.359 60.6617 31.9822 61.7994C32.9958 63.6474 34.2201 65.3726 35.1109 67.2797L35.0451 67.3455C34.6217 67.3455 34.2882 67.1131 33.9283 66.9443C31.5916 65.8482 29.2527 64.7522 26.9269 63.6364C26.0493 63.2111 25.1717 62.9787 24.4564 63.8556C23.7981 64.6491 24.0746 65.469 24.5485 66.2801C26.2314 69.1671 27.8901 72.0695 29.5599 74.9653C27.9977 75.3182 26.7777 76.3463 25.4284 77.1026C20.7681 79.7178 16.1517 82.4162 11.5222 85.084C10.4492 85.7 9.37413 86.3116 8.31877 86.9539C8.083 87.1243 7.79784 87.2128 7.50694 87.206C5.42912 84.0143 3.66508 80.6406 1.71233 77.3766C1.50609 77.0324 1.29984 76.6926 1.10456 76.344C-0.0561166 74.2681 0.446324 72.6328 2.52194 71.4206C4.2114 70.4385 5.98862 69.6033 7.53985 68.3954Z" fill="#A6C2FB"/>
<path d="M93.3644 19.1472C91.1235 20.4537 88.8811 21.7595 86.6373 23.0646C86.3697 23.2547 86.0458 23.3489 85.7179 23.332C84.599 22.9725 84.1031 22.0649 83.7147 21.0632C83.1486 19.601 82.9775 18.0424 82.6177 16.5321C81.8256 13.2439 80.4718 12.1478 77.1083 12.1829C75.7302 12.1814 74.3535 12.0973 72.9856 11.9308C71.5111 11.773 70.425 10.8676 69.611 9.72335C68.6237 8.33794 67.779 6.8517 66.8706 5.40929C68.6851 4.88099 70.4865 4.31319 72.312 3.83312C74.4007 3.28948 75.9191 3.866 77.139 5.64161C78.089 7.01826 78.9733 8.44097 79.8926 9.83954C80.8119 11.2381 82.2052 11.8672 83.8639 11.9637C85.6038 12.0667 87.3481 12.1434 89.0771 12.3473C90.907 12.5665 92.0172 13.6955 92.4845 15.4426C92.8137 16.668 93.0748 17.9109 93.3644 19.1472Z" fill="#6395FB"/>
<path d="M32.4497 82.3789C38.3694 78.9548 44.2898 75.5322 50.211 72.1111C64.0543 64.142 77.902 56.1773 91.7541 48.2171C92.1929 47.965 92.6624 47.7655 93.1166 47.5419C93.415 50.2491 93.6454 52.9564 93.5752 55.6899C93.4353 60.454 92.3548 65.1435 90.3959 69.4893C88.4008 74.0318 85.4875 78.1134 81.8389 81.478C76.4964 86.4831 69.7789 89.7792 62.5484 90.9435C59.5622 91.413 56.5315 91.5336 53.5175 91.303C49.5951 91.0273 45.7485 90.0851 42.1432 88.5168C38.9256 87.1519 35.9124 85.349 33.1891 83.1593C32.9246 82.9168 32.6776 82.656 32.4497 82.3789ZM84.5377 69.4454C84.4945 68.9892 84.2827 68.5654 83.9435 68.257C83.6043 67.9485 83.1621 67.7774 82.7034 67.7773C82.2646 67.8218 81.8579 68.0273 81.5621 68.354C81.2662 68.6808 81.1022 69.1056 81.1017 69.5463C81.1189 69.9869 81.3038 70.4045 81.6185 70.7137C81.9333 71.0228 82.3543 71.2004 82.7956 71.2101C83.7017 71.1926 84.5684 70.3157 84.5377 69.441V69.4454ZM77.9312 77.473C78.8242 77.519 79.7063 76.6882 79.7282 75.7785C79.7262 75.3385 79.5536 74.9165 79.2468 74.601C78.94 74.2854 78.5227 74.1009 78.0826 74.0862C77.6426 74.0661 77.2117 74.2154 76.8786 74.5033C76.5455 74.7912 76.3356 75.1958 76.2922 75.6338C76.2804 76.0906 76.4434 76.5346 76.7479 76.8756C77.0525 77.2165 77.4756 77.4286 77.9312 77.4686V77.473ZM48.6641 81.9536C48.4373 81.9559 48.2132 82.0033 48.005 82.093C47.7967 82.1827 47.6084 82.3131 47.4511 82.4764C47.2938 82.6396 47.1707 82.8326 47.0889 83.0439C47.007 83.2553 46.9682 83.4808 46.9747 83.7073C47.0076 84.5447 47.8808 85.3536 48.7299 85.3295C49.168 85.3058 49.5818 85.1213 49.892 84.8114C50.2022 84.5014 50.3869 84.088 50.4106 83.6503C50.4101 83.4236 50.3642 83.1992 50.2757 82.9905C50.1871 82.7817 50.0577 82.5926 49.895 82.4346C49.7322 82.2765 49.5395 82.1525 49.3281 82.0699C49.1168 81.9873 48.891 81.9478 48.6641 81.9536ZM64.4617 81.9536C64.2344 81.9484 64.0084 81.9886 63.7969 82.072C63.5855 82.1554 63.3929 82.2803 63.2305 82.4392C63.0682 82.5982 62.9393 82.788 62.8515 82.9975C62.7638 83.207 62.7189 83.432 62.7195 83.6591C62.75 84.0973 62.9401 84.5091 63.2538 84.8169C63.5675 85.1246 63.9831 85.307 64.4222 85.3295C64.88 85.3157 65.3152 85.1275 65.6387 84.8035C65.9622 84.4795 66.1494 84.0442 66.1621 83.5868C66.1461 83.1473 65.9598 82.7313 65.6425 82.4265C65.3252 82.1218 64.9018 81.9522 64.4617 81.9536ZM56.5848 83.0212C56.3599 83.0124 56.1354 83.0486 55.9247 83.1277C55.7139 83.2068 55.5211 83.3272 55.3576 83.4818C55.1941 83.6364 55.0631 83.8221 54.9724 84.028C54.8818 84.2338 54.8332 84.4557 54.8295 84.6806C54.8363 84.9068 54.888 85.1295 54.9816 85.3355C55.0752 85.5416 55.2089 85.727 55.3749 85.881C55.5409 86.035 55.7358 86.1545 55.9484 86.2325C56.161 86.3106 56.3871 86.3456 56.6134 86.3357C56.8394 86.3366 57.0634 86.2922 57.2719 86.205C57.4804 86.1178 57.6693 85.9897 57.8273 85.8282C57.9853 85.6666 58.1092 85.475 58.1916 85.2647C58.2741 85.0544 58.3134 84.8297 58.3072 84.6039C58.2809 83.7074 57.5458 83.0321 56.5848 83.0234V83.0212ZM85.7949 60.5082C85.3537 60.5185 84.9342 60.7014 84.6265 61.0174C84.3188 61.3334 84.1475 61.7574 84.1493 62.1983C84.1504 62.4168 84.1953 62.6329 84.2813 62.8338C84.3674 63.0347 84.4928 63.2163 84.6503 63.3679C84.8078 63.5196 84.9941 63.6381 85.1982 63.7166C85.4024 63.7951 85.6202 63.8319 85.8388 63.8249C86.0584 63.8319 86.2772 63.7956 86.4827 63.7181C86.6883 63.6405 86.8765 63.5233 87.0367 63.3731C87.1968 63.2228 87.3258 63.0425 87.4161 62.8424C87.5065 62.6424 87.5565 62.4265 87.5633 62.2071C87.5626 61.9785 87.5159 61.7524 87.4258 61.5423C87.3358 61.3321 87.2044 61.1423 87.0394 60.984C86.8744 60.8256 86.6791 60.7021 86.4653 60.6207C86.2515 60.5394 86.0235 60.5019 85.7949 60.5104V60.5082ZM73.418 80.6011C73.4219 80.3741 73.3798 80.1486 73.294 79.9384C73.2083 79.7281 73.0807 79.5374 72.9191 79.3777C72.7575 79.2181 72.5652 79.0929 72.3537 79.0097C72.1423 78.9265 71.9162 78.8869 71.689 78.8935C71.4718 78.9002 71.2582 78.95 71.0603 79.0398C70.8625 79.1296 70.6845 79.2577 70.5365 79.4167C70.3886 79.5757 70.2737 79.7625 70.1985 79.9662C70.1232 80.1699 70.0892 80.3864 70.0983 80.6033C70.1115 81.592 70.7565 82.2123 71.7548 82.2101C72.7532 82.2079 73.418 81.5635 73.418 80.6033V80.6011Z" fill="#FEFEFE"/>
<path d="M99.0344 44.098C101.2 42.8112 103.309 41.4192 105.617 40.3911C106.933 41.1649 107.956 42.2544 108.849 43.4426C109.832 44.7578 109.807 46.2397 109.138 47.6865C108.645 48.7817 108.086 49.8461 107.464 50.8738C105.882 53.4364 106.148 55.8938 107.712 58.3402C108.373 59.346 108.913 60.4261 109.32 61.5582C109.878 63.1716 109.595 64.6556 108.412 65.9051C107.605 66.7984 106.725 67.6219 105.779 68.3669C103.366 70.1732 102.609 72.5757 103.251 75.4868C103.465 76.5541 103.599 77.6355 103.653 78.7224C103.818 81.0395 102.642 82.4139 100.649 83.271C99.5808 83.7314 98.5144 84.2071 97.4196 84.5863C94.9556 85.4522 93.6896 87.2168 93.3144 89.7422C93.1218 90.9604 92.8395 92.1627 92.4697 93.3394C91.8114 95.4723 90.4314 96.5267 88.2109 96.5859C86.6751 96.6276 85.1589 96.6692 83.6362 96.8051C82.1508 96.9498 80.8738 97.4979 80.0072 98.7452C78.9474 100.267 77.9842 101.854 76.9113 103.364C75.8143 104.923 74.2784 105.479 72.4068 104.962C70.5352 104.445 68.7075 103.892 66.8579 103.355C67.7685 101.911 68.6461 100.446 69.5918 99.0257C70.9412 97.0024 73.0672 96.7109 75.2569 96.5969C76.4505 96.5355 77.6397 96.6122 78.8443 96.4237C80.819 96.1146 81.8502 94.909 82.3549 93.1531C82.6965 91.97 82.9618 90.7662 83.1491 89.5492C83.5879 86.8025 85.2028 85.2132 87.7699 84.3035C89.3233 83.7511 90.9689 83.3259 92.2217 82.0851C93.3956 80.9211 93.6326 79.5686 93.4526 78.0012C93.2574 76.3133 92.8098 74.6583 92.8756 72.9353C92.9217 71.7077 93.3013 70.6576 94.1921 69.8071L97.4327 66.7272C99.8462 64.4386 99.8989 62.9392 98.6965 60.5169C98.3533 59.7945 97.9672 59.0933 97.5403 58.4168C95.7192 55.6285 95.831 52.8971 97.6587 50.157C98.341 49.1231 98.8743 47.9985 99.2429 46.8162C99.3965 46.3731 99.4573 45.9031 99.4215 45.4354C99.3856 44.9678 99.2539 44.5126 99.0344 44.098Z" fill="#6395FB"/>
<path d="M35.1177 67.2667C34.2269 65.3508 33.0026 63.6256 31.9889 61.7864C31.3658 60.6487 31.4645 59.717 32.307 59.1931C33.2417 58.6144 34.2071 58.9542 34.9136 60.1292C36.6558 63.0271 38.3942 65.9273 40.129 68.8297C40.3704 69.2681 40.6139 69.7219 40.8575 70.1647C41.2963 70.9867 41.2831 71.789 40.638 72.4774C39.993 73.1657 39.2272 73.1503 38.4286 72.7996C37.3996 72.348 36.3749 71.8855 35.3568 71.4273C33.7312 70.5023 32.0341 69.7084 30.2819 69.0533C30.2737 69.0241 30.2603 68.9966 30.2424 68.9722C30.2424 68.9612 30.2007 68.9722 30.1788 68.9722L30.2928 69.0467C30.7075 70.5286 31.6378 71.7299 32.4453 72.9925C32.781 73.6326 33.1364 74.2639 33.4524 74.9128C33.8912 75.8115 33.6498 76.7367 32.8885 77.1926C32.0898 77.6705 31.1003 77.4118 30.5276 76.5503C30.1875 76.0374 29.8935 75.4937 29.5776 74.9632C27.9079 72.0675 26.2491 69.1651 24.5662 66.2781C24.0923 65.467 23.8268 64.6471 24.4741 63.8536C25.185 62.9767 26.0582 63.1959 26.9447 63.6344C29.2704 64.7523 31.6093 65.844 33.946 66.9423C34.3059 67.1111 34.6394 67.3544 35.0628 67.3435C35.1067 67.4289 35.1506 67.5122 35.2449 67.3895C35.2049 67.3462 35.1624 67.3052 35.1177 67.2667Z" fill="#FEFEFE"/>
<path d="M42.5359 67.089C40.6599 65.7737 39.282 64.1253 38.7708 61.8148C37.8076 57.4569 40.5787 53.2985 45.1512 52.3186C49.1884 51.4549 53.513 54.3463 54.3401 58.4697C54.4477 59.0024 54.5135 59.546 54.599 60.083C54.3292 61.7622 54.0593 63.4304 52.9754 64.8465C51.8888 66.3173 50.3284 67.3695 48.5565 67.8258C46.7847 68.2821 44.9096 68.1148 43.2468 67.3521C43.0164 67.249 42.7728 67.1767 42.5359 67.089ZM46.573 64.6777C47.1669 64.6931 47.7578 64.5885 48.3102 64.3701C48.8626 64.1517 49.3652 63.8241 49.7877 63.4068C50.2102 62.9896 50.544 62.4914 50.769 61.942C50.9941 61.3927 51.1057 60.8037 51.0973 60.2102C51.1077 59.5991 50.9963 58.9919 50.7695 58.4243C50.5426 57.8566 50.2049 57.3398 49.776 56.9039C49.3471 56.4681 48.8356 56.1219 48.2713 55.8856C47.7071 55.6494 47.1014 55.5277 46.4896 55.5278C44.0981 55.5454 42.0005 57.6695 41.9522 60.1313C41.904 62.593 44.0147 64.6843 46.573 64.6865V64.6777Z" fill="#FEFEFE"/>
<path d="M70.8493 50.725C69.5329 48.0462 67.9026 45.5406 66.4479 42.9364C66.2527 42.5856 66.0355 42.248 65.8577 41.8885C65.3816 40.9196 65.5615 40.1173 66.494 39.5408C67.9509 38.642 69.4363 37.7871 70.9349 36.9607C71.1296 36.8416 71.3465 36.7631 71.5724 36.73C71.7983 36.6968 72.0287 36.7097 72.2495 36.7679C72.4703 36.8261 72.677 36.9283 72.8572 37.0684C73.0374 37.2085 73.1873 37.3837 73.2979 37.5833C73.7697 38.4184 73.502 39.3369 72.5695 39.9156C71.637 40.4944 70.6848 41.0117 69.7172 41.5839C69.9848 42.4739 70.5356 43.149 70.9897 43.9316C71.9244 43.7255 72.6112 43.0942 73.4033 42.693C74.5925 42.099 75.5973 42.2546 76.0801 43.1468C76.5913 44.0982 76.2424 44.975 75.0686 45.6612C74.3204 46.0996 73.5656 46.538 72.745 47.0071L74.1405 49.4601L77.5523 47.5004C78.6055 47.3162 79.3537 47.7196 79.6586 48.7367C79.9483 49.6968 79.391 50.3216 78.6121 50.7754C77.2671 51.558 75.9199 52.3428 74.5595 53.099C73.4164 53.7326 72.5848 53.4892 71.9003 52.3712C71.5536 51.8188 71.1982 51.2642 70.8493 50.725Z" fill="#FEFEFE"/>
<path d="M80.4043 45.6456C78.8289 42.9011 77.2624 40.1521 75.676 37.4142C74.5022 35.3887 74.6733 34.7507 76.7182 33.6108C77.8636 32.9751 78.9825 32.2956 80.1366 31.6709C81.1613 31.1206 82.0982 31.3508 82.6182 32.2079C83.1184 33.0322 82.8091 33.9418 81.7888 34.5863C81.328 34.8779 80.8388 35.1256 80.3692 35.404C79.9304 35.6627 79.5157 35.9411 79.0528 36.2326C79.3117 37.1226 79.8843 37.789 80.3407 38.6725L82.7959 37.2804C83.8929 36.6557 84.821 36.8157 85.352 37.7189C85.9071 38.6681 85.6329 39.5032 84.5314 40.174C83.8183 40.6125 83.0921 41.0312 82.3746 41.463C82.3114 41.5153 82.2547 41.5749 82.2057 41.6406C82.2057 42.079 82.5304 42.4078 82.7213 42.7871C82.9122 43.1663 83.1601 43.5346 83.4475 43.9971C84.5999 43.4585 85.7109 42.8357 86.7716 42.1338C87.7567 42.0198 88.641 42.1689 88.9416 43.2715C89.2224 44.304 88.7222 44.9792 87.8028 45.4636C86.5544 46.1213 85.352 46.8775 84.1233 47.579C82.7016 48.3923 81.9095 48.1643 81.0911 46.7395C80.8739 46.3778 80.6347 46.0139 80.4043 45.6456Z" fill="#FEFEFE"/>
<path d="M61.6407 55.9991C60.3242 53.3203 58.6809 50.8322 57.2525 48.2192C57.077 47.9014 56.8795 47.5945 56.7149 47.27C56.1533 46.174 56.3244 45.4374 57.3951 44.782C58.7269 43.9643 60.0851 43.1817 61.4564 42.4298C62.4767 41.8686 63.464 42.1076 63.9314 42.9538C64.3987 43.7999 64.1288 44.7074 63.1239 45.341C62.266 45.8758 61.3862 46.3734 60.4383 46.9346C60.8772 47.7106 61.2984 48.4231 61.7702 49.2429C62.571 48.7892 63.3192 48.3661 64.0674 47.943C65.0986 47.3643 66.0202 47.5177 66.5643 48.3551C67.1435 49.2429 66.8846 50.1614 65.8249 50.841C65.0942 51.3079 64.3351 51.7178 63.5299 52.2045C63.873 52.9806 64.3021 53.7159 64.809 54.3966C65.1315 55.006 65.4672 55.6066 65.77 56.2292C66.2088 57.1477 65.9543 58.0443 65.1623 58.5156C64.3702 58.9869 63.464 58.7677 62.876 57.9237C62.4416 57.2989 62.051 56.6435 61.6407 55.9991Z" fill="#FEFEFE"/>
<path d="M30.271 69.0529C32.0232 69.708 33.7202 70.5018 35.3459 71.4269L32.4344 72.9943C31.6269 71.725 30.6967 70.5238 30.282 69.0485L30.271 69.0529Z" fill="#A6C2FB"/>
<path d="M80.6871 26.4208C76.4328 28.8891 72.1872 31.3728 67.9241 33.8257C52.1616 42.9011 36.3956 51.9699 20.6258 61.0321C20.4961 61.096 20.3628 61.1523 20.2265 61.2009C19.689 60.0237 19.6648 58.7303 19.5902 57.4983C19.2633 52.0838 19.8096 46.757 21.7251 41.6406C23.2727 37.5181 25.5227 33.6941 28.3754 30.3381C31.4137 26.7513 35.1173 23.7851 39.2823 21.6025C43.3353 19.449 47.7653 18.0953 52.3306 17.6151C58.6342 16.9421 64.7229 17.7203 70.6009 20.0856C74.0379 21.4947 77.244 23.4107 80.1123 25.7697C80.3231 25.969 80.5155 26.1869 80.6871 26.4208ZM35.0872 34.696C35.3163 34.7004 35.544 34.6591 35.7569 34.5744C35.9698 34.4898 36.1637 34.3635 36.3272 34.203C36.4906 34.0425 36.6204 33.8511 36.7089 33.6399C36.7974 33.4287 36.8428 33.202 36.8425 32.973C36.8313 32.5304 36.653 32.1083 36.3433 31.7915C36.0336 31.4748 35.6154 31.2868 35.1727 31.2654C34.3105 31.2347 33.3846 32.1554 33.4175 33.0191C33.429 33.4579 33.6077 33.8759 33.9172 34.1876C34.2267 34.4992 34.6436 34.6811 35.0828 34.696H35.0872ZM30.3018 37.5611C29.842 37.5697 29.404 37.7583 29.0819 38.0862C28.7598 38.4142 28.5794 38.8553 28.5795 39.3148C28.6058 40.1456 29.49 40.994 30.315 40.9786C30.7535 40.9502 31.1668 40.7644 31.4789 40.4554C31.791 40.1464 31.9808 39.735 32.0132 39.2972C32.0167 39.0701 31.9749 38.8446 31.8902 38.6338C31.8055 38.423 31.6796 38.2312 31.5198 38.0696C31.3601 37.908 31.1697 37.7797 30.9599 37.6924C30.75 37.6051 30.5248 37.5605 30.2974 37.5611H30.3018ZM50.4042 25.0792C50.3866 24.2287 49.5594 23.4439 48.6796 23.4461C48.2223 23.4673 47.7903 23.6618 47.4715 23.99C47.1527 24.3183 46.9712 24.7556 46.9638 25.2129C46.9892 25.6521 47.183 26.0647 47.505 26.3648C47.8271 26.6649 48.2525 26.8294 48.6928 26.8242C48.9204 26.823 49.1455 26.7768 49.3551 26.6884C49.5648 26.5999 49.7549 26.4709 49.9144 26.3087C50.0739 26.1465 50.1997 25.9543 50.2845 25.7433C50.3693 25.5323 50.4115 25.3066 50.4086 25.0792H50.4042ZM43.1242 28.249C43.1155 27.7897 42.9334 27.3506 42.6144 27.0197C42.2954 26.6888 41.8631 26.4906 41.404 26.4647C40.9638 26.473 40.5431 26.6476 40.2267 26.9536C39.9104 27.2595 39.7218 27.6738 39.6991 28.1131C39.6921 28.3392 39.7303 28.5645 39.8115 28.7757C39.8927 28.9869 40.0152 29.1798 40.172 29.3431C40.3287 29.5064 40.5164 29.6368 40.7242 29.7267C40.932 29.8166 41.1556 29.8643 41.382 29.8668C41.8193 29.854 42.2369 29.6825 42.5568 29.3843C42.8766 29.0861 43.0767 28.6818 43.1198 28.2468L43.1242 28.249ZM28.9612 46.4918C28.9434 46.0525 28.7579 45.6368 28.4429 45.3298C28.1279 45.0229 27.7073 44.848 27.2674 44.8411C26.8099 44.8631 26.3786 45.0608 26.0634 45.3928C25.7482 45.7249 25.5735 46.1657 25.5757 46.6233C25.5991 47.0612 25.7882 47.4738 26.1048 47.7774C26.4214 48.0811 26.8417 48.2531 27.2805 48.2586C27.5071 48.2538 27.7305 48.2042 27.9377 48.1125C28.1449 48.0209 28.3319 47.889 28.4878 47.7247C28.6437 47.5604 28.7654 47.3668 28.846 47.1552C28.9265 46.9435 28.9641 46.7181 28.9568 46.4918H28.9612ZM58.2678 24.0599C58.2553 23.8332 58.1978 23.6114 58.0985 23.4072C57.9993 23.203 57.8603 23.0206 57.6898 22.8706C57.5193 22.7207 57.3206 22.6061 57.1053 22.5337C56.8899 22.4612 56.6623 22.4324 56.4357 22.4487C55.9979 22.4675 55.5846 22.6562 55.2839 22.9747C54.9831 23.2932 54.8186 23.7164 54.8253 24.1542C54.8358 24.3801 54.8916 24.6015 54.9894 24.8054C55.0872 25.0094 55.225 25.1915 55.3947 25.3412C55.5644 25.4909 55.7624 25.605 55.977 25.6767C56.1917 25.7484 56.4186 25.7763 56.6442 25.7588C57.0808 25.7374 57.4924 25.5491 57.7938 25.2328C58.0953 24.9166 58.2634 24.4966 58.2635 24.0599H58.2678ZM64.3981 26.8176C64.8345 26.7949 65.2474 26.6129 65.5584 26.3062C65.8694 25.9995 66.057 25.5894 66.0854 25.1537C66.0769 24.6977 65.8909 24.263 65.5669 23.9418C65.2429 23.6205 64.8063 23.438 64.3499 23.433C63.9095 23.4353 63.488 23.6115 63.1772 23.9232C62.8664 24.235 62.6917 24.6568 62.6911 25.0967C62.6861 25.3224 62.7266 25.5468 62.8101 25.7566C62.8937 25.9663 63.0186 26.1572 63.1774 26.3177C63.3363 26.4782 63.5258 26.6052 63.7347 26.6911C63.9437 26.777 64.1678 26.82 64.3938 26.8176H64.3981Z" fill="#FEFEFE"/>
<path d="M84.5385 69.4411C84.5692 70.3179 83.7025 71.1948 82.7964 71.1948C82.3551 71.1851 81.9341 71.0075 81.6193 70.6983C81.3046 70.3892 81.1198 69.9717 81.1025 69.531C81.103 69.0904 81.267 68.6656 81.5629 68.3388C81.8588 68.012 82.2654 67.8065 82.7042 67.762C83.1646 67.7624 83.6082 67.9349 83.9477 68.2457C84.2872 68.5564 84.4979 68.9829 84.5385 69.4411Z" fill="#1B5BDD"/>
<path d="M77.9307 77.4685C77.4743 77.4285 77.0505 77.2158 76.7459 76.874C76.4413 76.5321 76.2788 76.0869 76.2917 75.6293C76.3351 75.1914 76.5449 74.7868 76.878 74.4989C77.2111 74.2109 77.6421 74.0617 78.0821 74.0818C78.5222 74.0965 78.9394 74.281 79.2463 74.5965C79.5531 74.9121 79.7257 75.3341 79.7277 75.7741C79.7057 76.6925 78.8237 77.5146 77.9307 77.4685Z" fill="#1B5BDD"/>
<path d="M48.6641 81.9537C48.8913 81.9484 49.1173 81.9887 49.3288 82.0721C49.5402 82.1555 49.7328 82.2803 49.8951 82.4393C50.0575 82.5982 50.1864 82.7881 50.2742 82.9976C50.3619 83.2071 50.4068 83.432 50.4061 83.6592C50.3824 84.0968 50.1978 84.5103 49.8876 84.8202C49.5774 85.1301 49.1635 85.3146 48.7255 85.3383C47.8807 85.3624 47.0075 84.5535 46.9702 83.7162C46.9626 83.4885 47.0007 83.2617 47.0822 83.0491C47.1637 82.8364 47.2871 82.6422 47.445 82.4779C47.6028 82.3136 47.7921 82.1826 48.0014 82.0926C48.2108 82.0026 48.4361 81.9553 48.6641 81.9537Z" fill="#1B5BDD"/>
<path d="M64.4614 81.9537C64.9015 81.9523 65.325 82.1219 65.6423 82.4266C65.9596 82.7313 66.1459 83.1474 66.1618 83.5868C66.1491 84.0443 65.9619 84.4796 65.6384 84.8036C65.3149 85.1276 64.8797 85.3157 64.4219 85.3296C63.9828 85.307 63.5672 85.1247 63.2535 84.8169C62.9398 84.5092 62.7498 84.0974 62.7192 83.6592C62.7186 83.4321 62.7635 83.2071 62.8512 82.9976C62.939 82.7881 63.0679 82.5982 63.2302 82.4393C63.3926 82.2803 63.5852 82.1555 63.7966 82.0721C64.0081 81.9887 64.2341 81.9484 64.4614 81.9537Z" fill="#1B5BDD"/>
<path d="M56.5847 83.023C57.5457 83.023 58.2807 83.7114 58.3005 84.6058C58.3066 84.8316 58.2673 85.0562 58.1849 85.2665C58.1025 85.4768 57.9786 85.6685 57.8206 85.83C57.6626 85.9916 57.4737 86.1197 57.2651 86.2069C57.0566 86.2941 56.8327 86.3385 56.6066 86.3376C56.3803 86.3475 56.1543 86.3125 55.9417 86.2344C55.7291 86.1564 55.5341 86.0369 55.3681 85.8829C55.2021 85.7289 55.0685 85.5435 54.9748 85.3374C54.8812 85.1313 54.8295 84.9087 54.8228 84.6825C54.8264 84.457 54.8751 84.2346 54.9662 84.0282C55.0573 83.8219 55.1889 83.6359 55.3531 83.4812C55.5173 83.3265 55.711 83.2063 55.9225 83.1276C56.134 83.0489 56.3591 83.0134 56.5847 83.023Z" fill="#1B5BDD"/>
<path d="M85.794 60.5105C86.0229 60.5019 86.251 60.5395 86.465 60.621C86.6789 60.7025 86.8742 60.8262 87.0393 60.9848C87.2043 61.1434 87.3357 61.3335 87.4256 61.5439C87.5155 61.7543 87.5621 61.9806 87.5625 62.2094C87.5557 62.4288 87.5057 62.6447 87.4153 62.8448C87.3249 63.0448 87.196 63.2252 87.0358 63.3754C86.8757 63.5256 86.6874 63.6429 86.4819 63.7204C86.2763 63.7979 86.0575 63.8342 85.8379 63.8272C85.6193 63.8342 85.4015 63.7974 85.1974 63.7189C84.9933 63.6405 84.807 63.5219 84.6495 63.3703C84.492 63.2186 84.3665 63.037 84.2804 62.8361C84.1944 62.6352 84.1495 62.4191 84.1485 62.2006C84.1466 61.7597 84.318 61.3357 84.6257 61.0196C84.9334 60.7036 85.3529 60.5208 85.794 60.5105Z" fill="#1B5BDD"/>
<path d="M73.4188 80.6034C73.4188 81.5635 72.7606 82.2102 71.7557 82.2124C70.7508 82.2146 70.1123 81.5942 70.0991 80.6056C70.09 80.3887 70.124 80.1721 70.1993 79.9684C70.2745 79.7648 70.3894 79.578 70.5373 79.419C70.6853 79.26 70.8633 79.1319 71.0611 79.042C71.259 78.9522 71.4726 78.9025 71.6898 78.8957C71.917 78.8892 72.1431 78.9287 72.3546 79.012C72.566 79.0952 72.7583 79.2204 72.92 79.38C73.0816 79.5396 73.2091 79.7303 73.2948 79.9406C73.3806 80.1509 73.4228 80.3764 73.4188 80.6034Z" fill="#1B5BDD"/>
<path d="M35.1179 67.2667C35.1584 67.3019 35.197 67.3391 35.2337 67.3782C35.1397 67.5006 35.096 67.4175 35.0522 67.3323L35.1179 67.2667Z" fill="#DB8995"/>
<path d="M30.2813 69.0416L30.168 68.9675C30.1898 68.9675 30.2203 68.9675 30.2312 68.9675C30.249 68.9918 30.2622 69.0191 30.2704 69.0481L30.2813 69.0416Z" fill="#DB8995"/>
<path d="M46.5723 64.6862C44.014 64.6862 41.8988 62.6015 41.9471 60.131C41.9954 57.6605 44.0929 55.5539 46.4845 55.5276C47.0963 55.5275 47.7019 55.6491 48.2662 55.8854C48.8304 56.1217 49.3419 56.4678 49.7708 56.9037C50.1997 57.3396 50.5374 57.8564 50.7643 58.4241C50.9911 58.9917 51.1026 59.5988 51.0921 60.21C51.1017 60.8038 50.9911 61.3934 50.7669 61.9435C50.5427 62.4935 50.2094 62.9926 49.7873 63.4107C49.3651 63.8289 48.8626 64.1574 48.3102 64.3766C47.7577 64.5958 47.1665 64.7011 46.5723 64.6862Z" fill="#A6C2FB"/>
<path d="M35.0825 34.6959C34.6394 34.6871 34.2168 34.5082 33.9022 34.1964C33.5876 33.8846 33.4053 33.4637 33.393 33.0212C33.371 32.1443 34.2969 31.2346 35.1483 31.2675C35.591 31.2889 36.0092 31.4769 36.3189 31.7936C36.6286 32.1104 36.8069 32.5325 36.818 32.9751C36.818 33.2022 36.773 33.427 36.6857 33.6367C36.5983 33.8463 36.4702 34.0366 36.3089 34.1966C36.1475 34.3566 35.9561 34.4831 35.7456 34.5688C35.5351 34.6545 35.3097 34.6977 35.0825 34.6959Z" fill="#1B5BDD"/>
<path d="M30.2972 37.5612C30.5257 37.5611 30.7519 37.6067 30.9624 37.6954C31.173 37.784 31.3636 37.9139 31.5231 38.0773C31.6827 38.2408 31.8078 38.4345 31.8912 38.647C31.9745 38.8596 32.0145 39.0866 32.0086 39.3148C31.9762 39.7526 31.7864 40.1639 31.4743 40.4729C31.1622 40.7819 30.7488 40.9677 30.3104 40.9961C29.4854 41.0115 28.6011 40.1632 28.5748 39.3324C28.5701 38.8699 28.7485 38.4243 29.0711 38.0925C29.3936 37.7608 29.8343 37.5698 30.2972 37.5612Z" fill="#1B5BDD"/>
<path d="M50.4082 25.0792C50.4122 25.3069 50.3711 25.5332 50.2871 25.7449C50.203 25.9566 50.0778 26.1497 49.9187 26.3127C49.7595 26.4758 49.5696 26.6058 49.3598 26.6951C49.1501 26.7843 48.9247 26.8312 48.6967 26.8329C48.2564 26.8381 47.831 26.6736 47.509 26.3735C47.187 26.0735 46.9931 25.6609 46.9678 25.2217C46.9751 24.7643 47.1566 24.327 47.4754 23.9988C47.7942 23.6705 48.2263 23.476 48.6836 23.4548C49.5547 23.4439 50.3818 24.2287 50.4082 25.0792Z" fill="#1B5BDD"/>
<path d="M43.1201 28.2471C43.0785 28.6839 42.8784 29.0904 42.5575 29.3901C42.2366 29.6897 41.8171 29.8617 41.378 29.8736C41.1516 29.8711 40.9279 29.8235 40.7201 29.7335C40.5124 29.6436 40.3246 29.5132 40.1679 29.3499C40.0112 29.1866 39.8887 28.9937 39.8075 28.7825C39.7263 28.5713 39.6881 28.346 39.6952 28.1199C39.7178 27.6806 39.9064 27.2663 40.2227 26.9604C40.5391 26.6545 40.9597 26.4797 41.3999 26.4714C41.8576 26.4972 42.2887 26.6943 42.6075 27.0233C42.9262 27.3524 43.1093 27.7893 43.1201 28.2471Z" fill="#1B5BDD"/>
<path d="M28.9563 46.4919C28.9636 46.7185 28.9258 46.9444 28.845 47.1563C28.7642 47.3682 28.6421 47.562 28.4857 47.7264C28.3293 47.8908 28.1419 48.0225 27.9341 48.1138C27.7264 48.2052 27.5026 48.2545 27.2756 48.2587C26.8368 48.2532 26.4165 48.0812 26.0999 47.7775C25.7833 47.4739 25.5942 47.0613 25.5708 46.6234C25.5686 46.1658 25.7433 45.725 26.0585 45.3929C26.3736 45.0609 26.805 44.8632 27.2625 44.8412C27.7024 44.8481 28.123 45.023 28.438 45.3299C28.753 45.6369 28.9384 46.0526 28.9563 46.4919Z" fill="#1B5BDD"/>
<path d="M58.2626 24.0601C58.2625 24.4975 58.0938 24.9181 57.7914 25.2345C57.489 25.5509 57.0763 25.7387 56.639 25.759C56.4133 25.7765 56.1864 25.7486 55.9718 25.6769C55.7571 25.6052 55.5591 25.4911 55.3894 25.3414C55.2198 25.1917 55.0819 25.0096 54.9841 24.8056C54.8863 24.6017 54.8305 24.3803 54.82 24.1544C54.8133 23.7166 54.9779 23.2934 55.2786 22.9749C55.5794 22.6564 55.9926 22.4677 56.4305 22.4489C56.6571 22.4325 56.8847 22.4614 57.1 22.5339C57.3153 22.6063 57.514 22.7209 57.6846 22.8708C57.8551 23.0208 57.994 23.2032 58.0933 23.4074C58.1925 23.6116 58.2501 23.8334 58.2626 24.0601Z" fill="#1B5BDD"/>
<path d="M64.3939 26.818C64.1676 26.821 63.9431 26.7784 63.7336 26.6928C63.5241 26.6072 63.3341 26.4803 63.1747 26.3196C63.0154 26.159 62.8901 25.9681 62.8063 25.758C62.7225 25.548 62.6819 25.3232 62.6869 25.0971C62.6875 24.6572 62.8622 24.2353 63.173 23.9236C63.4838 23.6119 63.9053 23.4357 64.3457 23.4333C64.8021 23.4384 65.2386 23.6209 65.5626 23.9421C65.8867 24.2634 66.0727 24.6981 66.0812 25.1541C66.0528 25.5898 65.8653 25.9999 65.5542 26.3066C65.2432 26.6133 64.8303 26.7953 64.3939 26.818Z" fill="#1B5BDD"/>
</svg>
