<svg width="97" height="97" viewBox="0 0 97 97" fill="none" xmlns="http://www.w3.org/2000/svg">
<path d="M96.9673 59.7181V82.3432H84.1437C84.1437 81.2118 84.1678 80.0785 84.1317 78.9492C84.0534 76.4076 82.411 74.0085 79.9917 73.2462C76.9479 72.2894 73.8478 71.5171 70.7719 70.6646C70.4949 70.5602 70.2258 70.4299 69.9427 70.3517C65.0639 68.9996 60.1843 67.6509 55.3041 66.3056C55.3041 64.5404 55.3322 62.7732 55.2739 61.0079C55.2499 60.2918 55.4547 59.8986 56.0992 59.5295C59.2996 57.6981 61.4539 54.9861 62.5963 51.4857C62.8814 50.6091 63.042 49.6923 63.283 48.7034C64.2869 48.7034 65.3248 48.7134 66.3488 48.7034C68.2883 48.6793 69.7199 47.2992 69.7138 45.4939C69.7078 43.6885 68.2723 42.3285 66.3247 42.3064C65.3369 42.2944 64.3471 42.3064 63.2689 42.3064V40.5011C64.331 38.4329 65.359 36.3427 65.8509 34.0539C66.0823 33.0454 66.1427 32.0053 66.0296 30.9768C65.4795 26.4594 63.1083 23.304 58.9823 21.4124C57.6572 20.8106 56.2578 20.3352 55.0431 19.4967C54.6857 18.7485 54.3122 18.0063 53.9769 17.2481C52.0655 12.9373 54.0793 7.80402 58.4503 6.12905C59.6236 5.67316 60.7219 5.04434 61.7089 4.2635C62.2349 3.86231 62.767 3.44911 63.3271 3.08804C66.383 1.1202 69.7078 0.315791 73.3318 0.809255C76.7792 1.27865 79.7768 2.94358 82.7684 4.51424C86.8522 6.66061 88.9644 11.1901 88.4042 15.7837C88.1191 18.1187 86.9666 20.1286 86.0872 22.2409C85.7667 23.0138 85.6727 23.8618 85.8162 24.6861C86.2941 24.6861 86.7237 24.6861 87.1534 24.6861C89.1069 24.7082 90.5425 26.0482 90.5565 27.8616C90.5706 29.7171 89.125 31.0711 87.1052 31.0911C86.6454 31.0911 86.1856 31.0911 85.7118 31.0911C85.6616 31.2378 85.6193 31.3872 85.5853 31.5385C84.8585 36.1823 82.4391 39.6746 78.3935 42.0356C77.8915 42.3285 77.7088 42.6254 77.7229 43.191C77.759 44.7236 77.7811 46.2601 77.7229 47.7927C77.6907 48.5188 77.9557 48.8238 78.6063 49.0886C83.3185 51.0163 88.0127 52.9941 92.7189 54.9359C94.2917 55.5413 95.5847 56.7067 96.349 58.2076C96.5919 58.6971 96.5919 59.2828 96.9673 59.7181Z" fill="#78A4FD"/>
<path d="M13.6147 96.7601V79.3363C13.6147 76.2512 15.4438 73.7959 18.4013 72.9735C26.4136 70.7455 34.43 68.5283 42.4504 66.3217L48.6082 72.7769C51.0176 70.46 53.1559 68.3838 55.3042 66.3097C60.1831 67.6577 65.0626 69.0064 69.9428 70.3557C70.2259 70.434 70.4949 70.5563 70.772 70.6686C69.5192 73.9343 68.1619 77.1419 66.4051 80.1829C62.9393 86.2289 58.3664 91.57 52.9249 95.9276C52.6378 96.1583 52.3066 96.3288 52.2845 96.7601H28.0406C28.0406 92.6298 28.0547 88.5016 28.0406 84.3713C28.0286 82.0444 28.3859 82.4115 25.9425 82.3272C25.041 82.2951 24.8141 82.6121 24.8221 83.4726C24.8603 87.9018 24.8402 92.3309 24.8402 96.7601H13.6147Z" fill="#3975F0"/>
<path d="M52.2847 96.76C52.3068 96.3348 52.638 96.1582 52.9251 95.9276C58.3666 91.5699 62.9395 86.2289 66.4053 80.1828C68.1561 77.1418 69.5194 73.9343 70.7722 70.6686C73.8481 71.5211 76.9482 72.2934 79.9919 73.2503C82.4113 74.0125 84.0536 76.4116 84.1319 78.9532C84.1681 80.0825 84.142 81.2159 84.144 82.3472V96.76H72.9226C72.9226 92.6318 72.9346 88.5035 72.9226 84.3773C72.9226 82.0544 73.2558 82.4074 70.8244 82.3272C69.9229 82.2971 69.6981 82.6221 69.7041 83.4786C69.7403 87.9057 69.7222 92.3329 69.7222 96.76H52.2847Z" fill="#1B5BDD"/>
<path d="M24.8355 96.76C24.8355 92.3308 24.8555 87.9017 24.8174 83.4725C24.8174 82.612 25.0362 82.2951 25.9377 82.3271C28.3812 82.4114 28.0238 82.0443 28.0358 84.3712C28.0539 88.5015 28.0358 92.6297 28.0358 96.76H24.8355Z" fill="#1A3875"/>
<path d="M69.7182 96.7602C69.7182 92.333 69.7363 87.9059 69.7002 83.4788C69.7002 82.6222 69.919 82.2972 70.8205 82.3273C73.2519 82.4076 72.9086 82.0545 72.9187 84.3774C72.9347 88.5037 72.9187 92.6319 72.9187 96.7602H69.7182Z" fill="#1A3875"/>
<path d="M55.305 66.3197C53.1567 68.3938 51.0104 70.47 48.6091 72.7869L42.4512 66.3197C42.4512 64.4521 42.4512 62.5866 42.4813 60.7211C42.4934 60.1795 42.3107 59.9187 41.8369 59.6479C39.2786 58.2349 37.2192 56.0675 35.94 53.4415C35.2225 51.9474 34.7481 50.3487 34.5346 48.7054C33.4684 48.7054 32.4425 48.7154 31.4165 48.7054C29.477 48.6813 28.0415 47.3012 28.0435 45.4959C28.0455 43.6905 29.473 42.3245 31.4245 42.3024C32.4144 42.2904 33.4042 42.3024 34.4744 42.3024V40.497C35.7192 38.5834 36.4821 36.3969 37.745 34.3468C45.1918 40.7819 52.6266 40.7318 60.0473 34.3468L63.2698 40.485V42.2903C64.348 42.2903 65.3378 42.2803 66.3257 42.2903C68.2732 42.3124 69.7087 43.6665 69.7148 45.4778C69.7208 47.2892 68.2892 48.6673 66.3497 48.6874C65.3258 48.7014 64.2978 48.6874 63.2839 48.6874C63.043 49.6763 62.8823 50.593 62.5972 51.4696C61.4548 54.97 59.3005 57.6881 56.1001 59.5135C55.4556 59.8826 55.2508 60.2757 55.2749 60.9919C55.3331 62.7772 55.301 64.5444 55.305 66.3197Z" fill="#FFF2D7"/>
<path d="M63.2693 40.4949L60.0468 34.3567C52.6181 40.7376 45.1893 40.7878 37.7445 34.3567C36.4716 36.4068 35.7187 38.5933 34.4739 40.507C33.1708 38.2643 31.8136 36.0196 31.1088 33.5202C29.9042 29.2716 32.3958 24.8946 36.6001 23.5045C36.9755 23.3801 37.4032 23.3039 37.7064 23.0732C39.2142 21.9198 40.7361 20.7865 42.3242 19.7413C44.6914 18.6983 47.1429 18.1366 49.753 18.2569C51.6062 18.3452 53.3188 18.9209 55.0435 19.4946C56.2482 20.3331 57.6536 20.8005 58.9827 21.4103C63.1087 23.3019 65.4799 26.4573 66.03 30.9747C66.1431 32.0032 66.0827 33.0433 65.8513 34.0518C65.3594 36.3366 64.3314 38.4368 63.2693 40.4949Z" fill="black"/>
<path d="M42.3218 19.7369C40.7357 20.782 39.2138 21.9154 37.7039 23.0688C37.4028 23.3015 36.9731 23.3757 36.5977 23.5001C32.3934 24.8882 29.9098 29.2672 31.1064 33.5158C31.8112 36.0152 33.1684 38.2599 34.4715 40.5026V42.3079C33.4013 42.3079 32.4114 42.2979 31.4216 42.3079C29.4701 42.33 28.0446 43.682 28.0406 45.5014C28.0365 47.3208 29.4741 48.6848 31.4136 48.7109C32.4395 48.725 33.4655 48.7109 34.5317 48.7109C34.7452 50.3542 35.2196 51.953 35.9371 53.447C37.2163 56.073 39.2757 58.2404 41.8339 59.6534C42.3078 59.9182 42.4905 60.185 42.4784 60.7266C42.4383 62.5921 42.4544 64.4576 42.4483 66.3252C34.432 68.5398 26.4156 70.757 18.3992 72.9769C15.4418 73.7994 13.6187 76.2546 13.6127 79.3398V82.3487H0.933611C0.692678 82.0438 0.795037 81.7329 0.795037 81.446C0.795037 74.7421 0.795037 68.0382 0.795037 61.3344C0.795037 58.2412 2.24065 56.1189 5.13185 54.9153C9.80394 52.9755 14.466 51.0117 19.1501 49.098C19.8609 48.8092 20.0777 48.4501 20.0476 47.7079C19.9854 46.1433 20.0175 44.5726 20.0355 43.006C20.0355 42.6048 19.9552 42.344 19.5697 42.1274C15.3333 39.7563 12.8718 36.1516 12.141 31.3594C12.1059 31.262 12.0594 31.1691 12.0024 31.0826C11.4965 31.0826 10.9383 31.0987 10.3822 31.0826C9.53679 31.0726 8.72949 30.73 8.13527 30.1292C7.54105 29.5284 7.20784 28.7178 7.2079 27.8731C7.21154 27.0305 7.54665 26.2232 8.14091 25.6253C8.73517 25.0275 9.54088 24.687 10.3842 24.6776C10.8801 24.6595 11.3881 24.6776 11.9362 24.6776C12.0687 23.8591 12.0567 23.121 11.6571 22.3707C10.854 20.8422 10.093 19.2816 9.33008 17.729C6.92075 12.8104 9.23574 7.43444 14.47 5.80762C15.2008 5.58094 15.7429 5.08545 16.3091 4.63411C18.4695 2.911 20.7784 1.51284 23.5371 0.957188C26.3295 0.364449 29.2357 0.623051 31.8794 1.69943C33.6964 2.43762 35.4934 3.26003 37.2462 4.12459C39.8395 5.38599 41.8542 7.58751 42.88 10.2809C43.9058 12.9742 43.8656 15.9569 42.7675 18.6216L42.3218 19.7369Z" fill="#A6C2FB"/>
</svg>
