<svg width="80" height="69" viewBox="0 0 80 69" fill="none" xmlns="http://www.w3.org/2000/svg">
<g opacity="0.4">
<path d="M67.6552 13.3197C59.0685 11.7845 50.681 9.83978 42.2667 10.2707C41.1139 11.2673 41.4317 12.3231 41.4263 13.2712C41.4263 20.9925 41.4263 28.7137 41.4263 36.4349V39.2038H38.4151C38.297 38.6427 38.2196 38.0738 38.1834 37.5015C38.1834 31.0373 38.1834 24.573 38.1834 18.1087C38.1619 17.7499 38.1619 17.3901 38.1834 17.0313C38.3915 15.9943 38.5158 14.9423 38.5551 13.8854C38.3981 12.7392 38.1477 11.6078 37.8063 10.5024C33.5399 9.73205 29.2627 10.5024 24.9909 11.1488C20.7191 11.7952 16.4473 12.5278 11.9546 13.2551C13.0152 11.0633 14.5345 9.12519 16.4096 7.5719C20.9938 3.76875 26.3861 1.6463 32.1285 0.682044C36.3391 -0.0914174 40.644 -0.207726 44.8901 0.337274C49.9248 0.984041 54.8042 2.52175 59.3001 4.87845C62.5748 6.57031 65.3188 9.13349 67.2296 12.2854C67.3999 12.6178 67.5423 12.9637 67.6552 13.3197Z" fill="black"/>
<path d="M10.2032 17.7262C11.2375 15.6953 13.0744 15.9054 14.5451 15.6415C18.3698 14.9573 22.2322 14.4294 26.1 14.0254C28.314 13.8045 30.5711 13.9823 32.9521 13.9823L34.5251 15.4314C34.412 23.2047 32.0256 30.5524 30.5765 38.0187C28.4594 38.649 26.8057 37.6739 25.2542 37.0275C21.6342 35.5299 18.2189 33.7038 15.3369 30.8595C11.5769 27.1802 9.86385 22.8976 10.2032 17.7262Z" fill="black"/>
<path d="M45.2397 15.1244C45.9292 14.7419 46.5272 14.3648 47.1628 14.0793C47.5112 13.9719 47.8768 13.9317 48.2402 13.9608C53.1531 13.8639 58.0013 14.5265 62.8387 15.2591C64.848 15.5661 66.8412 15.9809 69.0714 16.3849C69.7663 18.335 69.5508 20.3605 69.2761 22.3644C68.9417 24.585 67.9854 26.6655 66.518 28.3654C64.3363 30.9727 61.9876 33.4776 58.8147 34.9374C56.4714 36.0148 54.0796 36.9845 51.6717 37.9164C50.8683 38.1372 50.0458 38.2815 49.2152 38.3473C48.3803 34.5119 47.5669 30.9026 46.8019 27.2773C46.2632 24.6808 45.6814 22.0843 45.2936 19.4609C45.0727 18.071 45.2397 16.622 45.2397 15.1244Z" fill="black"/>
<path d="M40.8552 68.8749H33.028C31.4712 65.5404 30.7278 61.7695 29.0902 57.9394C27.3072 61.5648 26.693 65.3357 25.0608 68.8264H17.3198C19.8571 62.1628 22.362 55.5961 24.8615 49.0672H33.1681C35.6676 55.5099 38.2049 62.0335 40.8552 68.8749Z" fill="black"/>
<path d="M63.6039 68.7726H55.8091C58.3517 62.0874 60.8081 55.6447 63.2807 49.1427H71.6789L79.1667 68.4171C77.389 69.0527 75.2181 69.1389 71.458 68.7187L67.4502 57.6217L63.6039 68.7726Z" fill="black"/>
<path d="M38.8833 49.1265H57.9799V54.5781C57.2473 55.2622 56.3099 54.8905 55.4534 54.9498C54.5969 55.009 53.8697 54.9498 52.7869 54.9498C52.7869 57.3954 52.7384 59.6849 52.7277 61.9527C52.7169 64.2206 52.7277 66.3916 52.7277 68.7564H44.6958V55.0575H38.8833V49.1265Z" fill="black"/>
<path d="M5.85095 54.869H0.571777V49.4067C2.39255 48.868 13.7266 48.7118 19.0973 49.1481C19.636 50.9312 19.2967 52.7681 19.3074 54.8905H14.0606V68.5302C12.6277 69.2359 11.2756 68.8696 9.97193 68.9342C8.6683 68.9988 7.48318 68.9342 6.12568 68.9342C5.58699 66.5209 5.92636 64.2045 5.86711 61.9312C5.80785 59.6579 5.85095 57.4763 5.85095 54.869Z" fill="black"/>
</g>
</svg>
