<svg width="132" height="44" viewBox="0 0 132 44" fill="none" xmlns="http://www.w3.org/2000/svg">
<g opacity="0.4">
<path d="M103.471 24.8122C102.546 27.1387 101.616 29.4638 100.703 31.7948C100.657 31.9341 100.582 32.0621 100.483 32.17C100.384 32.278 100.262 32.3635 100.127 32.4207C94.6978 34.8262 89.0801 35.3479 83.2682 34.1884C77.8479 33.1063 75.6714 28.7558 76.0854 24.0253C76.504 19.2471 78.4249 15.1172 81.7285 11.6013C85.923 7.13756 90.7574 3.66939 96.6979 1.92562C101.562 0.497816 106.449 0.353248 111.316 1.945C111.972 2.15961 112.602 2.45173 113.283 2.72597L109.557 11.5611C108.337 10.1795 106.809 9.39552 105.072 9.02739C97.7383 7.44756 89.1833 11.6758 87.5375 20.4305C87.0965 22.7719 88.7333 25.3056 91.1445 26.094C94.0012 27.0314 96.8399 26.708 99.6771 25.9926C100.934 25.6752 102.123 25.1699 103.326 24.7094L103.471 24.8122Z" fill="#010101"/>
<path d="M57.6896 8.52066H47.713C48.5038 6.60847 49.2647 4.76187 50.03 2.91824C50.7102 1.2788 50.7117 1.28774 52.4965 1.2788C61.7108 1.2331 70.925 1.18342 80.1392 1.12976H81.4053C80.4292 3.59787 79.4815 5.98697 78.5427 8.38056C78.3932 8.76061 78.0943 8.61158 77.8461 8.61009C74.9561 8.58326 72.066 8.55047 69.176 8.51172C68.9279 8.51172 68.6797 8.51172 68.3972 8.51172L64.6317 17.171C62.224 22.7143 59.8158 28.258 57.4071 33.8023C57.2845 34.0855 57.1948 34.3046 56.7942 34.3031C53.4323 34.2852 50.0674 34.2927 46.5874 34.2927L57.6896 8.52066Z" fill="#010101"/>
<path d="M107.281 34.1616C107.73 33.1362 108.15 32.1659 108.576 31.1972C112.866 21.439 117.156 11.6809 121.445 1.9227C121.594 1.60077 121.68 1.32654 122.156 1.32654C125.393 1.35038 128.629 1.33995 131.857 1.33995C132.036 1.60524 131.819 1.78707 131.74 1.96293C127.145 12.505 122.544 23.0447 117.938 33.5818C117.742 34.0289 117.522 34.2063 117.011 34.2018C113.999 34.1735 110.985 34.1884 107.972 34.1869C107.775 34.1914 107.579 34.178 107.281 34.1616Z" fill="#010101"/>
<path d="M13.3523 23.061C12.1355 21.2547 11.1384 19.3186 10.0427 17.4437C9.63313 16.7462 9.77514 16.0204 10.2849 15.3706C11.3118 14.0605 12.7992 13.4584 14.2597 12.8443C17.1552 11.6252 20.1882 10.8681 23.2646 10.2659C23.3574 10.2385 23.4475 10.2026 23.5337 10.1586C25.5024 9.83372 27.4756 9.52521 29.4413 9.17944C30.9706 8.91116 32.5312 8.88135 34.0484 8.52515H34.6269C34.3534 9.36424 33.8676 10.0156 33.4864 10.7265C32.4759 12.579 31.419 14.4033 30.4055 16.2514C30.3242 16.426 30.1965 16.5751 30.0363 16.6825C29.8761 16.79 29.6895 16.8517 29.4966 16.861C25.92 17.299 22.387 18.0384 18.9356 19.0712C18.795 19.1145 18.659 19.1785 18.5215 19.2337C16.9414 19.7464 15.3973 20.3381 14.0923 21.4037C13.575 21.824 13.1819 22.3278 13.3523 23.061Z" fill="#7C7A7A"/>
<path d="M5.29688 10.0766C4.46126 8.88428 3.89322 7.52951 3.19662 6.25373C2.34307 4.68582 1.5224 3.10302 0.625488 1.4293C13.1687 1.08352 25.6358 1.21915 38.1192 1.50382L35.1295 1.92113C29.3624 2.7334 23.6267 3.70961 17.9762 5.12847C17.7899 5.18696 17.6073 5.25612 17.429 5.33563C16.5755 5.39376 15.7847 5.72761 14.988 5.96905C11.6111 6.98849 8.29106 8.15398 5.29688 10.0766Z" fill="#7C7A7A"/>
<path d="M5.29688 10.0767C8.28657 8.15404 11.6111 6.98855 14.9909 5.96911C15.7937 5.72767 16.5785 5.39382 17.432 5.33569C21.5279 7.20168 25.8495 8.09592 30.3221 8.36568C31.5613 8.43871 32.802 8.47299 34.0428 8.52516C32.5255 8.8754 30.9709 8.91117 29.4356 9.17944C27.4699 9.52522 25.4967 9.83373 23.528 10.1586C21.6101 10.0439 19.7027 10.2734 17.7923 10.3658C13.9371 10.5491 10.0864 10.6251 6.23863 10.2525C5.92023 10.2212 5.58986 10.2451 5.29688 10.0767Z" fill="#010101"/>
<path d="M25.951 22.9536C26.1005 22.9536 26.25 22.9045 26.3875 23.0595C24.1093 26.7422 21.8327 30.4355 19.7593 34.4267C19.136 33.3343 18.5769 32.3611 18.0253 31.3848C17.7458 30.8885 17.538 30.3416 17.1927 29.8944C16.6426 29.1805 16.7936 28.5113 17.1583 27.8168C17.9057 26.4084 19.1435 25.5678 20.5232 24.8792C21.7191 24.2831 23.0091 23.9105 24.2603 23.4276L25.951 22.9536Z" fill="#7C7A7A"/>
<path d="M25.9513 22.9537L24.2561 23.4247C23.1604 23.2637 22.0811 23.529 20.9914 23.5439C18.782 23.5752 16.5756 23.5081 14.3722 23.3606C14.0254 23.3382 13.6083 23.4411 13.3527 23.0625C13.1883 22.3292 13.5754 21.8255 14.1001 21.4052C15.4051 20.3396 16.9493 19.7479 18.5294 19.2352C20.6027 20.7212 22.8981 21.872 25.3309 22.6452C25.5432 22.7153 25.8407 22.6556 25.9513 22.9537Z" fill="#010101"/>
<path d="M67.487 42.2917V38.5955C67.7516 38.4465 67.9579 38.5076 68.1896 38.5433V43.3335C67.783 43.5228 67.5049 43.3663 67.2343 43.0473C66.3195 41.9698 65.3867 40.9101 64.3627 39.7282V43.2843C64.2656 43.3554 64.15 43.3973 64.0298 43.4049C63.9095 43.4126 63.7895 43.3857 63.6841 43.3275V38.5985C64.0638 38.366 64.3074 38.5448 64.5556 38.8414C65.4779 39.9443 66.4152 41.0338 67.487 42.2917Z" fill="#010101"/>
<path d="M35.9619 43.4021V38.5433C36.7901 38.5433 37.6062 38.4584 38.409 38.5642C38.9932 38.6482 39.5238 38.9496 39.8943 39.4077C40.2648 39.8658 40.4476 40.4468 40.4061 41.0338C40.3641 41.645 40.1014 42.2204 39.6666 42.6534C39.2318 43.0863 38.6544 43.3475 38.0412 43.3886C37.376 43.4378 36.7049 43.4021 35.9619 43.4021ZM36.6152 39.1589V42.7567C37.6391 42.7254 38.6855 42.9609 39.3627 41.9549C39.5734 41.6728 39.6917 41.3328 39.7013 40.9812C39.7109 40.6296 39.6115 40.2836 39.4165 39.9905C38.7438 38.9189 37.6586 39.1917 36.6152 39.1589Z" fill="#010101"/>
<path d="M80.331 43.3991C80.0005 43.4058 79.6721 43.3465 79.365 43.2245C79.058 43.1026 78.7785 42.9204 78.5433 42.689C78.308 42.4575 78.1217 42.1813 77.9954 41.8768C77.869 41.5723 77.8052 41.2456 77.8077 40.916C77.8077 39.5598 78.9169 38.5314 80.4102 38.5016C81.8602 38.4718 83.0247 39.524 83.0396 40.8758C83.0546 42.3751 81.9678 43.3901 80.331 43.3991ZM80.4446 39.0679C80.1964 39.0616 79.9495 39.1047 79.7183 39.1948C79.4871 39.2849 79.2762 39.4201 79.0981 39.5925C78.92 39.765 78.7783 39.9711 78.6812 40.1989C78.5841 40.4267 78.5336 40.6715 78.5327 40.919C78.5242 41.1667 78.5661 41.4135 78.6561 41.6445C78.746 41.8755 78.882 42.0859 79.0558 42.263C79.2297 42.4401 79.4378 42.5802 79.6675 42.6748C79.8972 42.7694 80.1438 42.8165 80.3923 42.8133C81.5044 42.8238 82.3356 42.0204 82.3505 40.9295C82.3595 39.8981 81.5284 39.0873 80.4506 39.0679H80.4446Z" fill="#010101"/>
<path d="M89.4331 39.527C88.7275 39.2498 88.0593 38.9308 87.279 39.1663C86.8578 39.2781 86.4888 39.5327 86.2354 39.8862C85.982 40.2398 85.86 40.6703 85.8903 41.1038C85.9139 41.5155 86.0795 41.9063 86.359 42.2103C86.6385 42.5142 87.0147 42.7125 87.424 42.7716C87.5956 42.7979 87.7691 42.8109 87.9427 42.8103C88.9159 42.8103 89.031 42.6613 88.8396 41.618L88.0638 41.5763C88.0085 40.922 88.1475 40.8758 89.5751 41.077V42.7537C89.5778 42.8259 89.5603 42.8974 89.5247 42.9603C89.4891 43.0231 89.4367 43.0749 89.3733 43.1099C87.8934 44.0995 85.4867 43.1099 85.2326 41.3915C85.0831 40.3795 85.382 39.5002 86.2655 38.9383C87.2177 38.3421 88.2507 38.3853 89.2701 38.7892C89.6199 38.9278 89.4779 39.2274 89.4331 39.527Z" fill="#010101"/>
<path d="M49.7294 41.0725C50.4334 41.7223 50.8176 42.548 51.3229 43.326C50.7638 43.5317 50.4259 43.3841 50.1868 42.8998C49.9958 42.5237 49.7743 42.1638 49.5246 41.8237C49.2525 41.4451 48.9087 41.1664 48.3406 41.3274V43.3275C47.9804 43.4184 47.6665 43.5674 47.6709 42.9966C47.6814 41.5331 47.6709 40.071 47.6709 38.5642C48.2132 38.4575 48.7705 38.4504 49.3153 38.5433C49.5784 38.577 49.8246 38.6913 50.0198 38.8704C50.215 39.0495 50.3496 39.2847 50.405 39.5434C50.565 40.1917 50.3348 40.7074 49.7294 41.0725ZM48.3675 40.5941C48.8608 40.6373 49.3347 40.7297 49.6561 40.2632C49.7468 40.1428 49.7943 39.9954 49.7907 39.8448C49.7872 39.6942 49.7329 39.5492 49.6367 39.4331C49.2854 39.0113 48.8115 39.1738 48.3675 39.1752V40.5941Z" fill="#010101"/>
<path d="M43.3621 39.2185V40.5479C44.0034 40.7312 44.6551 40.5479 45.3054 40.6656C45.5162 41.3736 44.9825 41.1932 44.6372 41.2067C44.2425 41.2216 43.8464 41.2067 43.4279 41.2067C43.2784 41.7223 43.3247 42.2022 43.3995 42.7299H45.3801C45.555 42.9504 45.5191 43.1397 45.4564 43.3663H42.6431V38.5448H45.3682C45.3921 38.9919 45.3921 38.9919 43.3621 39.2185Z" fill="#010101"/>
<path d="M25.4683 39.1634V40.5867H27.3577C27.4056 41.2008 27.4056 41.2023 26.7194 41.2037C26.3248 41.2037 25.9287 41.2037 25.5086 41.2037C25.3816 41.7135 25.4264 42.1934 25.4712 42.721H27.4564C27.6537 42.9386 27.5969 43.1323 27.561 43.3633H24.7388V38.5002C25.5714 38.5002 26.404 38.4703 27.2337 38.5121C27.712 38.5359 27.4444 38.8817 27.4908 39.1649L25.4683 39.1634Z" fill="#010101"/>
<path d="M33.8932 43.3201C33.391 43.5347 33.1727 43.3409 32.9963 42.9355C32.8468 42.5883 32.8334 42.0413 32.4193 41.9638C31.8583 41.851 31.2807 41.847 30.7182 41.9519C30.3011 42.0308 30.2697 42.5659 30.1307 42.9191C29.9648 43.3543 29.7241 43.5049 29.2144 43.3454C29.8556 41.8252 30.4835 40.3035 31.1427 38.7967C31.3445 38.3347 31.6838 38.3615 31.8827 38.7967C32.5688 40.2886 33.2235 41.8073 33.8932 43.3201ZM32.2489 41.3661C32.0022 40.77 31.787 40.2409 31.5314 39.6209C31.2728 40.2662 30.9334 40.7491 30.8407 41.3661H32.2489Z" fill="#010101"/>
<path d="M113.004 42.3274C113.177 42.9027 112.953 43.1203 112.446 43.2559C110.754 43.7031 109.291 43.1546 108.803 41.8281C108.628 41.3465 108.608 40.8225 108.745 40.3289C108.883 39.8353 109.171 39.3966 109.57 39.0739C110.388 38.4464 112.078 38.2959 112.766 38.7758C113.052 38.9785 112.968 39.2229 112.916 39.4927C111.322 38.9099 110.362 39.0172 109.761 39.8265C109.516 40.1577 109.383 40.5586 109.383 40.9704C109.383 41.3822 109.516 41.7832 109.761 42.1143C110.437 42.9459 111.422 43.0145 113.004 42.3274Z" fill="#010101"/>
<path d="M101.907 43.3126C101.793 43.3746 101.664 43.407 101.534 43.407C101.403 43.407 101.275 43.3746 101.16 43.3126V39.2781C100.622 38.8891 99.7234 39.606 99.3931 38.5329H103.429C103.607 38.6909 103.504 38.895 103.471 39.1514H101.907V43.3126Z" fill="#010101"/>
<path d="M117.607 39.5643C117.18 39.3288 116.893 39.1261 116.544 39.0769C116.224 39.0307 115.93 39.1097 115.78 39.4122C115.631 39.7148 115.761 39.998 116.033 40.1858C116.42 40.4511 116.843 40.6701 117.212 40.9578C117.368 41.0713 117.499 41.216 117.595 41.3826C117.692 41.5493 117.753 41.7342 117.773 41.9255C117.794 42.1169 117.775 42.3104 117.716 42.4939C117.658 42.6773 117.561 42.8465 117.434 42.9907C116.961 43.5004 115.64 43.5138 115.161 43.0131C114.94 42.7791 115.054 42.5048 115.06 42.1933C115.454 42.4467 115.77 42.7895 116.256 42.7999C116.607 42.7999 116.919 42.7224 117.072 42.399C117.224 42.0756 117.036 41.8028 116.803 41.6136C116.458 41.3319 116.063 41.1128 115.712 40.8386C114.996 40.2797 114.846 39.5568 115.3 38.9651C115.673 38.4822 116.828 38.3198 117.372 38.6566C117.71 38.8682 117.532 39.1783 117.607 39.5643Z" fill="#010101"/>
<path d="M97.5142 39.5329C97.1346 39.3109 96.8401 39.1201 96.4873 39.0858C96.1345 39.0515 95.8281 39.1365 95.6801 39.4763C95.5321 39.8161 95.7414 40.0516 95.994 40.2215C96.3393 40.4615 96.722 40.6507 97.0598 40.8996C97.7803 41.4302 97.9149 42.3677 97.3812 42.9758C96.9223 43.4959 95.6218 43.5272 95.1105 43.0339C94.8714 42.8029 95.0014 42.5286 94.9924 42.2052C95.3886 42.4571 95.71 42.779 96.1734 42.8014C96.5202 42.8178 96.8311 42.7373 96.9925 42.4094C97.154 42.0815 96.9552 41.8133 96.7324 41.6255C96.4335 41.3676 96.0822 41.1783 95.7593 40.9458C94.9835 40.3944 94.7563 39.6581 95.1614 39.0396C95.5171 38.4986 96.6158 38.2944 97.2691 38.6342C97.6772 38.8399 97.5232 39.1618 97.5142 39.5329Z" fill="#010101"/>
<path d="M55.6538 39.4808C55.3434 39.336 55.0256 39.2076 54.7016 39.0962C54.5474 39.0387 54.3772 39.0404 54.2242 39.101C54.0711 39.1616 53.9461 39.2768 53.8735 39.4241C53.6911 39.7833 53.9049 40.0426 54.1889 40.2349C54.5372 40.4704 54.9199 40.6597 55.2547 40.9101C55.9692 41.4451 56.0858 42.3856 55.5372 42.9966C55.0798 43.5019 53.7434 43.5183 53.2666 43.0234C53.0423 42.7909 53.1664 42.5137 53.1589 42.2082C53.5536 42.4601 53.8765 42.7909 54.3548 42.8044C54.7031 42.8133 55.0096 42.7254 55.168 42.4005C55.3265 42.0755 55.1276 41.8043 54.8974 41.6225C54.5536 41.3408 54.1605 41.1202 53.8107 40.846C53.0917 40.2796 52.9407 39.5672 53.3936 38.98C53.7733 38.4881 54.8885 38.3287 55.4535 38.6625C55.8063 38.8667 55.6568 39.1618 55.6538 39.4808Z" fill="#010101"/>
<path d="M20.4887 42.7492H22.5336C22.7414 42.9578 22.6338 43.1605 22.6278 43.3796H19.8115V38.6103C19.9984 38.4389 20.2077 38.4896 20.4887 38.582V42.7492Z" fill="#010101"/>
<path d="M73.7608 42.7268H75.8536C76.0823 42.9325 76.0031 43.1293 75.9776 43.3633H73.1255C73.1255 41.8639 73.1345 40.3824 73.1255 38.9025C73.1255 38.4166 73.3796 38.4554 73.7683 38.5656L73.7608 42.7268Z" fill="#010101"/>
<path d="M61.1668 43.3067C61.0786 43.3633 60.9773 43.3964 60.8727 43.4029C60.768 43.4094 60.6634 43.3891 60.5688 43.3439V38.5747C60.9336 38.4256 61.1862 38.4047 61.1787 38.9711C61.1668 40.4123 61.1668 41.8521 61.1668 43.3067Z" fill="#010101"/>
<path d="M92.6913 43.3782H92.0396V38.6C92.2055 38.4315 92.4237 38.4941 92.6913 38.5448V43.3782Z" fill="#010101"/>
<path d="M105.655 38.5985C105.876 38.4494 106.07 38.515 106.311 38.5165V43.3394C106.208 43.3879 106.096 43.4131 105.983 43.4131C105.869 43.4131 105.757 43.3879 105.655 43.3394V38.5985Z" fill="#010101"/>
<path d="M103.321 24.708L103.471 24.6378C103.471 24.6961 103.471 24.7543 103.461 24.8125L103.321 24.708Z" fill="#010101"/>
</g>
</svg>
