<svg width="108" height="97" viewBox="0 0 108 97" fill="none" xmlns="http://www.w3.org/2000/svg">
<circle cx="60.1249" cy="49.7938" r="24.5565" fill="#A6C2FB"/>
<path d="M56.0095 0.600342C56.8013 0.992543 57.3554 1.55508 57.1311 2.50981C56.927 3.40627 56.2338 3.66398 55.3837 3.77828C53.5465 4.02929 51.7161 4.34305 49.8834 4.62319C49.1611 4.73525 48.5532 4.56719 48.1875 3.86571C47.6963 2.92667 48.1427 1.94725 49.253 1.64021C50.7963 1.21439 52.3935 1.04634 53.9637 0.831187C54.2127 0.79757 54.4976 0.871527 54.6681 0.607072L56.0095 0.600342Z" fill="#1B5BDD"/>
<path d="M107.731 52.7028C107.549 52.9269 107.383 53.1689 107.183 53.3751C106.717 53.8682 106.174 54.1192 105.481 53.8726C104.788 53.6261 104.539 53.1084 104.554 52.398C104.588 50.6163 104.613 48.8323 104.617 47.0483C104.617 46.172 104.617 45.3159 105.568 44.8565C106.519 44.397 107.08 45.0963 107.731 45.5423V52.7028Z" fill="#1B5BDD"/>
<path d="M14.0646 32.6621C13.6362 32.7697 13.4253 33.1462 13.1472 33.4263C10.1458 36.434 7.14892 39.4476 4.15651 42.4672C3.94565 42.6778 3.7415 42.8952 3.52392 43.0991C2.66702 43.8925 1.86171 43.9373 1.16408 43.2336C0.466451 42.5299 0.549453 41.7051 1.33681 40.8669C1.84601 40.3223 2.38662 39.8069 2.90704 39.2802C7.19601 34.9728 11.4812 30.663 15.7627 26.351C16.3617 25.7459 16.9449 25.1789 17.8848 25.4277C18.8247 25.6765 18.9323 26.4765 19.114 27.2475C20.62 33.5795 22.1304 39.9085 23.6453 46.2345C23.9167 47.3753 23.5466 48.1798 22.6695 48.3927C21.8507 48.59 21.0993 47.9871 20.8323 46.88C19.7975 42.577 18.7686 38.2739 17.7457 33.9709C17.6784 33.6863 17.6874 33.3703 17.3688 33.1327C16.2613 35.9304 15.4895 38.8493 15.0696 41.8284C13.5622 52.2094 15.3253 62.0189 20.6417 71.0754C27.609 82.9401 38.0061 90.2418 51.4944 92.6644C66.8916 95.43 80.3126 91.0956 91.5621 80.188C91.7147 80.025 91.8765 79.8708 92.0467 79.7263C92.7757 79.1682 93.5384 79.0248 94.2719 79.6881C94.4325 79.833 94.5613 80.0094 94.6504 80.2064C94.7395 80.4033 94.7869 80.6165 94.7896 80.8326C94.7924 81.0487 94.7504 81.2631 94.6663 81.4622C94.5823 81.6613 94.4579 81.8409 94.3011 81.9898C93.1162 83.2291 91.8689 84.4072 90.5639 85.5196C83.1614 91.7074 74.6373 95.5308 65.0567 96.4407C47.3737 98.1216 32.784 92.0481 21.6085 78.1866C16.3033 71.6043 13.1875 64.0046 11.9628 55.6653C10.8244 48.1605 11.517 40.492 13.9816 33.312C14.0601 33.1036 14.1925 32.9086 14.0646 32.6621Z" fill="#1B5BDD"/>
<path d="M92.5253 17.1825C92.2463 17.1891 91.9688 17.1392 91.7097 17.0355C91.4506 16.9319 91.2152 16.7768 91.0179 16.5796C89.6922 15.3873 88.3508 14.2129 87.0138 13.0318C86.139 12.2586 86.0111 11.5101 86.6145 10.7078C87.2179 9.90546 87.9604 9.82701 88.9452 10.5352C90.6312 11.7576 92.2033 13.1296 93.6424 14.6343C94.0911 15.0825 94.3513 15.6226 94.0462 16.2479C93.9201 16.5413 93.7063 16.7886 93.434 16.9559C93.1617 17.1232 92.8444 17.2024 92.5253 17.1825Z" fill="#1B5BDD"/>
<path d="M76.0472 3.63257C76.2824 3.67852 76.5135 3.7437 76.7381 3.82752C78.5326 4.63732 80.3197 5.45389 82.0993 6.27714C82.9764 6.68054 83.3398 7.3977 82.9966 8.28071C82.6534 9.16373 81.8525 9.46402 80.9777 9.09647C78.997 8.26276 77.0297 7.39543 75.0961 6.46087C74.4366 6.14263 74.2571 5.45236 74.4792 4.72622C74.7013 4.00009 75.2531 3.66394 76.0472 3.63257Z" fill="#1B5BDD"/>
<path d="M103.389 31.5372C104.114 31.6022 104.648 31.9048 104.917 32.6331C105.612 34.5935 106.168 36.6006 106.579 38.6394C106.752 39.453 106.559 40.2239 105.561 40.4503C104.693 40.6475 103.744 40.159 103.542 39.2849C103.093 37.362 102.492 35.4929 101.972 33.5991C101.658 32.5009 102.366 31.5641 103.389 31.5372Z" fill="#1B5BDD"/>
<path d="M101.234 72.5123C101.196 72.7091 101.132 72.8998 101.043 73.0793C100.059 74.8295 98.9341 76.4964 97.6786 78.0636C96.9899 78.8928 96.1084 79.0206 95.422 78.4603C94.6503 77.8261 94.6368 77.0192 95.1595 76.2707C96.2811 74.6593 97.4027 73.0435 98.4503 71.3693C98.8047 70.8001 99.3767 70.4998 100.086 70.7575C100.794 71.0152 101.272 71.5105 101.234 72.5123Z" fill="#1B5BDD"/>
<path d="M63.7155 0.835721C65.2341 1.04415 67.1521 1.28392 69.061 1.58423C69.9583 1.72542 70.5841 2.24317 70.4922 3.24945C70.4002 4.25572 69.7205 4.75099 68.5787 4.61876C66.6967 4.39464 64.8192 4.14142 62.9439 3.86576C61.8425 3.7044 61.2592 2.99395 61.3916 2.07284C61.5172 1.21672 62.1722 0.779693 63.7155 0.835721Z" fill="#1B5BDD"/>
<path d="M35.4834 7.873C35.4986 7.58456 35.5861 7.30457 35.7378 7.05867C35.8895 6.81277 36.1005 6.60882 36.3515 6.46555C38.1736 5.45642 40.0649 4.5772 42.0111 3.83444C42.8276 3.52516 43.514 3.81653 43.8796 4.583C44.2744 5.40551 44.0075 6.21006 43.2067 6.57761C41.2192 7.50096 39.169 8.25178 37.2533 9.36115C36.513 9.79594 35.517 8.92858 35.4834 7.873Z" fill="#1B5BDD"/>
<path d="M100.538 27.9222C99.8646 27.9962 99.3644 27.6489 98.9988 26.9989C98.0872 25.3811 97.0944 23.8103 96.0243 22.2925C95.3917 21.396 95.5599 20.6318 96.3922 20.0894C97.1571 19.5897 97.9041 19.7488 98.4851 20.6296C99.5708 22.2701 100.648 23.9196 101.655 25.6094C102.395 26.8443 101.87 27.9222 100.538 27.9222Z" fill="#1B5BDD"/>
<path d="M101.435 65.4815C101.513 65.226 101.58 64.9749 101.659 64.7329C102.277 63.1 102.794 61.431 103.209 59.7352C103.456 58.6818 104.176 58.1663 105.003 58.3546C105.957 58.5787 106.396 59.325 106.141 60.4142C105.678 62.3676 105.043 64.2763 104.243 66.118C103.931 66.8396 103.346 67.1601 102.623 66.9606C101.946 66.7701 101.558 66.2098 101.435 65.4815Z" fill="#1B5BDD"/>
<path d="M89.9531 66.1001C89.9105 67.261 88.7351 68.0431 87.7324 67.5523C86.9002 67.1464 86.102 66.6743 85.3456 66.1404C84.6996 65.6922 84.5515 64.9885 84.897 64.2601C85.2312 63.5676 85.8705 63.2605 86.5614 63.4779C87.6544 63.8347 88.6687 64.3977 89.5493 65.1364C89.6795 65.2605 89.7825 65.4102 89.852 65.5761C89.9215 65.7419 89.9559 65.9203 89.9531 66.1001Z" fill="#6395FB"/>
<path d="M75.8354 79.881C74.6039 79.881 72.603 76.535 73.1862 75.4413C73.7066 74.4686 75.066 74.2893 75.6963 75.1813C76.2854 75.9956 76.7919 76.8665 77.2082 77.781C77.6905 78.8635 76.9749 79.881 75.8354 79.881Z" fill="#6395FB"/>
<path d="M85.3859 33.7446C85.4204 33.5932 85.4623 33.4436 85.5115 33.2964C85.7829 32.5478 88.2953 31.0037 89.1006 31.109C89.4024 31.1277 89.6909 31.2395 89.9263 31.429C90.1618 31.6185 90.3326 31.8763 90.4151 32.1669C90.5264 32.4692 90.5317 32.8002 90.4303 33.106C90.3288 33.4117 90.1266 33.674 89.8566 33.85C89.1163 34.3532 88.3454 34.8097 87.5483 35.2171C86.4873 35.7482 85.3702 35.0086 85.3859 33.7446Z" fill="#6395FB"/>
<path d="M60.4469 81.5595C60.4409 82.0102 60.4004 82.4597 60.3258 82.9042C60.2762 83.2226 60.1123 83.512 59.8645 83.7183C59.6168 83.9245 59.3022 84.0335 58.9798 84.0248C58.6585 84.0618 58.3351 83.9765 58.074 83.7858C57.8129 83.5952 57.6333 83.3132 57.5711 82.9961C57.3124 81.8698 57.3071 80.7002 57.5554 79.5716C57.7034 78.8724 58.2799 78.5362 58.9798 78.5541C59.6371 78.5721 60.079 78.9486 60.2944 79.5828C60.4828 80.1543 60.3886 80.7549 60.4469 81.5595Z" fill="#6395FB"/>
<path d="M45.9441 21.5235C45.9441 22.3954 45.7198 22.9265 45.2039 23.0924C44.531 23.3165 43.7414 23.3299 43.2703 22.6441C42.6946 21.8246 42.1853 20.9605 41.7472 20.0601C41.6089 19.7896 41.5717 19.4787 41.6424 19.1833C41.7132 18.8878 41.8871 18.6273 42.133 18.4486C42.6646 18.0251 43.3308 17.7763 43.8714 18.2357C44.9684 19.1748 45.417 20.5307 45.9441 21.5235Z" fill="#6395FB"/>
<path d="M92.0182 48.0567C92.4669 48.0567 92.9155 47.9828 93.3462 48.0724C94.1739 48.2494 94.6248 48.794 94.5553 49.6703C94.4857 50.5466 94.055 51.0688 93.1735 51.1136C92.359 51.1551 91.5429 51.1551 90.7284 51.1136C89.7549 51.0643 89.221 50.457 89.212 49.5336C89.203 48.6103 89.7908 48.1217 90.6858 48.0365C91.1344 47.9939 91.583 48.0365 92.0182 48.0365V48.0567Z" fill="#6395FB"/>
<path d="M42.2518 79.1124C42.0005 79.1235 41.7502 79.0741 41.522 78.9684C41.2938 78.8627 41.0944 78.7037 40.9405 78.5049C40.7866 78.3061 40.6827 78.0733 40.6377 77.8261C40.5926 77.5788 40.6077 77.3244 40.6816 77.0841C40.9755 76.0734 41.5789 75.2128 42.1935 74.3723C42.6197 73.7807 43.2949 73.7583 43.914 74.0541C44.587 74.3701 45.0356 74.9864 44.7552 75.6834C44.3066 76.7704 43.6538 77.7811 43.0549 78.8053C42.8978 79.0698 42.5636 79.1191 42.2518 79.1124Z" fill="#6395FB"/>
<path d="M33.6859 64.1324C33.6859 63.9083 33.6859 63.9419 33.6859 63.9778C33.6029 65.0042 30.5028 66.9159 29.5472 66.5282C28.5915 66.1405 28.2797 64.5627 29.1322 63.9173C29.9312 63.3106 30.8031 62.8062 31.7276 62.4157C32.7258 61.9989 33.7061 62.7945 33.6859 64.1324Z" fill="#6395FB"/>
<path d="M74.1104 22.1176C74.6061 20.997 75.1018 19.7151 76.2145 18.8477C76.7192 18.4555 77.363 18.6237 77.8565 19.0495C78.35 19.4753 78.6057 20.0961 78.2714 20.7416C77.8501 21.5665 77.3789 22.3651 76.8605 23.1328C76.4814 23.6842 75.9228 23.9531 75.2117 23.6842C74.5545 23.4354 74.1754 22.9984 74.1104 22.1176Z" fill="#6395FB"/>
<path d="M61.6118 16.6022C61.6118 17.0123 61.6319 17.4225 61.6118 17.8282C61.5624 18.7246 61.0487 19.1863 60.1851 19.2199C59.3215 19.2535 58.8056 18.7717 58.7293 17.9828C58.6384 16.9838 58.6384 15.9786 58.7293 14.9796C58.7966 14.2311 59.3395 13.7896 60.1111 13.7874C60.9321 13.7874 61.4391 14.2737 61.5781 15.0469C61.6701 15.5489 61.5961 16.0823 61.5961 16.6022H61.6118Z" fill="#6395FB"/>
<path d="M60.3011 52.8624C59.906 52.872 59.5132 52.8005 59.1467 52.6521C58.7803 52.5038 58.448 52.2818 58.1703 51.9999C57.8926 51.718 57.6754 51.382 57.532 51.0128C57.3887 50.6435 57.3222 50.2487 57.3367 49.8526C57.3581 49.5688 57.3091 49.2841 57.1942 49.0239C57.0793 48.7636 56.902 48.5359 56.6781 48.361C53.517 45.5432 50.3716 42.692 47.2211 39.8531C46.2604 38.9866 46.0655 38.3104 46.6099 37.7063C47.1543 37.1022 47.9534 37.2132 48.8929 38.0585C52.0751 40.9056 55.2562 43.7534 58.436 46.6016C58.7873 46.9204 59.1122 47.1529 59.5916 46.8922C59.6675 46.8466 59.757 46.8291 59.8445 46.8429C61.1757 47.2268 61.7429 46.2195 62.4436 45.434C65.7136 41.7662 68.9866 38.1008 72.2625 34.4377C72.3397 34.3514 72.417 34.2616 72.5013 34.1823C73.1124 33.5994 73.8184 33.5149 74.2996 33.9675C74.8265 34.4641 74.8511 35.2196 74.2996 35.8536C72.3309 38.0955 70.3412 40.3198 68.3655 42.5546C66.7849 44.3527 65.2043 46.1684 63.6062 47.9506C63.4099 48.1404 63.2669 48.3786 63.1916 48.6415C63.1164 48.9043 63.1116 49.1823 63.1777 49.4476C63.5167 51.1964 62.0994 52.843 60.3011 52.8624ZM60.9263 49.8297C60.9052 49.312 60.6488 49.0284 60.1676 49.0372C59.6864 49.046 59.4248 49.319 59.4336 49.8157C59.4423 50.2683 59.6864 50.5095 60.136 50.5201C60.6383 50.5536 60.8754 50.2665 60.9333 49.8297H60.9263Z" fill="#FEFEFE"/>
<circle cx="60.1238" cy="49.7938" r="0.767391" fill="#1B5BDD"/>
</svg>
