<svg width="54" height="51" viewBox="0 0 54 51" fill="none" xmlns="http://www.w3.org/2000/svg">
<path d="M0.00422509 45.3472C0.192345 45.2425 0.144788 45.0435 0.190232 44.8917C0.917348 42.4747 3.31746 41.0254 5.80001 41.5406C6.07902 41.5982 6.20373 41.5312 6.34957 41.3123C8.01729 38.799 9.69557 36.2931 11.395 33.7494C10.8232 33.053 10.3846 32.2833 10.2029 31.3733C9.58461 28.2809 12.2722 25.4242 15.4311 25.7582C17.6706 25.9959 19.6078 27.8599 19.7272 30.1701C19.7219 30.2554 19.7409 30.3405 19.782 30.4157C19.8231 30.4908 19.8847 30.5531 19.9597 30.5952C22.5667 32.1263 25.1736 33.6622 27.7805 35.2029C29.463 32.7232 32.9041 32.1891 35.2841 34.3547L41.2606 28.6558C39.8832 26.2891 38.5093 23.9274 37.1389 21.5705C36.9204 21.2131 36.6226 20.9097 36.2681 20.6835C33.7845 18.9776 32.1347 16.6905 31.4953 13.751C29.8043 5.99016 36.0736 -0.294102 43.2835 0.0106344C48.145 0.220075 52.4781 3.812 53.6766 8.64379C54.7619 13.0002 53.0615 17.7052 49.3889 20.34C48.6207 20.8868 47.9871 21.5985 47.5352 22.4218C46.4973 24.2743 45.4331 26.1122 44.3836 27.9594C44.1215 28.4213 43.8299 28.8422 43.312 29.0653C43.1763 29.1451 43.0552 29.2471 42.9537 29.3669C40.8284 31.3985 38.7104 33.4363 36.5746 35.4564C36.3177 35.7003 36.285 35.8867 36.398 36.2135C37.0459 38.0922 36.6232 39.774 35.2355 41.1531C33.8479 42.5323 32.1262 42.9051 30.2842 42.2674C28.4421 41.6296 27.3746 40.2777 27.0882 38.3487C27.0386 38.0199 26.9963 37.6859 27.0734 37.3612C27.1717 36.9476 27.0428 36.7183 26.6581 36.4962C24.2495 35.1066 21.861 33.6845 19.4229 32.2477C18.8828 33.5578 17.9433 34.4647 16.637 34.9485C16.0147 35.1908 15.3477 35.2997 14.6798 35.2679C14.012 35.2361 13.3585 35.0644 12.7626 34.7642L7.68966 42.3627C8.43686 42.9638 9.02553 43.6759 9.36055 44.5785C10.3836 47.3316 8.57214 50.4157 5.64148 50.8953C5.56856 50.9068 5.50515 50.9131 5.48718 51H5.17013C4.99469 50.8304 4.81925 50.8681 4.6417 51H4.00759C3.98434 50.8859 3.88394 50.9036 3.80362 50.8817C1.93193 50.3842 0.690126 49.2428 0.158528 47.3746C0.133164 47.2866 0.137391 47.1578 0 47.1337L0.00422509 45.3472ZM42.587 27.6191C42.8258 27.4966 42.904 27.3133 42.9949 27.1521C44.0159 25.3865 45.0695 23.6376 46.0366 21.8438C46.6464 20.7079 47.5148 19.7284 48.573 18.9828C53.35 15.5407 53.7125 8.17045 49.3392 4.23716C46.0979 1.3207 42.0649 0.788723 38.0679 2.75118C33.9958 4.75134 31.8832 9.61978 33.1852 13.9301C33.8658 16.1857 35.1531 17.989 37.1104 19.3158C37.8485 19.823 38.4528 20.4986 38.8722 21.2856C39.8022 22.9611 40.7607 24.6241 41.7193 26.285C41.9793 26.7332 42.1896 27.2159 42.587 27.6191ZM14.9111 33.5546C16.6824 33.5546 18.049 32.2331 18.0511 30.523C18.0541 30.1136 17.9754 29.7077 17.8195 29.3286C17.6636 28.9495 17.4335 28.6047 17.1426 28.314C16.8516 28.0234 16.5055 27.7927 16.1242 27.6351C15.7428 27.4776 15.3338 27.3963 14.9207 27.396C13.2434 27.3866 11.8177 28.8213 11.823 30.5115C11.8316 31.3188 12.1603 32.0905 12.738 32.6598C13.3158 33.2292 14.0963 33.5506 14.9111 33.5546ZM28.7739 37.7759C28.7475 39.4389 30.1658 40.8337 31.8948 40.8463C33.5858 40.8589 34.9787 39.463 34.9924 37.7393C35.0051 36.1266 33.6312 34.7149 32.0163 34.6814C30.1732 34.6479 28.8035 35.9559 28.7739 37.7801V37.7759ZM4.889 43.1324C4.47969 43.1239 4.07271 43.1954 3.6913 43.3428C3.30989 43.4902 2.96153 43.7107 2.66612 43.9915C2.37071 44.2724 2.13403 44.6081 1.96961 44.9796C1.80519 45.3511 1.71625 45.7511 1.70787 46.1567C1.67194 47.8176 3.07227 49.2365 4.80235 49.292C6.45104 49.3444 7.89893 47.9453 7.93275 46.2666C7.9453 45.8616 7.87594 45.4582 7.72874 45.0802C7.58154 44.7022 7.35948 44.3572 7.07564 44.0655C6.7918 43.7738 6.45192 43.5413 6.07603 43.3818C5.70013 43.2222 5.29581 43.1389 4.88689 43.1365L4.889 43.1324Z" fill="#030303"/>
<path d="M42.9823 28C42.5768 27.5819 42.3622 27.0813 42.0991 26.6165C41.121 24.8941 40.1428 23.1706 39.1938 21.432C38.7664 20.6146 38.1497 19.9128 37.3961 19.386C35.3989 18.01 34.0854 16.14 33.3909 13.8008C32.0623 9.33084 34.2181 4.2821 38.3732 2.20787C42.4517 0.172732 46.5691 0.724406 49.8744 3.74887C54.3369 7.82783 53.9724 15.471 49.0926 19.0406C48.0128 19.8138 47.1266 20.8296 46.5044 22.0075C45.5176 23.8678 44.4425 25.6814 43.4007 27.5124C43.3037 27.6829 43.226 27.8729 42.9823 28ZM43.1171 19.1883C43.5759 19.1981 44.0343 19.1551 44.4834 19.0602C45.883 18.8013 47.1884 18.1703 48.2643 17.2324C48.6763 16.873 48.7334 16.3637 48.4347 15.9825C48.136 15.6013 47.6399 15.5731 47.1849 15.8913C47.0522 15.9836 46.9282 16.0878 46.7988 16.1856C45.8542 16.9163 44.7163 17.35 43.528 17.4323C39.3534 17.7092 36.1376 14.2069 36.7825 10.0476C37.1664 7.57154 38.6158 5.86871 40.9441 5.05205C43.3263 4.21367 45.5489 4.67957 47.3628 6.44647C49.2985 8.33282 49.8226 10.6503 48.9632 13.2458C48.7022 14.0342 48.8294 14.511 49.387 14.6967C49.9445 14.8824 50.3392 14.5881 50.6077 13.8051C52.6146 7.98096 47.93 2.20024 41.8726 3.02885C37.6312 3.60985 34.6699 7.37279 34.9482 11.8253C35.2027 15.8576 38.8293 19.1818 43.1171 19.1883Z" fill="#F3D290"/>
<path d="M14.975 34C14.1911 33.9954 13.44 33.6307 12.8836 32.9844C12.3272 32.3382 12.0099 31.4621 12 30.5447C11.9949 28.6217 13.3684 26.9893 14.9842 27.0001C15.3822 27.0004 15.7762 27.0928 16.1436 27.272C16.511 27.4513 16.8444 27.7138 17.1247 28.0445C17.405 28.3752 17.6267 28.7675 17.7769 29.1989C17.9271 29.6302 18.0029 30.0921 17.9999 30.5578C17.9979 32.5011 16.6814 34 14.975 34Z" fill="#D4910B"/>
<path d="M29.0004 38.0121C29.0289 36.2369 30.3504 34.9641 32.1286 35.0008C33.6866 35.0334 35.0122 36.4071 34.9999 37.9764C34.9867 39.6538 33.6438 41.0121 32.0114 40.9999C30.3432 40.9877 28.9749 39.6303 29.0004 38.0121Z" fill="#D4910B"/>
<path d="M5.06576 43.0008C5.45995 43.0037 5.84964 43.0988 6.21186 43.2805C6.57409 43.4622 6.90152 43.7267 7.17484 44.0586C7.44817 44.3904 7.66186 44.7828 7.80331 45.2127C7.94477 45.6425 8.01113 46.1011 7.99848 46.5614C7.96589 48.4649 6.57285 50.0579 4.98226 49.9984C3.31529 49.9353 1.96603 48.3233 2.00065 46.4365C2.00873 45.9758 2.09442 45.5214 2.25284 45.0994C2.41126 44.6773 2.63931 44.2958 2.92395 43.9768C3.20858 43.6577 3.54424 43.4073 3.91174 43.2399C4.27924 43.0724 4.67138 42.9911 5.06576 43.0008Z" fill="#D4910B"/>
<path d="M43.1099 18.9989C38.8614 18.9925 35.2679 15.7181 35.0179 11.7431C34.7422 7.35726 37.6764 3.64857 41.8789 3.07842C47.8787 2.26223 52.5204 7.95629 50.534 13.6931C50.2679 14.4601 49.8683 14.75 49.3244 14.5714C48.7805 14.3927 48.6459 13.9188 48.9045 13.1422C49.7593 10.5856 49.2368 8.30288 47.3188 6.44479C45.5215 4.70437 43.3193 4.24546 40.9589 5.07127C38.6477 5.87997 37.2191 7.55728 36.8355 9.99194C36.1944 14.09 39.3828 17.5398 43.5191 17.266C44.6966 17.185 45.824 16.7578 46.7599 16.0379C46.8882 15.9417 47.0111 15.839 47.1425 15.7481C47.5934 15.4346 48.0956 15.4721 48.3809 15.8379C48.6662 16.2037 48.6203 16.7151 48.2121 17.0691C47.146 17.9929 45.8526 18.6145 44.4658 18.8695C44.0202 18.9642 43.5653 19.0077 43.1099 18.9989Z" fill="#030303"/>
</svg>
