<svg width="53" height="50" viewBox="0 0 53 50" fill="none" xmlns="http://www.w3.org/2000/svg">
<path d="M35.0988 38.425C35.5533 38.107 35.8695 37.632 36.3461 37.3369C36.5037 37.2391 36.6473 37.1228 36.8367 37.091C37.1758 37.5219 37.5766 37.4875 38.054 37.3219C38.7019 37.0946 39.3885 36.9979 40.074 37.0373C40.7595 37.0767 41.4304 37.2514 42.048 37.5514C42.6657 37.8515 43.2179 38.2709 43.6727 38.7854C44.1275 39.2999 44.476 39.8994 44.6981 40.5494C45.6318 43.2455 44.1793 46.2025 41.454 47.1497C40.4612 47.4885 39.3893 47.5202 38.3782 47.2406C37.3671 46.9609 36.4637 46.383 35.7858 45.5822C35.11 44.7798 34.6933 43.7912 34.5908 42.747C34.4882 41.7028 34.7047 40.6521 35.2115 39.7335C35.4881 39.2418 35.5251 38.8286 35.0988 38.425ZM39.7892 45.1117C41.3862 45.1011 42.6854 43.79 42.666 42.2102C42.6536 41.4445 42.3411 40.7143 41.7958 40.1768C41.2505 39.6393 40.516 39.3374 39.7505 39.3361C38.9848 39.3456 38.2537 39.657 37.7162 40.2026C37.1787 40.7482 36.8782 41.4839 36.8798 42.2499C36.8826 42.629 36.9601 43.0039 37.1079 43.353C37.2557 43.7021 37.4708 44.0186 37.7411 44.2845C38.0113 44.5503 38.3313 44.7602 38.6828 44.9021C39.0342 45.0441 39.4102 45.1153 39.7892 45.1117Z" fill="#FDFDFD"/>
<path d="M0.933594 36.0893C1.3467 35.2901 1.93158 34.75 2.89168 34.8108C3.01324 34.6205 2.95775 34.4319 2.95775 34.2548C2.95775 30.6335 2.97096 27.0122 2.95775 23.3909C2.95158 21.893 3.41227 20.5934 4.40409 19.4664C6.07239 17.5703 7.73128 15.666 9.38078 13.7534C10.3338 12.6512 11.5309 12.1331 12.9825 12.141C15.2876 12.1533 17.5928 12.141 19.9596 12.141C19.9596 11.0837 19.9596 10.0422 19.9596 9.00516C19.9478 8.66827 19.9894 8.33163 20.0829 8.00775C20.2248 7.5636 20.5022 7.17506 20.8762 6.89662C21.2501 6.61819 21.7018 6.46385 22.1678 6.45526C22.9606 6.43764 23.7533 6.43059 24.5461 6.45526C24.8782 6.46671 25.0464 6.35129 25.2199 6.07463C26.949 3.30886 29.3986 1.50878 32.5625 0.714906C37.519 -0.529206 42.819 1.63565 45.4993 5.99004C45.709 6.33015 45.9265 6.47905 46.3335 6.45614C46.9879 6.41913 47.6459 6.44469 48.303 6.44645C49.8709 6.44645 50.7826 7.35486 50.7835 8.91353C50.7835 14.1014 50.7835 19.2893 50.7835 24.4773V34.757C50.9261 34.7844 51.053 34.8099 51.1807 34.8328C52.088 34.9949 52.6852 35.6637 52.6922 36.5774C52.7057 38.1264 52.7057 39.6759 52.6922 41.2261C52.6945 41.4543 52.6515 41.6807 52.5655 41.8922C52.4796 42.1036 52.3525 42.2959 52.1916 42.4577C52.0307 42.6195 51.8392 42.7478 51.6283 42.8349C51.4174 42.9221 51.1913 42.9664 50.9631 42.9654C49.6498 42.9856 48.3356 42.9706 47.0223 42.975C46.8408 42.975 46.6523 42.9319 46.4638 43.0262C46.3661 43.5645 46.2595 44.1064 46.0525 44.6227C45.7882 45.2915 45.4218 45.5355 44.9453 45.3461C44.489 45.1699 44.3816 44.7478 44.6238 44.0976C45.4535 41.8666 44.7621 39.4656 42.8824 38.0497C42.0071 37.3949 40.9474 37.0334 39.8545 37.0168C38.7617 37.0002 37.6915 37.3293 36.7967 37.9572C35.8921 38.588 35.2113 39.49 34.8526 40.533C34.4938 41.576 34.4757 42.7061 34.8007 43.7601C35.1233 44.7953 35.7609 45.704 36.6244 46.3595C37.488 47.015 38.5345 47.3845 39.618 47.4167C40.4961 47.4447 41.3672 47.2518 42.1513 46.8554C42.7679 46.5488 43.1792 46.6246 43.4047 47.0801C43.6302 47.5356 43.4258 47.911 42.8172 48.2185C42.0373 48.6184 41.1852 48.8581 40.3112 48.9233C40.2231 48.9304 40.1025 48.8811 40.0611 49.0212H39.2525C39.0948 48.8256 38.8552 48.8881 38.657 48.8529C36.6936 48.5004 35.1839 47.4704 34.0952 45.8131C33.5332 44.9584 33.2346 44.0007 33.0822 42.9936H19.8768C19.8416 43.1592 19.8107 43.3055 19.779 43.4517C19.1624 46.2633 17.4413 48.0229 14.6702 48.7789C14.2756 48.8872 13.851 48.8344 13.4731 49.0185H12.6645C12.506 48.8238 12.2664 48.8863 12.0682 48.852C10.5438 48.601 9.15429 47.8272 8.13793 46.6633C7.20337 45.6192 6.68103 44.3813 6.48372 42.9724C5.23558 42.9724 4.00858 42.9662 2.78422 42.9724C2.07956 42.9777 1.55899 42.6816 1.18111 42.1001C1.10184 41.9785 1.10536 41.8032 0.941529 41.7389L0.933594 36.0893ZM10.2361 37.0911C10.0714 36.4514 10.2246 36.1509 10.8342 35.9201C13.3815 34.9509 16.4098 35.7192 18.2032 37.781C19.1024 38.8091 19.6782 40.0799 19.8583 41.434H33.0602C33.557 37.9378 36.4162 35.6029 39.566 35.5095C40.9916 35.4556 42.3955 35.8709 43.5624 36.6919C45.2245 37.8479 46.1573 39.4621 46.4691 41.4613C47.9225 41.4613 49.3362 41.4525 50.75 41.4666C51.1428 41.4666 51.1781 41.2604 51.1754 40.9529C51.1684 39.589 51.1569 38.2215 51.1816 36.8602C51.1886 36.4197 51.0054 36.3192 50.6082 36.3245C49.4296 36.3386 48.2493 36.2946 47.0725 36.336C46.2718 36.3633 45.6376 36.1395 45.0017 35.6249C43.4878 34.4006 41.5936 33.7443 39.6471 33.7697C37.7005 33.7951 35.8241 34.5007 34.3427 35.7641C33.913 36.1443 33.3553 36.3473 32.7819 36.3324C28.5715 36.3184 24.3608 36.3184 20.1498 36.3324C19.5767 36.345 19.0196 36.1433 18.5872 35.7668C15.3546 33.0909 10.909 33.1103 7.69575 35.8064C7.30565 36.1583 6.7957 36.3475 6.27057 36.3351C5.15984 36.3148 4.04734 36.3289 2.93572 36.3289C2.68821 36.3289 2.44598 36.3342 2.44598 36.6814C2.44598 38.1634 2.44598 39.6457 2.44598 41.1283C2.44598 41.3573 2.55257 41.4666 2.78422 41.4657C4.01034 41.4657 5.23735 41.4657 6.46523 41.4657C6.60704 40.5679 6.84486 39.7502 7.27383 38.9987C7.62616 38.3819 7.81731 38.2938 8.49291 38.4356C8.91923 38.8392 8.87695 39.2524 8.60566 39.7441C8.09843 40.6625 7.88168 41.7133 7.98406 42.7575C8.08644 43.8018 8.50313 44.7904 9.17907 45.5928C9.85693 46.3936 10.7603 46.9716 11.7714 47.2512C12.7825 47.5308 13.8544 47.4991 14.8472 47.1603C17.5725 46.2131 19.025 43.2561 18.0913 40.56C17.8694 39.91 17.5209 39.3104 17.0661 38.7958C16.6113 38.2812 16.0591 37.8618 15.4414 37.5617C14.8237 37.2617 14.1528 37.0869 13.4672 37.0476C12.7817 37.0082 12.0951 37.1051 11.4472 37.3325C10.976 37.4876 10.5752 37.5219 10.2361 37.0911ZM28.1311 21.619C28.7477 21.3458 28.9784 21.4022 29.3642 21.9573C30.4344 23.4904 31.5487 24.9909 32.7273 26.4412C33.5834 27.4986 34.4634 28.5286 35.3962 29.6476C35.4616 29.539 35.5328 29.434 35.6093 29.333C37.3507 27.3197 39.0296 25.2562 40.5799 23.0904C42.2957 20.6921 43.9077 18.2329 45.0492 15.4953C45.6834 13.9719 45.9556 12.4115 45.6922 10.7594C45.0175 6.53016 41.8544 3.10532 37.6996 2.15021C35.6578 1.68103 33.522 1.83995 31.5722 2.60614C29.6223 3.37232 27.9494 4.71 26.7728 6.4438C25.2922 8.62981 24.5963 11.0431 25.1248 13.6776C25.485 15.476 26.3712 17.0787 27.2687 18.6629C27.592 19.233 27.5585 19.4339 27.1067 19.9105C26.4839 20.0603 26.2804 19.9713 25.9554 19.4101C25.4231 18.4946 24.9406 17.551 24.51 16.5835C23.6371 14.6231 23.1817 12.6027 23.5719 10.4449C23.7324 9.62446 23.9451 8.81514 24.2087 8.02185C24.1671 8.00095 24.123 7.98527 24.0775 7.97515C23.556 7.97515 23.0337 7.96811 22.5114 7.96987C21.6975 7.96987 21.472 8.19808 21.472 9.02719C21.472 17.4652 21.4743 25.9029 21.479 34.3403C21.479 34.4848 21.4244 34.6443 21.5574 34.7808C21.6204 34.7915 21.6839 34.7983 21.7477 34.8011C25.436 34.8011 29.1244 34.8032 32.8127 34.8073C33.054 34.8073 33.2188 34.7103 33.3949 34.5685C37.2468 31.4705 42.3151 31.4846 46.1723 34.5958C46.2894 34.691 46.3881 34.8037 46.5599 34.8029C47.446 34.8029 48.3321 34.8029 49.2534 34.8029V8.98665C49.2606 8.85194 49.2552 8.71686 49.2376 8.58311C49.1786 8.27561 48.9883 8.0201 48.6835 8.00424C47.9789 7.96547 47.2636 7.9919 46.5105 7.9919C46.9872 9.22196 47.2598 10.5217 47.3174 11.8397C47.4055 13.8221 46.7351 15.6187 45.8781 17.3439C43.4214 22.2833 40.0188 26.5602 36.4188 30.6925C35.8146 31.3868 34.88 31.3366 34.2546 30.622C32.0622 28.1329 30.0102 25.5235 28.1082 22.8058C27.8184 22.3829 27.7928 22.0084 28.1311 21.619ZM4.50097 34.7844C4.96428 34.7844 5.38181 34.7562 5.79756 34.7923C6.27938 34.8337 6.65373 34.6839 7.03689 34.3852C10.532 31.6617 15.1908 31.5313 18.84 34.0381C19.1792 34.2716 19.5051 34.5253 19.905 34.8196V13.6961H17.5029V14.334C17.5029 17.7022 17.5029 21.0706 17.5029 24.4394C17.5029 25.5548 17.0625 25.9892 15.9359 25.9901C12.3316 25.9901 8.72721 25.9901 5.12284 25.9901C4.92553 25.9901 4.72119 25.9452 4.51155 26.0456V27.6078C5.35715 27.6078 6.16486 27.5902 6.97083 27.6078C7.95383 27.6342 8.70959 28.0854 9.05223 29.0176C9.39488 29.9498 9.35612 30.8679 8.65762 31.6714C8.18021 32.2177 7.56274 32.4318 6.85984 32.4389C6.07766 32.4468 5.29459 32.4389 4.49656 32.4389L4.50097 34.7844ZM15.9624 24.4447V13.6688C14.9001 13.6688 13.8598 13.6688 12.8196 13.6688C12.3887 13.6626 11.9619 13.7533 11.5708 13.9344C11.1797 14.1154 10.8343 14.3821 10.5602 14.7147C8.97472 16.5474 7.41917 18.4153 5.77113 20.1898C4.62605 21.4234 4.33714 22.8331 4.52651 24.4447H15.9624ZM4.50626 30.8996C5.36859 30.8996 6.20362 30.9251 7.03689 30.8899C7.51694 30.8696 7.71777 30.5586 7.71601 30.0088C7.71424 29.459 7.49316 29.1568 7.02016 29.1409C6.18777 29.1118 5.35362 29.133 4.50626 29.133V30.8996Z" fill="#030303"/>
<path d="M39.7805 45.1127C39.4016 45.1159 39.0259 45.0441 38.6749 44.9015C38.3238 44.7588 38.0045 44.5481 37.7353 44.2814C37.4661 44.0147 37.2523 43.6974 37.1063 43.3477C36.9602 42.998 36.8848 42.6228 36.8843 42.2438C36.8803 41.478 37.1801 40.7418 37.7179 40.1968C38.2557 39.6517 38.9876 39.3422 39.7532 39.3362C40.5181 39.3402 41.251 39.6442 41.7945 40.1827C42.3379 40.7212 42.6487 41.4514 42.6599 42.2165C42.6606 42.9821 42.358 43.7167 41.8183 44.2596C41.2786 44.8024 40.5458 45.1092 39.7805 45.1127ZM39.7646 43.5743C40.5037 43.5743 41.1352 42.9698 41.1396 42.2526C41.1449 41.5072 40.4931 40.8429 39.7682 40.8534C39.5913 40.8523 39.416 40.8861 39.2523 40.953C39.0886 41.0198 38.9397 41.1184 38.8142 41.243C38.6887 41.3677 38.5891 41.5159 38.521 41.6792C38.453 41.8424 38.418 42.0176 38.4178 42.1945C38.4099 42.375 38.439 42.5553 38.5034 42.7242C38.5678 42.893 38.6662 43.0469 38.7924 43.1762C38.9187 43.3055 39.0701 43.4076 39.2373 43.476C39.4045 43.5445 39.584 43.5779 39.7646 43.5743Z" fill="#030303"/>
<path d="M28.1322 21.619C27.7939 22.0084 27.8195 22.3829 28.1119 22.8049C30.0139 25.5226 32.0659 28.132 34.2584 30.6212C34.8838 31.3357 35.8183 31.386 36.4226 30.6917C40.0226 26.5593 43.4252 22.2824 45.8819 17.343C46.7389 15.6178 47.4127 13.8186 47.3211 11.8388C47.2635 10.5208 46.991 9.22108 46.5143 7.99102C47.2674 7.99102 47.9791 7.96459 48.6873 8.00336C48.9921 8.01922 49.1823 8.27473 49.2414 8.58224C49.259 8.71598 49.2643 8.85107 49.2572 8.98579V34.802C48.3359 34.802 47.4497 34.802 46.5636 34.802C46.3874 34.802 46.2932 34.6901 46.176 34.5949C42.3189 31.482 37.2506 31.4697 33.3987 34.5676C33.2225 34.7095 33.0578 34.8073 32.8165 34.8064C29.1281 34.7993 25.4398 34.7973 21.7514 34.8002C21.6877 34.7974 21.6241 34.7906 21.5612 34.78C21.4282 34.6434 21.4828 34.4839 21.4828 34.3394C21.4781 25.902 21.4757 17.4643 21.4757 9.02631C21.4757 8.1972 21.7012 7.96899 22.5151 7.96899C23.0375 7.96899 23.5598 7.96899 24.0812 7.97428C24.1267 7.98439 24.1708 8.00008 24.2125 8.02098C23.9488 8.81426 23.7361 9.62358 23.5756 10.444C23.1854 12.6018 23.6408 14.6222 24.5137 16.5826C24.9444 17.5501 25.4269 18.4937 25.9592 19.4092C26.2842 19.9704 26.4877 20.0594 27.1104 19.9096C27.4733 20.4683 27.8829 20.9969 28.1322 21.619Z" fill="#EDC67A"/>
<path d="M28.1311 21.6191C27.8818 20.9944 27.474 20.4657 27.1093 19.9106C27.5612 19.4339 27.5947 19.233 27.2714 18.663C26.3738 17.077 25.4877 15.476 25.1275 13.6777C24.599 11.0432 25.2948 8.6299 26.7755 6.44389C27.9521 4.71009 29.625 3.37241 31.5748 2.60623C33.5247 1.84004 35.6605 1.68112 37.7022 2.1503C41.8571 3.10541 45.0202 6.52761 45.6949 10.7595C45.9592 12.4116 45.6861 13.972 45.0519 15.4954C43.9068 18.233 42.2984 20.6939 40.5825 23.0905C39.0323 25.2562 37.3534 27.3198 35.612 29.3331C35.5355 29.4341 35.4643 29.5391 35.3988 29.6476C34.466 28.5286 33.5861 27.4951 32.7299 26.4413C31.5514 24.991 30.4398 23.4905 29.3669 21.9574C28.9785 21.4023 28.7459 21.3495 28.1311 21.6191ZM35.3707 17.0946C36.8097 17.0949 38.1905 16.5259 39.2117 15.5117C40.233 14.4976 40.8119 13.1206 40.8221 11.6812C40.845 8.70744 38.4086 6.25181 35.4085 6.2245C32.4084 6.19719 29.9386 8.66162 29.9386 11.6688C29.9421 13.1081 30.5157 14.4874 31.5339 15.5044C32.5521 16.5214 33.9318 17.0932 35.3707 17.0946Z" fill="#F4A70F"/>
<path d="M8.49809 38.4251C7.82249 38.2789 7.62783 38.3732 7.27902 38.9882C6.85006 39.7441 6.61223 40.5618 6.47041 41.4552C5.24077 41.4552 4.01378 41.4552 2.78942 41.4552C2.55776 41.4552 2.45117 41.3469 2.45117 41.1178C2.45117 39.6346 2.45117 38.1523 2.45117 36.6709C2.45117 36.3246 2.69341 36.3184 2.94092 36.3184C4.05253 36.3184 5.16502 36.3043 6.27575 36.3246C6.80089 36.337 7.31084 36.1478 7.70094 35.7959C10.9142 33.0998 15.3642 33.0804 18.5924 35.7563C19.0247 36.1329 19.5819 36.3346 20.155 36.322C24.3654 36.3079 28.5761 36.3079 32.7871 36.322C33.3605 36.3369 33.9182 36.1338 34.3479 35.7537C35.8298 34.4933 37.7053 33.7904 39.6503 33.7666C41.5953 33.7428 43.4875 34.3995 44.9998 35.6232C45.6358 36.1378 46.27 36.3616 47.0707 36.3343C48.2474 36.2929 49.4278 36.3343 50.6063 36.3228C51.0009 36.3175 51.1868 36.411 51.1797 36.8586C51.1551 38.2225 51.1665 39.59 51.1736 40.9513C51.1736 41.2588 51.141 41.4685 50.7481 41.4649C49.3388 41.4508 47.9207 41.4596 46.4673 41.4596C46.1581 39.4604 45.2253 37.8471 43.5605 36.6903C42.3937 35.8693 40.9898 35.4539 39.5642 35.5078C36.4143 35.6012 33.5552 37.9361 33.0584 41.4323H19.8564C19.6763 40.0782 19.1005 38.8074 18.2014 37.7793C16.408 35.7175 13.3797 34.9501 10.8323 35.9184C10.2228 36.1493 10.0695 36.4471 10.2342 37.0894C10.0457 37.1211 9.90126 37.2374 9.74447 37.3352C9.26794 37.6313 8.95172 38.1071 8.49809 38.4251Z" fill="#F4A70F"/>
<path d="M4.50146 34.7844V32.4433C5.2995 32.4433 6.08697 32.4495 6.86475 32.4433C7.56941 32.4363 8.18599 32.2221 8.66252 31.6759C9.36102 30.8741 9.3989 29.9489 9.05714 29.022C8.71538 28.0951 7.95874 27.6431 6.97573 27.6122C6.16977 27.5902 5.36203 27.6122 4.51643 27.6122V26.05C4.72607 25.9496 4.93044 25.9945 5.12775 25.9945C8.73211 25.991 12.3365 25.991 15.9408 25.9945C17.0683 25.9945 17.507 25.5593 17.5078 24.4438C17.5078 21.0751 17.5078 17.7066 17.5078 14.3385V13.7006H19.9099V34.824C19.51 34.5298 19.1841 34.276 18.845 34.0425C15.1913 31.5358 10.5325 31.6635 7.04179 34.3897C6.65863 34.6883 6.28427 34.8381 5.80246 34.7967C5.38406 34.7562 4.96478 34.7844 4.50146 34.7844ZM12.687 27.6942C12.3506 27.6942 12.0141 27.6827 11.6776 27.6942C11.2372 27.7127 10.9932 27.9832 10.9589 28.3991C10.9236 28.829 11.1773 29.1489 11.5878 29.1788C12.3096 29.2255 13.0337 29.2255 13.7555 29.1788C14.1774 29.155 14.4364 28.7682 14.3915 28.3559C14.343 27.9153 14.077 27.7039 13.6463 27.6924C13.3274 27.6871 13.0068 27.6933 12.687 27.6933V27.6942Z" fill="#1A3875"/>
<path d="M15.9619 24.4446H4.5269C4.33752 22.834 4.62467 21.426 5.77151 20.1898C7.41955 18.4126 8.97246 16.5473 10.5606 14.7147C10.8347 14.3823 11.18 14.1159 11.5709 13.935C11.9618 13.7541 12.3884 13.6634 12.8191 13.6697C13.8593 13.6697 14.8996 13.6697 15.9619 13.6697V24.4446Z" fill="#FDFDFD"/>
<path d="M8.49942 38.4251C8.95305 38.1071 9.26927 37.6322 9.74668 37.337C9.90347 37.2392 10.0479 37.1229 10.2364 37.0912C10.5755 37.522 10.9763 37.4877 11.4537 37.322C12.1017 37.0946 12.7882 36.9978 13.4737 37.0371C14.1593 37.0764 14.8302 37.2512 15.4479 37.5512C16.0656 37.8513 16.6178 38.2707 17.0726 38.7853C17.5274 39.2999 17.8759 39.8995 18.0979 40.5495C19.0315 43.2456 17.579 46.2026 14.8537 47.1498C13.8609 47.4886 12.789 47.5203 11.7779 47.2407C10.7668 46.9611 9.86345 46.3832 9.18559 45.5823C8.50965 44.7799 8.09296 43.7913 7.99057 42.7471C7.88819 41.7028 8.10494 40.652 8.61217 39.7336C8.88699 39.2419 8.92574 38.8287 8.49942 38.4251ZM13.189 45.1118C14.7859 45.1012 16.0852 43.7902 16.0658 42.2103C16.0533 41.4446 15.7408 40.7144 15.1955 40.1769C14.6503 39.6394 13.9158 39.3375 13.1502 39.3362C12.3845 39.3457 11.6535 39.6571 11.116 40.2027C10.5785 40.7483 10.2779 41.484 10.2796 42.25C10.2824 42.6291 10.3598 43.004 10.5076 43.3531C10.6554 43.7022 10.8706 44.0187 11.1408 44.2846C11.4111 44.5504 11.7311 44.7603 12.0825 44.9022C12.434 45.0442 12.81 45.1154 13.189 45.1118Z" fill="#FDFDFD"/>
<path d="M4.50586 30.8996V29.1374C5.35322 29.1374 6.18737 29.1162 7.01976 29.1453C7.49277 29.1612 7.71385 29.4766 7.71561 30.0132C7.71737 30.5498 7.51654 30.8731 7.03649 30.8943C6.20322 30.9251 5.36819 30.8996 4.50586 30.8996Z" fill="#FFF7E9"/>
<path d="M39.7637 43.5743C39.5829 43.578 39.4034 43.5445 39.2361 43.476C39.0688 43.4075 38.9174 43.3053 38.7911 43.1759C38.6649 43.0465 38.5665 42.8925 38.5021 42.7236C38.4378 42.5546 38.4087 42.3742 38.4169 42.1936C38.417 42.0167 38.452 41.8416 38.5201 41.6783C38.5881 41.515 38.6877 41.3668 38.8132 41.2422C38.9387 41.1175 39.0876 41.0189 39.2513 40.9521C39.415 40.8852 39.5903 40.8514 39.7672 40.8526C40.4921 40.8411 41.1439 41.5063 41.1386 42.2517C41.1342 42.9698 40.5027 43.5769 39.7637 43.5743Z" fill="#1A3875"/>
<path d="M35.3704 17.0945C33.932 17.0924 32.553 16.5203 31.5353 15.5033C30.5177 14.4864 29.9444 13.1076 29.9409 11.6687C29.9409 8.65799 32.4072 6.19796 35.4082 6.22439C38.4092 6.25083 40.8448 8.70733 40.8219 11.681C40.8116 13.1205 40.2327 14.4975 39.2114 15.5116C38.1902 16.5258 36.8094 17.0948 35.3704 17.0945ZM35.3704 7.74517C34.3335 7.74423 33.3386 8.15476 32.6039 8.88667C31.8692 9.61859 31.4548 10.6121 31.4515 11.6493C31.4483 12.6867 31.8567 13.6831 32.5871 14.4195C33.3176 15.156 34.3104 15.5724 35.3475 15.5773C35.8652 15.5803 36.3784 15.4808 36.8576 15.2846C37.3367 15.0883 37.7723 14.7992 38.1392 14.4339C38.5062 14.0685 38.7973 13.6342 38.9957 13.1558C39.1941 12.6775 39.2959 12.1646 39.2954 11.6467C39.2909 10.6098 38.8758 9.61693 38.1409 8.88563C37.4061 8.15433 36.4114 7.74423 35.3748 7.74517H35.3704Z" fill="#030303"/>
<path d="M12.6865 27.6933C13.0063 27.6933 13.3269 27.6862 13.6458 27.6933C14.0765 27.7047 14.3425 27.9171 14.3909 28.3568C14.4359 28.7691 14.1769 29.1559 13.755 29.1797C13.0332 29.2264 12.3091 29.2264 11.5872 29.1797C11.1768 29.1497 10.9231 28.8273 10.9583 28.3999C10.9927 27.9876 11.2367 27.7171 11.6771 27.695C12.0136 27.6809 12.35 27.695 12.6865 27.695V27.6933Z" fill="#030303"/>
<path d="M13.1885 45.1118C12.8097 45.115 12.434 45.0436 12.0829 44.9015C11.7317 44.7594 11.412 44.5494 11.1421 44.2836C10.8721 44.0178 10.6572 43.7014 10.5095 43.3525C10.3619 43.0035 10.2845 42.6289 10.2817 42.25C10.2801 41.484 10.5806 40.7483 11.1181 40.2027C11.6556 39.6571 12.3867 39.3457 13.1524 39.3362C13.918 39.3375 14.6524 39.6394 15.1977 40.1769C15.743 40.7144 16.0555 41.4446 16.0679 42.2103C16.0847 43.7901 14.7881 45.1012 13.1885 45.1118ZM13.1709 43.5743C13.9081 43.5743 14.5362 42.9575 14.5353 42.2473C14.5353 41.509 13.8861 40.8499 13.1638 40.8517C12.3958 40.8517 11.8206 41.4552 11.8258 42.25C11.8255 42.4258 11.8602 42.5999 11.9279 42.7621C11.9956 42.9243 12.095 43.0714 12.2203 43.1948C12.3455 43.3181 12.4941 43.4152 12.6573 43.4803C12.8206 43.5455 12.9952 43.5774 13.1709 43.5743Z" fill="#030303"/>
<path d="M35.3754 7.74519C36.4127 7.74308 37.4086 8.15266 38.1444 8.88409C38.8802 9.61551 39.296 10.609 39.3004 11.6467C39.301 12.1646 39.1991 12.6775 39.0007 13.1558C38.8023 13.6342 38.5112 14.0686 38.1443 14.4339C37.7773 14.7992 37.3417 15.0884 36.8626 15.2846C36.3834 15.4808 35.8702 15.5803 35.3525 15.5773C34.3154 15.5724 33.3226 15.156 32.5922 14.4195C31.8617 13.6831 31.4533 12.6868 31.4566 11.6493C31.4598 10.6122 31.8743 9.61861 32.6089 8.88669C33.3436 8.15477 34.3385 7.74425 35.3754 7.74519Z" fill="#FDFDFD"/>
<path d="M13.1717 43.5742C12.9962 43.5774 12.8219 43.5455 12.6588 43.4805C12.4957 43.4155 12.3473 43.3187 12.222 43.1956C12.0968 43.0726 11.9974 42.9258 11.9295 42.7639C11.8616 42.602 11.8267 42.4281 11.8267 42.2526C11.8214 41.4596 12.3966 40.8569 13.1647 40.8542C13.887 40.8542 14.5353 41.5115 14.5361 42.2499C14.537 42.9618 13.9081 43.5724 13.1717 43.5742Z" fill="#1A3875"/>
</svg>
