<svg width="27" height="27" viewBox="0 0 27 27" fill="none" xmlns="http://www.w3.org/2000/svg">
<path d="M13.2471 26.6503C20.5266 26.6503 26.4278 20.7846 26.4278 13.5488C26.4278 6.31302 20.5266 0.447266 13.2471 0.447266C5.9676 0.447266 0.0664062 6.31302 0.0664062 13.5488C0.0664062 20.7846 5.9676 26.6503 13.2471 26.6503Z" fill="#0C2455"/>
<path d="M19.5567 8.86521C19.8145 8.78763 19.9044 9.01802 20.0297 9.14497C21.556 10.6464 23.0775 12.1518 24.5944 13.661C25.0295 14.0936 25.4647 14.5285 25.9046 14.9564C26.0063 15.0551 26.0796 15.2056 26.2523 15.215C26.2361 15.9919 26.0849 16.7602 25.8053 17.4859C24.022 22.6187 20.4302 25.66 15.0299 26.6098C14.8509 26.6568 14.6626 26.6568 14.4836 26.6098C14.4718 26.4005 14.2896 26.3088 14.1666 26.1866C12.1634 24.2048 8.38399 19.8251 6.36184 17.8503C6.28379 17.7727 8.08836 17.9303 8.03869 17.8503C8.58503 18.1606 9.3324 16.9358 9.96152 16.9358C12.1492 16.9358 14.1714 17.7563 16.3591 17.7469C18.4096 17.7469 19.876 18.9411 19.8784 16.9029C19.8807 14.8647 19.8784 12.7983 19.8784 10.7459C19.9071 10.1034 19.7974 9.4622 19.5567 8.86521V8.86521Z" fill="#0C2455"/>
<path d="M14.9155 18.7627H13.6313C13.612 18.7567 13.5922 18.7528 13.5722 18.7509C13.532 18.7486 13.4917 18.7486 13.4515 18.7509L12.347 18.7298H11.7983L10.6938 18.711L10.0482 18.6992H9.17309C8.96496 18.6992 8.7592 18.6851 8.55107 18.671C8.30694 18.6592 8.06371 18.6333 7.82261 18.5934C7.65233 18.5652 7.47968 18.5347 7.31176 18.4923C7.00457 18.4139 6.72585 18.2509 6.50762 18.0222C6.33362 17.8388 6.19638 17.6242 6.1032 17.3898C5.97622 17.0694 5.88962 16.7345 5.8454 16.393C5.79336 16.038 5.76261 15.6877 5.7366 15.3257C5.71295 15.0271 5.6964 14.7286 5.68457 14.43C5.67275 14.1314 5.66328 13.8634 5.66091 13.5813C5.65855 13.2992 5.66092 13.0477 5.67984 12.782C5.67984 12.5469 5.70113 12.333 5.71532 12.1097C5.72951 11.8863 5.7508 11.663 5.77445 11.4373C5.7981 11.2116 5.8241 10.993 5.85248 10.7697C5.88087 10.5463 5.90689 10.3865 5.93527 10.196C5.97115 9.93986 6.05116 9.69174 6.17178 9.46256C6.36222 9.09864 6.68029 8.81675 7.06578 8.6703C7.30595 8.58049 7.55911 8.52969 7.81553 8.51985L8.71663 8.46578L9.42616 8.43052L10.0293 8.40701L10.8074 8.38115L11.6801 8.36234C12.0538 8.36234 12.4275 8.35059 12.8011 8.35059C13.3049 8.35059 13.811 8.35059 14.3172 8.35059H15.145L16.1951 8.37174L16.8786 8.38585C17.1529 8.38585 17.4296 8.39996 17.7064 8.41171C17.8861 8.41171 18.0682 8.42817 18.248 8.44697C18.4277 8.46578 18.572 8.48694 18.7352 8.5128C18.8852 8.53385 19.0337 8.56447 19.1798 8.60448C19.4142 8.66895 19.6331 8.77986 19.8233 8.93055C20.0135 9.08124 20.1711 9.2686 20.2867 9.48136C20.4172 9.7252 20.5142 9.98533 20.5752 10.2548C20.6619 10.6599 20.7181 11.0709 20.7431 11.4843C20.7644 11.7194 20.7833 11.9663 20.7975 12.206C20.8117 12.4458 20.8283 12.7185 20.833 12.9748C20.833 13.3321 20.833 13.6801 20.833 14.0468C20.833 14.3172 20.8117 14.5899 20.7928 14.8602C20.7739 15.1306 20.755 15.3445 20.7266 15.5843C20.6982 15.8241 20.6698 16.0545 20.6391 16.2731C20.6046 16.5453 20.5509 16.8148 20.4782 17.0795C20.4122 17.3364 20.3077 17.5821 20.1684 17.8082C20.0098 18.0593 19.7814 18.2593 19.5109 18.3842C19.2865 18.4835 19.0464 18.5432 18.8014 18.5605L18.0256 18.6146L17.3161 18.6593L16.5238 18.7016C16.2329 18.7157 15.9443 18.7298 15.6558 18.7392L14.9628 18.7556C14.9469 18.7564 14.931 18.7588 14.9155 18.7627V18.7627ZM11.7652 11.3245C11.7652 11.3362 11.7652 11.3386 11.7652 11.3409C11.7652 12.7906 11.7652 14.2419 11.7652 15.6948C11.7652 15.7089 11.7652 15.723 11.7652 15.7347L15.4524 13.6307L15.6203 13.532V13.5202L11.7652 11.3245Z" fill="#FDFDFD"/>
<path d="M11.7644 11.3242L15.6242 13.5294V13.5411L15.4563 13.6398L11.7667 15.7556C11.7667 15.7439 11.7667 15.7298 11.7667 15.7157C11.7667 14.266 11.7667 12.8147 11.7667 11.3618C11.7667 11.3618 11.7573 11.336 11.7644 11.3242Z" fill="#0C2455"/>
</svg>
