<svg width="28" height="27" viewBox="0 0 28 27" fill="none" xmlns="http://www.w3.org/2000/svg">
<path d="M18.1818 26.1594C17.6281 26.4278 17.0321 26.5996 16.4198 26.6671C13.2545 27.2626 9.97932 26.6909 7.2075 25.0591C4.43567 23.4273 2.35721 20.8472 1.36123 17.8019C1.16574 17.2041 1.01476 16.5928 0.909508 15.9729C0.878762 15.7943 0.928419 15.5733 0.722656 15.4487V12.2679C0.930785 12.0963 0.859834 11.8401 0.902406 11.6261C2.01873 6.1603 5.27074 2.56579 10.675 1.10119C18.1203 -0.915881 25.7383 4.04215 27.0107 11.5768C27.3436 13.5098 27.2361 15.4925 26.6961 17.3788C26.682 17.4773 26.6392 17.5696 26.5732 17.6444C26.3366 17.6233 26.2468 17.4281 26.1001 17.2918L17.1648 8.44537C17.0371 8.31842 16.9283 8.15622 16.7556 8.09039C16.736 8.00118 16.6899 7.91988 16.6233 7.85701C16.5567 7.79414 16.4726 7.7526 16.382 7.73776C15.3271 7.47916 14.3622 7.63667 13.5273 8.35134C12.839 8.94376 12.5812 9.72896 12.5505 10.6058C12.5363 11.0125 12.5505 11.4193 12.5505 11.8542C12.139 11.8542 11.7889 11.8542 11.4413 11.8542C11.3955 11.8472 11.3488 11.8507 11.3046 11.8643C11.2605 11.878 11.22 11.9014 11.1863 11.9329C11.1525 11.9644 11.1265 12.0031 11.11 12.046C11.0935 12.089 11.0871 12.1351 11.0912 12.1809C11.0912 12.496 11.0912 12.811 11.0912 13.1213C11.0876 13.1712 11.0945 13.2212 11.1115 13.2683C11.1285 13.3153 11.1553 13.3583 11.1901 13.3944C11.2248 13.4305 11.2668 13.459 11.3134 13.4779C11.3599 13.4969 11.4099 13.5059 11.4602 13.5045C11.7795 13.8905 12.1413 14.2398 12.5387 14.5459C12.5387 14.7105 12.5505 14.8751 12.5505 15.0396C12.5505 16.7675 12.5505 18.4954 12.5505 20.2257C12.5505 20.6512 12.5505 20.6512 12.9549 20.7405C12.9384 20.9451 13.1205 21.0156 13.2316 21.1261C14.7737 22.6636 16.3189 24.1987 17.8672 25.7315C17.9997 25.8561 18.1912 25.9407 18.1818 26.1594Z" fill="#0C2455"/>
<path d="M18.1833 26.1596C18.1833 25.9409 18.0012 25.8563 17.8782 25.734C16.333 24.1966 14.7878 22.6614 13.2426 21.1287C13.1315 21.0182 12.9493 20.9476 12.9659 20.7431C13.2994 20.7431 13.6329 20.7431 13.9663 20.7431C14.3684 20.7431 14.4157 20.6843 14.4394 20.2729C14.4394 20.1906 14.4394 20.1084 14.4394 20.0261C14.4394 18.0231 14.4394 16.0209 14.4394 14.0195C14.4079 13.8445 14.431 13.664 14.5056 13.5024H15.9696C16.1564 13.5024 16.3716 13.5024 16.3835 13.2555C16.4239 12.8075 16.4136 12.3565 16.3527 11.9108C15.707 11.7792 15.0708 11.9249 14.4417 11.8191C14.4417 11.3348 14.4181 10.8788 14.4417 10.4086C14.5008 9.51289 15.1276 9.09678 16.0051 9.34363L16.2416 9.41886C16.6152 9.54345 16.7146 9.47528 16.743 9.08973C16.7571 8.76061 16.743 8.42913 16.7571 8.09766C16.9393 8.16348 17.0386 8.33274 17.1663 8.45264L26.1016 17.299C26.2364 17.4354 26.3381 17.6305 26.5746 17.6517C26.5866 17.8502 26.538 18.0477 26.4351 18.2182C25.016 21.9515 22.4413 24.5602 18.7107 26.0444C18.5516 26.1372 18.3669 26.1776 18.1833 26.1596V26.1596Z" fill="#0C2455"/>
<path d="M16.7687 8.09038C16.7687 8.42186 16.7687 8.75333 16.7546 9.08245C16.738 9.468 16.6268 9.53618 16.2532 9.41158L16.0166 9.33635C15.1392 9.08951 14.5124 9.50562 14.4533 10.4013C14.4226 10.8715 14.4533 11.3252 14.4533 11.8118C15.0824 11.9176 15.7186 11.7719 16.3643 11.9035C16.4252 12.3492 16.4355 12.8003 16.3951 13.2482C16.3951 13.5021 16.1585 13.4951 15.9812 13.4951H14.5077C14.4331 13.6567 14.41 13.8372 14.4415 14.0123C14.4415 16.0152 14.4415 18.0174 14.4415 20.0188C14.4415 20.1011 14.4415 20.1834 14.4415 20.2656C14.4273 20.6724 14.38 20.7217 13.9685 20.7358C13.635 20.7358 13.3015 20.7358 12.968 20.7358C12.5683 20.6465 12.5636 20.6465 12.5636 20.221C12.5636 18.4907 12.5636 16.7628 12.5636 15.0349C12.5636 14.8704 12.5636 14.7058 12.5518 14.5412V13.4998H11.4756C11.4254 13.5012 11.3753 13.4922 11.3288 13.4732C11.2823 13.4542 11.2403 13.4258 11.2055 13.3897C11.1707 13.3536 11.144 13.3106 11.1269 13.2636C11.1099 13.2165 11.103 13.1664 11.1067 13.1166C11.1067 12.8039 11.1067 12.4889 11.1067 12.1762C11.1026 12.1304 11.109 12.0843 11.1254 12.0413C11.1419 11.9983 11.168 11.9597 11.2017 11.9282C11.2354 11.8967 11.2759 11.8732 11.3201 11.8596C11.3643 11.846 11.411 11.8425 11.4567 11.8495C11.8044 11.8495 12.1662 11.8495 12.5659 11.8495C12.5659 11.4145 12.5541 11.0078 12.5659 10.6011C12.5943 9.72425 12.8545 8.93906 13.5427 8.34663C14.3776 7.64136 15.3426 7.47445 16.3974 7.73304C16.4883 7.74863 16.5723 7.79106 16.6385 7.8548C16.7047 7.91854 16.7501 8.00064 16.7687 8.09038Z" fill="#FDFDFD"/>
<path d="M11.4727 13.5068H12.5511V14.5483C12.1537 14.2422 11.792 13.8929 11.4727 13.5068Z" fill="#0C2455"/>
</svg>
