<svg width="27" height="27" viewBox="0 0 27 27" fill="none" xmlns="http://www.w3.org/2000/svg">
<path d="M15.0675 26.2624C14.3638 26.4091 13.6408 26.44 12.9271 26.3541C10.4101 26.2169 7.98804 25.3534 5.95714 23.8692C3.11902 21.7816 1.33102 19.0099 0.706632 15.5377C0.150145 12.4227 0.748324 9.21274 2.39036 6.50254C4.0324 3.79233 6.607 1.76552 9.63722 0.797576C11.355 0.241005 13.1692 0.0396794 14.9682 0.205979C16.7672 0.372278 18.513 0.902688 20.0981 1.76458C21.6832 2.62647 23.0741 3.80161 24.1853 5.21772C25.2965 6.63382 26.1045 8.26094 26.5595 9.99897C26.9713 11.5227 27.0845 13.111 26.893 14.6772C26.8795 14.7414 26.8605 14.8044 26.8362 14.8653C26.6635 14.8653 26.5997 14.7055 26.4885 14.6044C26.0462 14.1789 25.6134 13.7439 25.1783 13.3114C23.6567 11.8037 22.1352 10.2983 20.6136 8.79532C20.4859 8.66837 20.396 8.43798 20.1406 8.51321L20.1619 8.4991C20.1855 8.44268 20.1997 8.3839 20.1382 8.34159C20.1382 8.34159 20.0933 8.3745 20.0697 8.39331C19.2726 7.10502 18.1137 6.55256 16.593 6.58313C14.5401 6.62779 12.4848 6.62074 10.4319 6.58313C9.95703 6.57388 9.48515 6.65995 9.04453 6.83619C8.6039 7.01244 8.20358 7.27522 7.86751 7.60884C7.53144 7.94245 7.26653 8.34003 7.08864 8.77777C6.91075 9.21552 6.82354 9.68445 6.83222 10.1565C6.87243 12.2582 6.85114 14.3622 6.83222 16.4639C6.80042 17.1041 6.9481 17.7404 7.25879 18.302C7.56948 18.8637 8.03099 19.3285 8.59185 19.6447C8.62286 19.7371 8.66922 19.8237 8.72903 19.9009C10.7378 21.8757 12.7442 23.8536 14.7482 25.8346C14.8735 25.9639 15.0557 26.0532 15.0675 26.2624Z" fill="#0C2455"/>
<path d="M20.1362 8.51281C20.394 8.43758 20.4839 8.66797 20.6092 8.79492C22.1339 10.2948 23.6555 11.8001 25.1739 13.311C25.6091 13.7435 26.0419 14.1785 26.4841 14.604C26.5858 14.7051 26.6592 14.8532 26.8318 14.8649C26.8157 15.6411 26.6645 16.4087 26.3848 17.1335C24.6015 22.2679 21.0097 25.3092 15.6094 26.2574C15.4307 26.3068 15.2418 26.3068 15.0631 26.2574C15.0513 26.0481 14.8692 25.9588 14.7462 25.8342C12.7437 23.8532 10.7373 21.8753 8.72702 19.9005C8.66721 19.8233 8.62085 19.7367 8.58984 19.6443C9.1252 19.9547 9.7344 20.1171 10.3542 20.1145C12.5419 20.1145 14.7273 20.1145 16.915 20.1145C17.3859 20.1249 17.8541 20.0399 18.291 19.8648C18.7278 19.6896 19.1243 19.4279 19.4562 19.0956C19.7881 18.7633 20.0484 18.3673 20.2215 17.9318C20.3945 17.4963 20.4765 17.0303 20.4626 16.5623C20.4626 14.5099 20.4626 12.4576 20.4626 10.4053C20.4912 9.75852 20.3799 9.11319 20.1362 8.51281Z" fill="#0C2455"/>
<path d="M20.1391 8.51349C20.3868 9.109 20.5037 9.75019 20.4821 10.3942C20.4655 12.4465 20.4821 14.4989 20.4821 16.5512C20.496 17.0192 20.4139 17.4852 20.2409 17.9207C20.0679 18.3562 19.8075 18.7522 19.4756 19.0845C19.1437 19.4168 18.7473 19.6785 18.3104 19.8537C17.8735 20.0288 17.4054 20.1138 16.9344 20.1034C14.7467 20.1034 12.5614 20.1034 10.3737 20.1034C9.75386 20.106 9.14465 19.9437 8.60929 19.6332C8.04727 19.3196 7.58386 18.8571 7.27068 18.2972C6.95749 17.7372 6.80683 17.1019 6.83547 16.4619C6.84966 14.3602 6.87095 12.2561 6.83547 10.1544C6.82777 9.68338 6.91556 9.21561 7.09358 8.77901C7.27161 8.3424 7.53624 7.94589 7.87171 7.6131C8.20717 7.28031 8.6066 7.01805 9.04619 6.84196C9.48579 6.66586 9.95655 6.57953 10.4304 6.58811C12.4833 6.62103 14.5386 6.62808 16.5915 6.58811C18.1122 6.55755 19.2711 7.11001 20.0682 8.3983C20.08 8.45002 20.0871 8.50409 20.1604 8.50409L20.1391 8.51349ZM13.6777 7.20875H10.3666C10.2003 7.20332 10.0339 7.21434 9.86989 7.24166C8.36569 7.54728 7.45277 8.6522 7.44804 10.2061C7.44804 12.2937 7.44804 14.3813 7.44804 16.4689C7.44287 16.8327 7.49801 17.1949 7.61123 17.5409C8.02039 18.7446 9.09651 19.4922 10.4493 19.4969C12.5716 19.4969 14.6939 19.4969 16.8162 19.4969C18.59 19.4969 19.8317 18.3214 19.853 16.5629C19.8813 14.4095 19.8813 12.2561 19.853 10.1027C19.8586 9.71146 19.7835 9.32322 19.6324 8.96191C19.4813 8.60059 19.2574 8.27386 18.9745 8.00185C18.6915 7.72983 18.3555 7.5183 17.9871 7.38028C17.6188 7.24227 17.2259 7.18069 16.8327 7.19935C15.785 7.23696 14.7302 7.20875 13.6777 7.20875Z" fill="#FDFDFD"/>
<path d="M20.1587 8.49873C20.0853 8.49873 20.0782 8.44466 20.0664 8.39294C20.0901 8.37414 20.1279 8.33652 20.135 8.34122C20.1965 8.38354 20.1823 8.44231 20.1587 8.49873Z" fill="#0C2455"/>
<path d="M13.6762 7.2086C14.7286 7.2086 15.7835 7.23681 16.8336 7.2086C17.227 7.18993 17.62 7.25157 17.9885 7.38973C18.357 7.52789 18.6932 7.73964 18.9762 8.01191C19.2592 8.28417 19.483 8.61118 19.634 8.97277C19.7849 9.33436 19.8597 9.72286 19.8538 10.1143C19.879 12.2677 19.879 14.4211 19.8538 16.5746C19.8325 18.3283 18.5908 19.5038 16.817 19.5085C14.6931 19.5085 12.5709 19.5085 10.4502 19.5085C9.09733 19.5085 8.02121 18.7562 7.61204 17.5525C7.49996 17.2 7.448 16.8313 7.45831 16.4617C7.45831 14.3741 7.45831 12.2865 7.45831 10.1989C7.45831 8.64029 8.37597 7.54007 9.88017 7.23446C10.0442 7.20714 10.2106 7.19611 10.3768 7.20154L13.6762 7.2086ZM13.6359 10.4528C13.2515 10.45 12.8704 10.5235 12.5151 10.6692C12.1597 10.8149 11.8372 11.0298 11.5666 11.3012C11.296 11.5726 11.0827 11.895 10.9393 12.2495C10.7959 12.6041 10.7253 12.9835 10.7316 13.3656C10.7309 13.7474 10.8068 14.1256 10.9549 14.4779C11.1029 14.8303 11.3202 15.1497 11.5939 15.4177C11.8676 15.6856 12.1923 15.8966 12.5491 16.0383C12.9058 16.18 13.2873 16.2496 13.6714 16.2431C14.0555 16.244 14.4359 16.1691 14.7906 16.0226C15.1453 15.8761 15.4671 15.6609 15.7373 15.3897C16.0076 15.1184 16.2209 14.7965 16.3648 14.4425C16.5088 14.0886 16.5805 13.7097 16.5758 13.328C16.5768 12.9461 16.5011 12.568 16.3531 12.2156C16.2051 11.8632 15.9879 11.5438 15.714 11.276C15.4402 11.0082 15.1154 10.7974 14.7585 10.6561C14.4017 10.5147 14.02 10.4456 13.6359 10.4528ZM18.184 9.51247C18.1892 9.42592 18.1765 9.33923 18.1465 9.25779C18.1166 9.17635 18.0701 9.10189 18.01 9.03906C17.9499 8.97622 17.8774 8.92635 17.7971 8.89253C17.7168 8.85871 17.6303 8.84167 17.5431 8.84247C17.3752 8.84567 17.2146 8.91151 17.0932 9.02691C16.9719 9.14232 16.8986 9.29885 16.888 9.46545C16.8907 9.64015 16.9602 9.80728 17.0823 9.93298C17.2043 10.0587 17.3699 10.1336 17.5455 10.1425C17.7125 10.139 17.8718 10.0719 17.9906 9.95517C18.1094 9.8384 18.1786 9.68081 18.184 9.51483V9.51247Z" fill="#0C2455"/>
<path d="M13.6352 10.4527C14.0193 10.4455 14.4009 10.5146 14.7578 10.6559C15.1146 10.7973 15.4395 11.008 15.7133 11.2758C15.9871 11.5436 16.2044 11.8631 16.3523 12.2154C16.5003 12.5678 16.576 12.946 16.575 13.3278C16.5797 13.7095 16.508 14.0884 16.3641 14.4423C16.2201 14.7963 16.0068 15.1182 15.7366 15.3895C15.4663 15.6608 15.1445 15.8759 14.7898 16.0224C14.4352 16.1689 14.0547 16.2439 13.6707 16.2429C13.2866 16.2495 12.905 16.1799 12.5483 16.0381C12.1916 15.8964 11.8669 15.6854 11.5932 15.4175C11.3194 15.1496 11.1022 14.8301 10.9541 14.4778C10.8061 14.1254 10.7302 13.7473 10.7309 13.3654C10.7245 12.9834 10.7952 12.6039 10.9385 12.2494C11.0819 11.8948 11.2952 11.5724 11.5658 11.301C11.8364 11.0296 12.1589 10.8147 12.5143 10.669C12.8697 10.5234 13.2508 10.4498 13.6352 10.4527V10.4527ZM13.6541 15.5447C13.9454 15.5599 14.2369 15.5167 14.5111 15.4178C14.7853 15.3189 15.0368 15.1663 15.2505 14.9689C15.4643 14.7716 15.636 14.5336 15.7554 14.2691C15.8749 14.0045 15.9396 13.7188 15.9459 13.4289C15.9594 12.8263 15.7346 12.2426 15.3198 11.803C14.905 11.3634 14.3332 11.1031 13.7274 11.078C13.1209 11.0646 12.5332 11.2883 12.0909 11.7012C11.6486 12.114 11.387 12.6829 11.3623 13.2855C11.3269 14.5808 12.2705 15.4977 13.6541 15.5447Z" fill="#FDFDFD"/>
<path d="M18.1827 9.51476C18.1779 9.68115 18.109 9.83934 17.9901 9.95661C17.8713 10.0739 17.7116 10.1412 17.5442 10.1448C17.3687 10.1359 17.2031 10.061 17.081 9.93527C16.9589 9.80956 16.8895 9.64244 16.8867 9.46774C16.8974 9.30113 16.9706 9.14459 17.092 9.02919C17.2134 8.91379 17.3739 8.84796 17.5418 8.84475C17.6291 8.84395 17.7155 8.861 17.7958 8.89482C17.8761 8.92864 17.9486 8.97851 18.0087 9.04134C18.0688 9.10418 18.1153 9.17863 18.1452 9.26007C18.1752 9.34151 18.1879 9.42821 18.1827 9.51476V9.51476Z" fill="#FDFDFD"/>
<path d="M13.6583 15.5448C12.2747 15.4978 11.331 14.5692 11.3641 13.2833C11.3888 12.6807 11.6504 12.1118 12.0927 11.6989C12.535 11.2861 13.1226 11.0623 13.7292 11.0758C14.335 11.1009 14.9068 11.3612 15.3216 11.8007C15.7364 12.2403 15.9612 12.8241 15.9477 13.4267C15.9417 13.7166 15.8773 14.0023 15.7581 14.267C15.6389 14.5316 15.4675 14.7698 15.254 14.9674C15.0404 15.1649 14.7892 15.3178 14.5151 15.417C14.241 15.5162 13.9496 15.5597 13.6583 15.5448V15.5448Z" fill="#0C2455"/>
</svg>
