<svg width="135" height="44" viewBox="0 0 135 44" fill="none" xmlns="http://www.w3.org/2000/svg">
<path d="M8.8989 21.932L8.73189 21.6968L8.71145 21.6696L0.00341797 30.3674V43.1823H23.4657L9.95886 23.4623L8.8989 21.932Z" fill="#1A3875"/>
<path d="M27.8245 27.4464C29.9836 26.2281 31.7754 24.4518 33.0124 22.3034C34.2494 20.155 34.886 17.7136 34.8557 15.2347C34.8557 9.56002 32.2313 5.05093 27.9165 2.45386L21.5909 8.78294C23.43 10.2216 24.6493 12.3092 24.9991 14.6178C25.3691 16.9362 24.8134 19.3071 23.4518 21.2196C22.6474 22.3818 21.8192 23.5576 21.0217 24.6926C20.5548 25.3742 20.0844 26.0286 19.6175 26.7C18.9972 27.5827 18.3803 28.4723 17.7634 29.3584L16.9897 30.4695L25.7046 43.1822H37.2585V42.8755L27.8245 27.4464Z" fill="#1A3875"/>
<path d="M18.2513 9.0557C17.6782 8.85016 17.0796 8.72402 16.4722 8.6808H16.4245H16.3973C14.9918 8.56757 13.5856 8.8888 12.3687 9.60102H12.3483C10.9607 10.3665 9.86009 11.5628 9.2127 13.0093C9.15136 13.1456 9.09682 13.2853 9.0457 13.4251C8.96152 13.6347 8.89206 13.8499 8.8378 14.0692C8.42214 15.5892 8.51307 17.2032 9.09682 18.6669L10.818 16.9458C10.7515 16.6217 10.7195 16.2916 10.7226 15.9608C10.7298 14.6247 11.2653 13.3457 12.2123 12.4032C13.1593 11.4606 14.4408 10.9311 15.777 10.9302C16.1005 10.9304 16.4233 10.96 16.7415 11.0188L18.6024 9.15796L18.2513 9.0557Z" fill="#F4A70F"/>
<path d="M19.3484 12.4265C20.0535 13.1326 20.5331 14.0322 20.7265 15.0112C20.9199 15.9902 20.8184 17.0046 20.4348 17.9258C20.0512 18.847 19.4028 19.6337 18.5717 20.1861C17.7406 20.7385 16.7643 21.0318 15.7664 21.0288H15.7357C14.913 21.0235 14.104 20.8181 13.3784 20.4304C12.6528 20.0426 12.0325 19.4842 11.5708 18.8033L10.0508 20.3233L11.4788 22.4092C12.6138 24.0281 13.7453 25.6572 14.8496 27.2454L15.9232 28.7928L16.264 28.3054L18.1215 25.6436C18.5895 24.9619 19.0587 24.2928 19.5291 23.6361C20.3232 22.5012 21.148 21.3288 21.9489 20.17C23.0369 18.6414 23.4811 16.7468 23.1861 14.894C23.0401 13.943 22.7079 13.0302 22.2084 12.2079C21.709 11.3856 21.0521 10.67 20.2755 10.1021L18.5714 11.8062C18.8478 11.9924 19.1057 12.2047 19.3416 12.4401" fill="#F4A70F"/>
<path d="M15.4153 0H13.2749C15.3355 1.11176 17.0733 2.73796 18.3191 4.7204C18.9283 5.64921 19.4281 6.64534 19.8085 7.68896L19.9891 7.77076L20.7969 6.96301C20.0365 5.05692 18.919 3.31362 17.5045 1.82681C16.8706 1.14988 16.1707 0.537905 15.4153 0Z" fill="#1A3875"/>
<path d="M23.3945 0.599856C22.8355 0.458983 22.2607 0.345375 21.6699 0.259033C22.5788 1.33137 23.3685 2.49929 24.025 3.74224L24.9043 2.85951C24.8362 2.74363 24.7714 2.62775 24.6998 2.51869C24.2908 1.84386 23.8557 1.20425 23.3945 0.599856Z" fill="#1A3875"/>
<path d="M24.5767 0.944214C24.8766 1.39864 25.1538 1.86671 25.4083 2.3484L26.1956 1.5611C25.6775 1.33389 25.1379 1.12826 24.5767 0.944214Z" fill="#1A3875"/>
<path d="M11.3226 1.77917C7.82921 0.306812 4.33578 0.211381 0.862793 1.72463C1.15931 2.0007 1.44901 2.28358 1.72849 2.57669C5.38211 1.13842 8.88576 1.55422 12.294 3.54463C13.6574 4.33564 14.7937 5.46492 15.5932 6.82335H16.5884H16.6668L16.953 6.86765C16.4105 5.83771 15.7024 4.90391 14.857 4.10358C13.8321 3.11775 12.6338 2.32972 11.3226 1.77917Z" fill="#1A3875"/>
<path d="M15.5688 2.35509C14.4416 1.35431 13.1487 0.557383 11.7482 0H0.52147C0.347651 0.074981 0.180646 0.160184 0.00341797 0.241981V1.50644C2.55618 0.0817969 5.45659 -0.25562 8.42856 0.231757C11.2608 0.78389 13.3978 1.80295 15.1155 3.45594C16.1781 4.46809 17.0416 5.67034 17.6615 7.0005C17.7876 7.02095 17.9103 7.04481 18.0364 7.07208C18.3969 7.15767 18.7519 7.26465 19.0997 7.39245C18.9183 6.94464 18.7135 6.50665 18.4863 6.08028C17.7432 4.67486 16.7552 3.41335 15.5688 2.35509Z" fill="#1A3875"/>
<path d="M0.804354 2.74707C0.799907 2.62201 0.746159 2.50378 0.654844 2.41822C0.563528 2.33265 0.442067 2.28669 0.31698 2.29037C0.203803 2.29086 0.0938121 2.32792 0.00341797 2.39602V3.07767C0.0902734 3.14266 0.194932 3.17952 0.303344 3.18332C0.427382 3.19084 0.549409 3.14933 0.643127 3.06773C0.736844 2.98612 0.794748 2.87096 0.804354 2.74707Z" fill="#1A3875"/>
<path d="M18.4926 1.88475C18.8334 1.65299 19.1333 1.41441 19.4571 1.17584C19.0992 0.766851 18.7277 0.374905 18.3358 0H16.5771C17.2622 0.579399 17.862 1.26104 18.4926 1.88475Z" fill="#1A3875"/>
<path d="M20.3164 4.41711C20.6572 5.09875 21.0151 5.74973 21.3389 6.42796L22.2727 5.49411C21.9783 4.87475 21.6506 4.27175 21.2912 3.68774C20.9571 3.92973 20.63 4.1649 20.3164 4.41711Z" fill="#1A3875"/>
<path d="M1.48926 7.76067C1.83008 7.96516 2.1709 8.17306 2.51173 8.38437C3.90228 6.95973 5.8109 6.46895 7.89332 7.02108C8.89549 7.26718 9.78889 7.83604 10.4359 8.63999C10.7501 8.40857 11.0791 8.19795 11.4208 8.00946C9.13392 5.06816 4.08292 4.91139 1.48926 7.76067Z" fill="#1A3875"/>
<path d="M20.4428 2.77081C20.4531 2.67182 20.4332 2.57204 20.3858 2.48453C20.3385 2.39701 20.2658 2.32583 20.1773 2.28032C20.0888 2.2348 19.9886 2.21705 19.8899 2.22941C19.7911 2.24177 19.6984 2.28365 19.6238 2.34958C19.5493 2.41551 19.4964 2.50241 19.472 2.5989C19.4477 2.69539 19.4531 2.79699 19.4874 2.89039C19.5218 2.98379 19.5835 3.06464 19.6646 3.12236C19.7457 3.18008 19.8423 3.21198 19.9418 3.21388C20.0038 3.21803 20.0661 3.20984 20.125 3.18976C20.1839 3.16968 20.2382 3.13813 20.2848 3.09692C20.3313 3.05571 20.3693 3.00568 20.3964 2.9497C20.4236 2.89372 20.4393 2.83292 20.4428 2.77081Z" fill="#1A3875"/>
<path d="M20.7866 0.136253C20.2243 0.0714963 19.6517 0.0340089 19.0825 0.0169678C20.6003 1.44596 21.8473 3.1375 22.7634 5.01002L23.6052 4.16819C23.4076 3.79328 23.1997 3.42179 22.9679 3.05711C22.3231 2.02464 21.5935 1.04764 20.7866 0.136253Z" fill="#1A3875"/>
<path d="M7.51516 19.7201C5.38023 21.8396 3.03328 23.7343 0.511246 25.3743C0.344243 25.4834 0.170421 25.5891 0.00341797 25.6947V27.0069V27.7567L7.68557 20.0746C7.62763 19.9587 7.56969 19.8394 7.51516 19.7201Z" fill="#1A3875"/>
<path d="M6.79922 11.237C6.80952 11.1379 6.78961 11.038 6.7421 10.9504C6.69459 10.8628 6.6217 10.7916 6.53299 10.7461C6.44429 10.7007 6.34392 10.6831 6.24506 10.6958C6.1462 10.7084 6.05347 10.7506 5.97903 10.8169C5.9046 10.8832 5.85194 10.9704 5.82798 11.0671C5.80401 11.1639 5.80986 11.2656 5.84474 11.359C5.87963 11.4523 5.94193 11.5329 6.02347 11.5903C6.105 11.6476 6.20196 11.6789 6.30162 11.6801C6.36341 11.6838 6.42531 11.6753 6.48379 11.655C6.54227 11.6347 6.59617 11.603 6.6424 11.5619C6.68863 11.5207 6.72627 11.4708 6.75319 11.4151C6.7801 11.3594 6.79574 11.2988 6.79922 11.237Z" fill="#1A3875"/>
<path d="M7.87642 9.48854C7.32478 9.09215 6.64598 8.91391 5.97076 8.98817C5.29555 9.06242 4.6717 9.38392 4.21939 9.89071C3.2719 10.9677 2.34486 12.0618 1.41441 13.1524C1.75524 13.3603 2.09606 13.5818 2.39599 13.8136C3.24463 12.8286 4.1001 11.8402 4.93853 10.8586C5.10469 10.6453 5.29969 10.456 5.51792 10.2963C5.7596 10.146 6.03991 10.0694 6.32445 10.0761C6.609 10.0827 6.88541 10.1723 7.11979 10.3338C7.32101 10.4775 7.45984 10.6926 7.50797 10.9351C7.5561 11.1777 7.50991 11.4295 7.37882 11.6391C7.22459 11.9427 7.0359 12.2274 6.81646 12.4878C4.78818 14.9658 2.5033 17.2221 0 19.219V20.63C0.640747 20.1358 1.27127 19.6314 1.88816 19.11C3.68353 17.5961 5.35965 15.9462 6.90167 14.1749C7.0322 13.5218 7.23451 12.8851 7.50492 12.2765C7.79449 11.6285 8.15697 11.0156 8.58533 10.4497C8.46081 10.0602 8.21172 9.72251 7.87642 9.48854Z" fill="#1A3875"/>
<path d="M8.21729 2.39597C6.79397 2.12643 5.33019 2.15539 3.91864 2.481C2.50709 2.8066 1.17853 3.42177 0.0170898 4.28753V5.77693C0.126153 5.67809 0.231808 5.57584 0.357913 5.48382C1.96833 4.10691 4.00874 3.3351 6.12727 3.30151C8.24581 3.26791 10.3097 3.97462 11.9629 5.29978C12.6171 5.82753 13.1911 6.44748 13.667 7.14022C13.9193 7.08228 14.1681 7.03798 14.4134 6.99367L14.8838 6.90505C13.5171 4.66925 11.1075 2.99241 8.21729 2.39597Z" fill="#1A3875"/>
<path d="M6.02917 12.3276C5.68835 12.1265 5.37138 11.9186 5.04078 11.7107C3.54545 13.6278 1.8575 15.3866 0.00341797 16.9594V18.4181L0.262447 18.2136C2.39918 16.4739 4.33357 14.4995 6.02917 12.3276Z" fill="#1A3875"/>
<path d="M1.14883 14.7816C1.15911 14.6826 1.13926 14.5828 1.09189 14.4953C1.04452 14.4078 0.971824 14.3366 0.883328 14.2911C0.794831 14.2455 0.694651 14.2278 0.595904 14.2402C0.497157 14.2525 0.404444 14.2944 0.329896 14.3603C0.255348 14.4263 0.202439 14.5131 0.178097 14.6096C0.153755 14.7061 0.159114 14.8077 0.19347 14.9011C0.227826 14.9945 0.289579 15.0754 0.370647 15.1331C0.451716 15.1908 0.548322 15.2227 0.647821 15.2246C0.772961 15.2321 0.895958 15.1897 0.989866 15.1066C1.08377 15.0236 1.14094 14.9067 1.14883 14.7816Z" fill="#1A3875"/>
<path d="M1.35293 9.50891C1.36323 9.40978 1.34332 9.30985 1.29581 9.22223C1.2483 9.13462 1.17541 9.06342 1.0867 9.01798C0.998003 8.97254 0.897633 8.95498 0.798772 8.96761C0.69991 8.98023 0.607177 9.02246 0.532743 9.08874C0.458309 9.15501 0.405653 9.24225 0.381688 9.33899C0.357722 9.43573 0.363567 9.53745 0.398454 9.63081C0.433341 9.72417 0.495642 9.80479 0.577176 9.86211C0.658711 9.91943 0.755665 9.95075 0.855322 9.95198C0.917111 9.95566 0.979024 9.94711 1.0375 9.92683C1.09598 9.90654 1.14988 9.87491 1.1961 9.83375C1.24233 9.79258 1.27999 9.7427 1.3069 9.68696C1.33381 9.63121 1.34945 9.57071 1.35293 9.50891Z" fill="#1A3875"/>
<path d="M8.14909 4.06943C5.2521 3.42186 2.77772 4.2671 0.725966 6.14163C0.471486 6.37566 0.23026 6.62371 0.00341797 6.88462V8.67735C0.11589 8.53762 0.235178 8.40469 0.344241 8.26155C0.760766 7.70851 1.23239 7.1992 1.75184 6.74148C2.46185 6.10043 3.29707 5.61358 4.20476 5.31167C5.11245 5.00977 6.07289 4.89937 7.0254 4.98745C7.97792 5.07552 8.90183 5.36016 9.73877 5.82339C10.5757 6.28662 11.3075 6.91836 11.8879 7.67873L11.9288 7.73668C12.2605 7.57849 12.602 7.44188 12.9513 7.32769L13.0467 7.30043C11.9065 5.61731 10.1451 4.4553 8.14909 4.06943Z" fill="#1A3875"/>
<path d="M0.00341797 10.9507V11.3086C0.0647661 11.2472 0.126114 11.1859 0.184054 11.1211L0.00341797 10.9507Z" fill="#1A3875"/>
<path d="M7.25272 7.50839C6.47092 7.32841 5.65604 7.35169 4.88579 7.57603C4.11554 7.80036 3.4156 8.21826 2.8527 8.78988C2.52892 9.13071 2.2733 9.51584 1.96997 9.86689C1.34285 10.6031 0.681656 11.3052 0.00341797 11.9902V13.6364C1.28713 12.4271 2.47772 11.1225 3.56502 9.73396C3.87361 9.33981 4.27009 9.02329 4.7228 8.80966C5.1755 8.59603 5.67189 8.49122 6.17232 8.50359C6.73022 8.4681 7.28787 8.57674 7.79165 8.81908C8.29542 9.06142 8.72837 9.42929 9.04886 9.88733C9.31606 9.59118 9.60179 9.31227 9.90433 9.05231C9.23256 8.23828 8.29227 7.69079 7.25272 7.50839Z" fill="#1A3875"/>
<path d="M7.22546 18.9839C7.08012 18.5658 6.9662 18.1374 6.88463 17.7024C5.60961 19.062 4.24313 20.3328 2.79476 21.506C1.89158 22.2353 0.957722 22.9238 0.00341797 23.5918V24.9722C1.71194 23.8221 3.34447 22.563 4.89082 21.2027C5.70198 20.4971 6.47224 19.7542 7.22546 18.9839Z" fill="#1A3875"/>
<path d="M6.77898 17.0582C6.71646 16.5198 6.70163 15.9769 6.73467 15.4359C4.86003 17.469 2.81691 19.3399 0.627125 21.0288C0.422631 21.1856 0.21132 21.3356 0.00341797 21.4923V22.8318C0.44308 22.5284 0.875929 22.2251 1.30196 21.9115C3.26632 20.4574 5.09905 18.8334 6.77898 17.0582Z" fill="#1A3875"/>
<path d="M46.3584 39.0924H47.0707V42.4836H49.1906V43.1243H46.3686L46.3584 39.0924Z" fill="#1A3875"/>
<path d="M54.7496 41.8906C54.652 42.1451 54.5035 42.377 54.3133 42.5722C54.1173 42.7648 53.8858 42.9175 53.6317 43.0221C53.3636 43.1366 53.0745 43.1935 52.783 43.1891C52.4898 43.1928 52.1988 43.1372 51.9276 43.0255C51.68 42.9216 51.4553 42.7699 51.2664 42.5791C51.0812 42.3884 50.9342 42.1639 50.8335 41.9179C50.6291 41.3999 50.6291 40.8237 50.8335 40.3058C50.9345 40.0572 51.084 39.8313 51.2732 39.6412C51.4718 39.4408 51.7088 39.2826 51.97 39.176C52.2312 39.0694 52.5112 39.0166 52.7933 39.0209C53.0854 39.0175 53.3752 39.0731 53.6453 39.1845C53.8922 39.2871 54.116 39.4379 54.3039 39.6281C54.4917 39.8183 54.6398 40.044 54.7394 40.2921C54.843 40.5488 54.8962 40.8231 54.8961 41.0999C54.898 41.3704 54.8483 41.6387 54.7496 41.8906ZM54.0679 40.5273C54.0042 40.3582 53.9081 40.203 53.7851 40.0706C53.6633 39.9389 53.516 39.8334 53.3522 39.7604C53.1788 39.682 52.9904 39.6425 52.8001 39.6446C52.6166 39.6422 52.4346 39.6779 52.2657 39.7495C52.0967 39.821 51.9444 39.9269 51.8185 40.0604C51.6977 40.1939 51.6029 40.3488 51.539 40.5171C51.4074 40.8757 51.4074 41.2695 51.539 41.6282C51.6041 41.7967 51.7 41.9515 51.8219 42.0849C51.9491 42.2192 52.1024 42.3263 52.2723 42.3995C52.4422 42.4728 52.6253 42.5107 52.8103 42.5109C52.9991 42.5128 53.1862 42.4745 53.359 42.3984C53.5215 42.3278 53.6676 42.2246 53.7885 42.0951C53.91 41.9621 54.0049 41.8071 54.0679 41.6384C54.1368 41.4613 54.1715 41.2728 54.1702 41.0828C54.167 40.8971 54.1301 40.7135 54.0611 40.5409L54.0679 40.5273Z" fill="#1A3875"/>
<path d="M60.2065 42.7903C59.9479 42.9544 59.6614 43.0699 59.3613 43.1311C59.1939 43.163 59.0239 43.179 58.8535 43.1788C58.5608 43.1834 58.2701 43.1302 57.998 43.0221C57.7514 42.9239 57.5277 42.7757 57.3412 42.5868C57.1547 42.3979 57.0093 42.1725 56.9142 41.9246C56.8129 41.6615 56.762 41.3817 56.7642 41.0998C56.7627 40.8243 56.8148 40.5511 56.9176 40.2955C57.0149 40.0475 57.1609 39.8215 57.347 39.6309C57.541 39.431 57.7738 39.2729 58.0311 39.1663C58.2884 39.0596 58.5648 39.0066 58.8433 39.0106C59.0042 39.0098 59.1649 39.0224 59.3238 39.0481C59.4608 39.0711 59.5954 39.1065 59.726 39.1537C59.8446 39.1998 59.9587 39.2568 60.0668 39.3241C60.1789 39.395 60.286 39.4736 60.3872 39.5593L59.9373 40.0944C59.8589 40.0296 59.7805 39.9683 59.7021 39.9138C59.6221 39.8602 59.5364 39.8156 59.4465 39.7808C59.3533 39.7412 59.2562 39.7115 59.1568 39.6922C59.0444 39.6714 58.9303 39.6611 58.816 39.6616C58.6439 39.6625 58.4741 39.7009 58.3184 39.774C58.1595 39.847 58.0178 39.9527 57.9026 40.0842C57.7817 40.2157 57.6879 40.3697 57.6265 40.5375C57.5576 40.7145 57.5229 40.903 57.5243 41.093C57.523 41.2893 57.5564 41.4843 57.6231 41.669C57.6835 41.84 57.7787 41.9966 57.9026 42.1291C58.0257 42.2575 58.1727 42.3605 58.3354 42.4324C58.5123 42.5068 58.7025 42.5439 58.8944 42.5415C59.0773 42.5422 59.2591 42.5134 59.4329 42.4563C59.5894 42.4068 59.7368 42.332 59.8691 42.2348V41.4781H58.8467V40.8612H60.5508V42.5654C60.441 42.6477 60.326 42.7228 60.2065 42.7903Z" fill="#1A3875"/>
<path d="M63.3793 39.0924V43.1243H62.6772V39.0924H63.3793Z" fill="#1A3875"/>
<path d="M66.2767 40.3364C66.3107 40.4026 66.3612 40.459 66.4233 40.5C66.5156 40.5586 66.6153 40.6044 66.7198 40.6363C66.8751 40.6896 67.0333 40.734 67.1936 40.7693C67.3857 40.8163 67.5747 40.8755 67.7593 40.9465C67.9068 41.0045 68.0438 41.0862 68.1649 41.1885C68.2729 41.2807 68.3571 41.3976 68.4103 41.5293C68.4689 41.6684 68.4979 41.8181 68.4955 41.969C68.4975 42.145 68.4614 42.3194 68.3898 42.4802C68.3208 42.628 68.2195 42.7585 68.0933 42.8619C67.9588 42.9689 67.8049 43.0487 67.64 43.0971C67.4522 43.1536 67.2568 43.1811 67.0606 43.1789C66.7558 43.1795 66.4533 43.1252 66.1677 43.0187C65.8769 42.9088 65.6097 42.7445 65.3804 42.5347L65.8064 42.0269C65.9831 42.1859 66.1831 42.3169 66.3994 42.4154C66.6144 42.5088 66.8468 42.5553 67.0811 42.5518C67.2652 42.5608 67.4476 42.5119 67.6025 42.412C67.6638 42.3712 67.7136 42.3152 67.747 42.2496C67.7804 42.1839 67.7964 42.1107 67.7934 42.0371C67.7955 41.9704 67.7827 41.904 67.7559 41.8429C67.7259 41.778 67.6788 41.7227 67.6196 41.6827C67.533 41.6257 67.4389 41.581 67.3401 41.5497C67.1909 41.4958 67.0383 41.4514 66.8834 41.4168C66.6883 41.3723 66.496 41.3166 66.3074 41.2498C66.1557 41.1965 66.014 41.1182 65.8882 41.0181C65.7743 40.9274 65.6843 40.8105 65.6258 40.6772C65.5632 40.5261 65.533 40.3636 65.5371 40.2001C65.5347 40.0343 65.5697 39.87 65.6394 39.7195C65.7066 39.5772 65.803 39.4506 65.9223 39.348C66.05 39.2415 66.1969 39.1605 66.3551 39.1095C66.5336 39.0525 66.7199 39.0238 66.9073 39.0243C67.1786 39.0207 67.4485 39.0645 67.7048 39.1538C67.9512 39.2416 68.1815 39.3695 68.3864 39.5321L68.0081 40.0672C67.8386 39.9426 67.6543 39.8396 67.4594 39.7604C67.286 39.6907 67.1009 39.6548 66.9141 39.6548C66.7413 39.643 66.57 39.6925 66.4301 39.7945C66.3768 39.834 66.3333 39.8854 66.3031 39.9445C66.273 40.0036 66.2569 40.069 66.2563 40.1353C66.2488 40.2031 66.2557 40.2716 66.2767 40.3364Z" fill="#1A3875"/>
<path d="M72.1281 43.1073H71.4124V39.7332H70.1343V39.0924H73.4062V39.7502H72.1281V43.1073Z" fill="#1A3875"/>
<path d="M76.0717 39.0924V43.1243H75.3594V39.0924H76.0717Z" fill="#1A3875"/>
<path d="M81.5146 42.7597C81.4002 42.8458 81.2781 42.9211 81.1499 42.9847C81.0127 43.0486 80.8686 43.0966 80.7205 43.1278C80.5509 43.1605 80.3785 43.1765 80.2058 43.1755C79.9337 43.1795 79.6636 43.1285 79.4118 43.0254C79.1599 42.9223 78.9315 42.7693 78.7403 42.5757C78.5556 42.3852 78.4098 42.1606 78.3109 41.9145C78.1086 41.3903 78.1086 40.8096 78.3109 40.2853C78.4098 40.0382 78.5557 39.8125 78.7403 39.6207C78.9268 39.4277 79.1506 39.2747 79.3981 39.1709C79.6633 39.0592 79.9487 39.0035 80.2365 39.0073C80.4058 39.0063 80.5748 39.0223 80.7409 39.055C80.8852 39.0817 81.0259 39.1252 81.1601 39.1845C81.2804 39.2381 81.3947 39.3044 81.501 39.3822C81.6082 39.4586 81.7096 39.5429 81.8043 39.6344L81.351 40.1592C81.1959 40.016 81.0229 39.8934 80.8364 39.7946C80.6458 39.7005 80.4353 39.6537 80.2229 39.6582C80.0384 39.6563 79.8558 39.6946 79.6878 39.7707C79.5291 39.8443 79.3857 39.9472 79.2652 40.074C79.1443 40.2056 79.0505 40.3596 78.9891 40.5273C78.9226 40.7061 78.8891 40.8955 78.8903 41.0863C78.8898 41.2781 78.9232 41.4685 78.9891 41.6486C79.0501 41.8176 79.144 41.9728 79.2652 42.1053C79.385 42.2339 79.5285 42.338 79.6878 42.4121C79.8558 42.4881 80.0384 42.5265 80.2229 42.5246C80.4425 42.5315 80.6604 42.4835 80.8568 42.3848C81.046 42.28 81.2212 42.1518 81.3783 42.0031L81.835 42.4632C81.7348 42.569 81.6278 42.6681 81.5146 42.7597Z" fill="#1A3875"/>
<path d="M84.3978 40.3364C84.4318 40.4026 84.4823 40.459 84.5444 40.5C84.6358 40.558 84.7343 40.6038 84.8375 40.6363C84.9941 40.6891 85.1533 40.7334 85.3146 40.7693C85.5055 40.8168 85.6933 40.8759 85.877 40.9465C86.0255 41.0045 86.1636 41.0863 86.286 41.1885C86.3919 41.2826 86.4757 41.399 86.5314 41.5293C86.5888 41.6686 86.6167 41.8183 86.6132 41.969C86.6168 42.1452 86.5807 42.3199 86.5075 42.4802C86.4409 42.6286 86.3405 42.7593 86.2144 42.8619C86.0799 42.9689 85.926 43.0487 85.7611 43.0971C85.5732 43.1533 85.3779 43.1809 85.1817 43.1789C84.8768 43.1797 84.5743 43.1255 84.2888 43.0187C83.9965 42.9097 83.7281 42.7454 83.498 42.5347L83.9241 42.0269C84.1019 42.1844 84.3017 42.3153 84.5171 42.4154C84.7322 42.5083 84.9645 42.5547 85.1988 42.5518C85.3829 42.5608 85.5652 42.5119 85.7202 42.412C85.7808 42.3705 85.83 42.3144 85.8634 42.2489C85.8967 42.1834 85.9131 42.1106 85.9111 42.0371C85.9131 41.9704 85.9003 41.904 85.8736 41.8429C85.8425 41.7787 85.7956 41.7236 85.7373 41.6827C85.6506 41.6257 85.5566 41.581 85.4578 41.5497C85.3085 41.4958 85.156 41.4514 85.0011 41.4168C84.8059 41.3728 84.6135 41.317 84.4251 41.2498C84.2727 41.1957 84.13 41.1175 84.0025 41.0181C83.8906 40.9263 83.8019 40.8096 83.7434 40.6772C83.6808 40.5261 83.6507 40.3636 83.6548 40.2001C83.6524 40.0343 83.6873 39.87 83.7571 39.7195C83.8243 39.5772 83.9206 39.4506 84.04 39.348C84.1667 39.2402 84.3139 39.1591 84.4728 39.1095C84.6512 39.052 84.8375 39.0232 85.0249 39.0243C85.2963 39.0207 85.5662 39.0645 85.8225 39.1538C86.0621 39.2449 86.2863 39.3725 86.4871 39.5321L86.1088 40.0672C85.9392 39.9426 85.7549 39.8396 85.56 39.7604C85.3867 39.6907 85.2016 39.6548 85.0147 39.6548C84.842 39.643 84.6706 39.6925 84.5307 39.7945C84.4774 39.834 84.4339 39.8854 84.4038 39.9445C84.3736 40.0036 84.3576 40.069 84.3569 40.1353C84.3559 40.2045 84.3699 40.2731 84.3978 40.3364Z" fill="#1A3875"/>
<path d="M92.1717 40.3364C92.2046 40.4033 92.2553 40.4599 92.3183 40.5C92.4093 40.5586 92.5079 40.6044 92.6114 40.6363C92.7679 40.6895 92.9271 40.7338 93.0886 40.7692C93.2795 40.8167 93.4673 40.8759 93.6509 40.9464C93.7988 41.0036 93.9359 41.0854 94.0565 41.1884C94.1645 41.2806 94.2487 41.3976 94.3019 41.5292C94.3624 41.6677 94.3915 41.8179 94.3871 41.9689C94.3907 42.1451 94.3546 42.3198 94.2814 42.4801C94.2125 42.6271 94.1125 42.7573 93.9883 42.8619C93.8534 42.9681 93.6996 43.0479 93.535 43.097C93.3459 43.1533 93.1495 43.1808 92.9522 43.1788C92.6474 43.1791 92.345 43.1249 92.0593 43.0186C91.7685 42.9087 91.5013 42.7445 91.272 42.5347L91.698 42.0268C91.8747 42.1858 92.0747 42.3169 92.291 42.4154C92.5061 42.5083 92.7384 42.5548 92.9727 42.5517C93.1569 42.5612 93.3394 42.5123 93.4941 42.412C93.5558 42.3713 93.6061 42.3155 93.6401 42.2498C93.6741 42.1842 93.6907 42.111 93.6884 42.0371C93.6889 41.9705 93.6761 41.9045 93.6509 41.8428C93.6185 41.7785 93.5704 41.7235 93.5112 41.6826C93.4254 41.6263 93.3326 41.5816 93.2351 41.5497C93.0847 41.4958 92.931 41.4514 92.775 41.4168C92.5811 41.3723 92.3899 41.3165 92.2024 41.2498C92.0497 41.1964 91.9069 41.1181 91.7798 41.018C91.6669 40.9273 91.578 40.8103 91.5208 40.6772C91.4565 40.5266 91.4263 40.3637 91.4322 40.2C91.4297 40.0342 91.4647 39.87 91.5344 39.7195C91.6005 39.5765 91.697 39.4497 91.8173 39.348C91.9441 39.2402 92.0913 39.159 92.2501 39.1094C92.4285 39.0519 92.6149 39.0232 92.8023 39.0242C93.0736 39.0212 93.3434 39.065 93.5998 39.1537C93.8395 39.2449 94.0637 39.3725 94.2644 39.532L93.8827 40.0671C93.7143 39.9427 93.5311 39.8396 93.3374 39.7604C93.1628 39.6906 92.9766 39.6548 92.7886 39.6547C92.6159 39.6429 92.4445 39.6924 92.3047 39.7945C92.2521 39.8345 92.2095 39.886 92.1799 39.9451C92.1504 40.0042 92.1348 40.0692 92.1343 40.1353C92.1322 40.2042 92.145 40.2728 92.1717 40.3364Z" fill="#1A3875"/>
<path d="M97.1445 39.0924V43.1243H96.4424V39.0924H97.1445Z" fill="#1A3875"/>
<path d="M101.395 42.1155H101.371L100.11 40.2273V43.1073H99.4077V39.0924H100.161L101.388 40.9976L102.625 39.0924H103.382V43.1243H102.676V40.2171L101.395 42.1155Z" fill="#1A3875"/>
<path d="M108.576 41.0283C108.496 41.1964 108.38 41.3444 108.235 41.4612C108.081 41.5799 107.907 41.6689 107.72 41.7236C107.517 41.7833 107.306 41.8132 107.093 41.8122H106.289V43.1074H105.587V39.0925H107.179C107.394 39.0908 107.607 39.123 107.812 39.1879C107.99 39.2461 108.155 39.3387 108.296 39.4606C108.428 39.5788 108.533 39.7241 108.603 39.8866C108.676 40.0637 108.712 40.2539 108.709 40.4455C108.709 40.6473 108.664 40.8466 108.576 41.0283ZM107.738 39.8968C107.552 39.7683 107.329 39.7048 107.104 39.7162H106.275V41.1715H107.104C107.333 41.1848 107.559 41.1145 107.741 40.9738C107.818 40.9093 107.879 40.8283 107.919 40.7367C107.96 40.6452 107.979 40.5457 107.976 40.4455C107.984 40.3416 107.966 40.2374 107.924 40.1418C107.883 40.0462 107.819 39.9622 107.738 39.8968Z" fill="#1A3875"/>
<path d="M110.607 39.0924H111.31V42.4836H113.429V43.1243H110.607V39.0924Z" fill="#1A3875"/>
<path d="M116.095 39.0924V43.1243H115.393V39.0924H116.095Z" fill="#1A3875"/>
<path d="M121.37 39.7161H119.077V40.8272H121.122V41.4782H119.077V43.1209H118.375V39.0924H121.37V39.7161Z" fill="#1A3875"/>
<path d="M124.06 39.0924V43.1243H123.357V39.0924H124.06Z" fill="#1A3875"/>
<path d="M129.304 39.7161H127.024V40.7386H129.045V41.3759H127.024V42.4529H129.332V43.0937H126.322V39.0924H129.304V39.7161Z" fill="#1A3875"/>
<path d="M134.843 41.8839C134.743 42.1259 134.593 42.3442 134.403 42.5246C134.207 42.7103 133.975 42.8551 133.722 42.9506C133.446 43.0581 133.152 43.1113 132.856 43.1074H131.353V39.0925H132.856C133.152 39.0896 133.445 39.1416 133.722 39.2459C133.975 39.3404 134.206 39.484 134.403 39.6685C134.592 39.8496 134.742 40.0677 134.843 40.3093C134.948 40.5609 135.001 40.8309 135 41.1034C134.998 41.3712 134.945 41.6362 134.843 41.8839ZM134.161 40.5444C134.097 40.3815 134.001 40.2331 133.879 40.1082C133.752 39.983 133.601 39.8844 133.435 39.8185C133.252 39.7481 133.056 39.7134 132.859 39.7162H132.062V42.4667H132.859C133.056 42.4706 133.251 42.4371 133.435 42.3678C133.601 42.3043 133.751 42.2081 133.879 42.085C134.002 41.9606 134.098 41.8121 134.161 41.6487C134.231 41.4731 134.266 41.2855 134.264 41.0966C134.263 40.9072 134.226 40.7198 134.155 40.5444H134.161Z" fill="#1A3875"/>
<path d="M53.5638 27.6373H51.6824V33.4006H46.4951V14.5531H54.6578C58.7204 14.5531 61.6617 17.2797 61.6617 21.2196C61.6823 22.2952 61.4147 23.3567 60.8868 24.294C60.3588 25.2313 59.5896 26.0103 58.6591 26.5501L62.4081 33.4006H56.6142L53.5638 27.6373ZM51.6824 23.2679H54.0682C55.5201 23.2679 56.3551 22.392 56.3551 21.223C56.3551 20.054 55.5201 19.1781 54.0682 19.1781H51.6824V23.2679Z" fill="#F4A70F"/>
<path d="M63.8086 26.1411C63.8086 21.6388 67.2168 18.401 71.9543 18.401C76.6917 18.401 80.1033 21.6388 80.1033 26.1411C80.1033 30.6434 76.6781 33.8778 71.9509 33.8778C67.2236 33.8778 63.8086 30.6263 63.8086 26.1411ZM71.9543 29.3891C73.7811 29.3891 75.0898 28.0633 75.0898 26.1445C75.0898 24.2257 73.7811 22.8965 71.9543 22.8965C70.1275 22.8965 68.8221 24.2223 68.8221 26.1445C68.8221 28.0667 70.1309 29.3891 71.9543 29.3891Z" fill="#F4A70F"/>
<path d="M116.452 23.9666C116.452 29.4641 112.414 33.4006 106.729 33.4006H99.1045V14.5531H106.715C112.431 14.5531 116.452 18.4623 116.452 23.9666ZM111.132 23.9666C111.132 21.1719 109.271 19.3178 106.483 19.3178H104.329V28.6495H106.497C109.271 28.6495 111.146 26.7477 111.146 23.9666H111.132Z" fill="#F4A70F"/>
<path d="M118.569 26.1411C118.569 21.6388 121.978 18.401 126.718 18.401C131.459 18.401 134.864 21.6388 134.864 26.1411C134.864 30.6434 131.439 33.8846 126.718 33.8846C121.998 33.8846 118.569 30.6263 118.569 26.1411ZM126.718 29.3891C128.542 29.3891 129.851 28.0633 129.851 26.1445C129.851 24.2257 128.542 22.8965 126.718 22.8965C124.895 22.8965 123.583 24.2223 123.583 26.1445C123.583 28.0667 124.892 29.3891 126.718 29.3891Z" fill="#F4A70F"/>
<path d="M80.7305 33.4585L86.5722 18.9292H91.1051L97.0252 33.4585H91.5414L88.7943 24.8527L86.0678 33.4585H80.7305Z" fill="#F4A70F"/>
</svg>
