<svg width="135" height="43" viewBox="0 0 135 43" fill="none" xmlns="http://www.w3.org/2000/svg">
<path d="M8.86048 21.836L8.6942 21.6018L8.67385 21.5747L0.00390625 30.2345V42.9934H23.3635L9.9158 23.3596L8.86048 21.836Z" fill="white"/>
<path d="M27.7024 27.3266C29.852 26.1137 31.636 24.3451 32.8676 22.2061C34.0992 20.0671 34.7331 17.6363 34.7028 15.1683C34.7028 9.51844 32.09 5.02907 27.794 2.44336L21.496 8.74476C23.3271 10.1772 24.5411 12.2556 24.8893 14.5541C25.2578 16.8623 24.7045 19.2229 23.3488 21.127C22.548 22.2841 21.7234 23.4548 20.9293 24.5848C20.4645 25.2635 19.9962 25.915 19.5313 26.5835C18.9137 27.4623 18.2995 28.348 17.6853 29.2302L16.915 30.3365L25.5918 42.9936H37.0951V42.6882L27.7024 27.3266Z" fill="white"/>
<path d="M18.1714 9.01649C17.6008 8.81184 17.0048 8.68625 16.4001 8.64322H16.3526H16.3255C14.9262 8.53049 13.5261 8.85032 12.3146 9.55943H12.2942C10.9127 10.3215 9.81689 11.5127 9.17234 12.9527C9.11126 13.0885 9.05697 13.2276 9.00607 13.3667C8.92226 13.5754 8.8531 13.7897 8.79908 14.0081C8.38524 15.5214 8.47577 17.1284 9.05697 18.5857L10.7706 16.872C10.7044 16.5494 10.6726 16.2207 10.6756 15.8914C10.6828 14.5611 11.216 13.2877 12.1589 12.3493C13.1017 11.4109 14.3776 10.8837 15.7079 10.8828C16.03 10.8829 16.3514 10.9125 16.6682 10.971L18.5209 9.1183L18.1714 9.01649Z" fill="#F4A70F"/>
<path d="M19.2633 12.3724C19.9653 13.0754 20.4429 13.9711 20.6354 14.9458C20.828 15.9205 20.7269 16.9304 20.3449 17.8476C19.963 18.7648 19.3174 19.548 18.49 20.098C17.6626 20.648 16.6905 20.94 15.6969 20.9371H15.6664C14.8473 20.9318 14.0419 20.7273 13.3194 20.3413C12.597 19.9552 11.9794 19.3992 11.5198 18.7213L10.0063 20.2347L11.4282 22.3114C12.5581 23.9232 13.6847 25.5452 14.7841 27.1265L15.853 28.6671L16.1924 28.1818L18.0417 25.5317C18.5077 24.853 18.9749 24.1868 19.4432 23.533C20.2338 22.403 21.055 21.2357 21.8524 20.082C22.9356 18.5602 23.378 16.6738 23.0842 14.8291C22.9389 13.8823 22.6081 12.9735 22.1108 12.1548C21.6135 11.336 20.9595 10.6235 20.1863 10.0581L18.4897 11.7548C18.7649 11.9402 19.0217 12.1515 19.2565 12.3859" fill="#F4A70F"/>
<path d="M15.3473 0H13.2163C15.2679 1.1069 16.9981 2.72599 18.2384 4.69975C18.845 5.6245 19.3426 6.61627 19.7213 7.65533L19.9012 7.73678L20.7054 6.93256C19.9483 5.0348 18.8357 3.29912 17.4274 1.81882C16.7963 1.14485 16.0995 0.535552 15.3473 0Z" fill="white"/>
<path d="M23.2917 0.597145C22.7352 0.456887 22.1629 0.343777 21.5747 0.257812C22.4796 1.32545 23.2658 2.48827 23.9195 3.72579L24.795 2.84692C24.7271 2.73155 24.6626 2.61617 24.5914 2.50759C24.1842 1.83571 23.751 1.19889 23.2917 0.597145Z" fill="white"/>
<path d="M24.4692 0.939941C24.7679 1.39238 25.0438 1.8584 25.2972 2.33799L26.0811 1.55413C25.5653 1.32791 25.028 1.12318 24.4692 0.939941Z" fill="white"/>
<path d="M11.2725 1.77146C7.79434 0.305547 4.31619 0.210533 0.858398 1.71717C1.15362 1.99203 1.44205 2.27367 1.72031 2.5655C5.35795 1.13352 8.84628 1.5475 12.2396 3.5292C13.597 4.31675 14.7284 5.44109 15.5243 6.79358H16.5152H16.5932L16.8783 6.83769C16.3381 5.81225 15.6331 4.88254 14.7914 4.0857C13.7709 3.10419 12.578 2.31961 11.2725 1.77146Z" fill="white"/>
<path d="M15.5017 2.34479C14.3794 1.34838 13.0922 0.554946 11.6978 0H0.520181C0.347122 0.0746531 0.180847 0.159483 0.00439453 0.240923V1.49985C2.54599 0.0814392 5.43371 -0.254502 8.39269 0.230743C11.2125 0.780462 13.3401 1.79507 15.0504 3.44083C16.1083 4.44854 16.9681 5.64554 17.5852 6.96988C17.7107 6.99024 17.8329 7.014 17.9585 7.04114C18.3174 7.12636 18.6709 7.23288 19.0172 7.36012C18.8366 6.91426 18.6327 6.47819 18.4064 6.05369C17.6665 4.65441 16.6829 3.39842 15.5017 2.34479Z" fill="white"/>
<path d="M0.801339 2.73518C0.796911 2.61067 0.743398 2.49296 0.652483 2.40777C0.561567 2.32257 0.440637 2.27681 0.316096 2.28048C0.203415 2.28097 0.093905 2.31786 0.00390625 2.38567V3.06433C0.0903818 3.12904 0.194582 3.16575 0.30252 3.16953C0.426016 3.17702 0.547509 3.13569 0.640817 3.05444C0.734124 2.97319 0.791775 2.85853 0.801339 2.73518Z" fill="white"/>
<path d="M18.4124 1.87651C18.7517 1.64576 19.0504 1.40823 19.3727 1.1707C19.0164 0.763496 18.6466 0.373265 18.2563 0H16.5054C17.1874 0.576865 17.7847 1.25553 18.4124 1.87651Z" fill="white"/>
<path d="M20.2275 4.39756C20.5669 5.07622 20.9232 5.72435 21.2455 6.39962L22.1753 5.46985C21.8822 4.8532 21.5559 4.25284 21.198 3.67139C20.8655 3.91231 20.5397 4.14645 20.2275 4.39756Z" fill="white"/>
<path d="M1.48291 7.7268C1.82224 7.9304 2.16157 8.13739 2.50091 8.34778C3.88538 6.92937 5.78565 6.44073 7.85896 6.99045C8.85674 7.23547 9.74624 7.80185 10.3904 8.60228C10.7032 8.37187 11.0308 8.16217 11.371 7.97451C9.09413 5.04607 4.06523 4.88999 1.48291 7.7268Z" fill="white"/>
<path d="M20.3525 2.75866C20.3628 2.66011 20.343 2.56076 20.2958 2.47363C20.2487 2.38649 20.1763 2.31563 20.0882 2.27031C20.0001 2.22499 19.9003 2.20732 19.802 2.21963C19.7037 2.23194 19.6114 2.27364 19.5372 2.33927C19.463 2.40491 19.4103 2.49143 19.386 2.5875C19.3618 2.68357 19.3671 2.78473 19.4013 2.87772C19.4356 2.97071 19.497 3.0512 19.5778 3.10867C19.6585 3.16614 19.7546 3.1979 19.8537 3.19979C19.9155 3.20393 19.9775 3.19577 20.0361 3.17578C20.0947 3.15579 20.1488 3.12437 20.1952 3.08334C20.2416 3.04232 20.2794 2.9925 20.3064 2.93677C20.3334 2.88103 20.3491 2.82049 20.3525 2.75866Z" fill="white"/>
<path d="M20.6962 0.136341C20.1363 0.0718682 19.5662 0.0345447 18.9995 0.0175781C20.5106 1.44032 21.7522 3.12446 22.6643 4.98879L23.5024 4.15064C23.3056 3.77738 23.0986 3.40751 22.8679 3.04442C22.226 2.01647 21.4995 1.04374 20.6962 0.136341Z" fill="white"/>
<path d="M7.48279 19.6333C5.3572 21.7436 3.02051 23.63 0.509513 25.2628C0.34324 25.3714 0.170179 25.4766 0.00390625 25.5818V26.8882V27.6348L7.65246 19.9862C7.59477 19.8708 7.53708 19.7521 7.48279 19.6333Z" fill="white"/>
<path d="M6.76902 11.1879C6.77928 11.0892 6.75946 10.9897 6.71216 10.9025C6.66485 10.8153 6.59228 10.7444 6.50397 10.6991C6.41565 10.6539 6.31572 10.6364 6.21729 10.649C6.11886 10.6616 6.02654 10.7036 5.95243 10.7696C5.87832 10.8356 5.8259 10.9224 5.80203 11.0187C5.77817 11.115 5.78399 11.2163 5.81873 11.3093C5.85346 11.4022 5.91549 11.4825 5.99667 11.5396C6.07785 11.5966 6.17438 11.6278 6.2736 11.629C6.33512 11.6327 6.39676 11.6242 6.45498 11.604C6.5132 11.5838 6.56687 11.5523 6.61289 11.5113C6.65892 11.4703 6.6964 11.4207 6.7232 11.3652C6.74999 11.3097 6.76556 11.2494 6.76902 11.1879Z" fill="white"/>
<path d="M7.84197 9.44673C7.29274 9.05208 6.61691 8.87462 5.94465 8.94855C5.27239 9.02248 4.65127 9.34256 4.20093 9.84714C3.25759 10.9194 2.3346 12.0087 1.40823 13.0946C1.74756 13.3015 2.08689 13.5221 2.3855 13.7528C3.23044 12.7722 4.08217 11.7881 4.91693 10.8108C5.08237 10.5984 5.27651 10.41 5.49379 10.2509C5.73441 10.1013 6.01349 10.0251 6.29679 10.0317C6.58009 10.0383 6.8553 10.1275 7.08865 10.2883C7.28899 10.4314 7.42721 10.6455 7.47513 10.887C7.52305 11.1285 7.47706 11.3792 7.34654 11.5879C7.19299 11.8901 7.00512 12.1737 6.78664 12.4329C4.76724 14.9 2.49235 17.1464 0 19.1347V20.5395C0.637945 20.0475 1.26571 19.5453 1.8799 19.0261C3.66742 17.5188 5.33621 15.8761 6.87148 14.1126C7.00144 13.4623 7.20287 12.8284 7.4721 12.2225C7.7604 11.5773 8.12129 10.9671 8.54778 10.4036C8.42381 10.0159 8.1758 9.67968 7.84197 9.44673Z" fill="white"/>
<path d="M8.18093 2.38552C6.76384 2.11717 5.30646 2.146 3.90108 2.47018C2.49571 2.79436 1.17296 3.40684 0.0166016 4.26882V5.7517C0.125188 5.65329 0.230381 5.55149 0.355934 5.45987C1.9593 4.08898 3.99079 3.32055 6.10006 3.2871C8.20933 3.25365 10.2642 3.95728 11.9102 5.27664C12.5615 5.80208 13.133 6.41931 13.6069 7.10903C13.858 7.05134 14.1057 7.00723 14.35 6.96312L14.8183 6.87489C13.4575 4.64887 11.0585 2.97935 8.18093 2.38552Z" fill="white"/>
<path d="M6.0033 12.2734C5.66397 12.0732 5.34839 11.8662 5.01924 11.6592C3.53044 13.5679 1.84988 15.319 0.00390625 16.8849V18.3372L0.261802 18.1336C2.38919 16.4015 4.31512 14.4358 6.0033 12.2734Z" fill="white"/>
<path d="M1.14354 14.7167C1.15377 14.6181 1.13402 14.5188 1.08685 14.4316C1.03968 14.3445 0.96731 14.2736 0.879201 14.2283C0.791091 14.183 0.691349 14.1653 0.593034 14.1776C0.494719 14.1899 0.402411 14.2316 0.32819 14.2973C0.253968 14.3629 0.20129 14.4494 0.177055 14.5455C0.15282 14.6416 0.158155 14.7427 0.192361 14.8357C0.226566 14.9287 0.288049 15.0092 0.368763 15.0667C0.449477 15.1241 0.54566 15.1559 0.644724 15.1578C0.769317 15.1652 0.891776 15.123 0.985273 15.0403C1.07877 14.9576 1.13568 14.8412 1.14354 14.7167Z" fill="white"/>
<path d="M1.34764 9.46722C1.3579 9.36852 1.33807 9.26903 1.29077 9.1818C1.24347 9.09457 1.1709 9.02368 1.08258 8.97843C0.994267 8.93319 0.894336 8.91571 0.795907 8.92828C0.697478 8.94085 0.60515 8.9829 0.531042 9.04888C0.456934 9.11487 0.404509 9.20172 0.380648 9.29804C0.356787 9.39436 0.362607 9.49563 0.397341 9.58859C0.432075 9.68154 0.494103 9.76181 0.575281 9.81887C0.656459 9.87594 0.75299 9.90713 0.852211 9.90835C0.913729 9.91202 0.975371 9.90351 1.03359 9.88331C1.09182 9.86311 1.14548 9.83162 1.1915 9.79063C1.23753 9.74965 1.27502 9.69998 1.30181 9.64448C1.3286 9.58899 1.34417 9.52875 1.34764 9.46722Z" fill="white"/>
<path d="M8.11395 4.05115C5.22963 3.40642 2.76607 4.24796 0.723294 6.11429C0.469927 6.3473 0.229756 6.59426 0.00390625 6.85403V8.63892C0.115886 8.49979 0.234652 8.36745 0.343238 8.22494C0.757942 7.67431 1.2275 7.16724 1.74468 6.71151C2.45158 6.07327 3.28315 5.58855 4.18687 5.28796C5.09059 4.98738 6.04683 4.87746 6.99518 4.96515C7.94353 5.05285 8.86339 5.33624 9.69667 5.79744C10.53 6.25865 11.2585 6.88763 11.8364 7.64467L11.8771 7.70236C12.2074 7.54486 12.5474 7.40885 12.8951 7.29516L12.9902 7.26802C11.8549 5.59226 10.1012 4.43534 8.11395 4.05115Z" fill="white"/>
<path d="M0.00390625 10.9028V11.2591C0.0649861 11.1981 0.126065 11.137 0.183752 11.0725L0.00390625 10.9028Z" fill="white"/>
<path d="M7.2215 7.47564C6.44312 7.29644 5.63181 7.31963 4.86493 7.54298C4.09805 7.76633 3.40116 8.18241 2.84072 8.75153C2.51836 9.09086 2.26386 9.47431 1.96185 9.82382C1.33748 10.5568 0.679177 11.2558 0.00390625 11.9379V13.5768C1.28201 12.3728 2.46739 11.074 3.54993 9.69148C3.85717 9.29905 4.25192 8.98391 4.70264 8.77121C5.15337 8.55852 5.64758 8.45417 6.14582 8.46649C6.70128 8.43115 7.2565 8.53932 7.75807 8.7806C8.25964 9.02187 8.6907 9.38814 9.00979 9.84418C9.27582 9.54932 9.5603 9.27163 9.86151 9.01281C9.19268 8.20234 8.2565 7.65724 7.2215 7.47564Z" fill="white"/>
<path d="M7.19436 18.9009C7.04966 18.4846 6.93623 18.0581 6.85502 17.625C5.58557 18.9786 4.22507 20.2439 2.78304 21.4119C1.88381 22.1381 0.954036 22.8236 0.00390625 23.4887V24.863C1.70496 23.7179 3.33035 22.4643 4.86993 21.1099C5.67754 20.4075 6.44443 19.6678 7.19436 18.9009Z" fill="white"/>
<path d="M6.74983 16.9839C6.68759 16.4478 6.67282 15.9073 6.70572 15.3687C4.83927 17.3928 2.80509 19.2556 0.624885 20.9371C0.421285 21.0932 0.210899 21.2425 0.00390625 21.3986V22.7322C0.441645 22.4302 0.872601 22.1282 1.29677 21.816C3.25254 20.3682 5.07725 18.7513 6.74983 16.9839Z" fill="white"/>
<path d="M46.1553 38.9214H46.8645V42.2977H48.9751V42.9357H46.1655L46.1553 38.9214Z" fill="white"/>
<path d="M54.5101 41.707C54.4129 41.9604 54.2651 42.1913 54.0758 42.3857C53.8806 42.5774 53.6501 42.7295 53.3971 42.8336C53.1302 42.9475 52.8423 43.0042 52.5522 42.9999C52.2602 43.0036 51.9705 42.9482 51.7004 42.837C51.4539 42.7335 51.2303 42.5824 51.0421 42.3925C50.8577 42.2026 50.7114 41.9791 50.6112 41.7342C50.4076 41.2185 50.4076 40.6448 50.6112 40.1291C50.7117 39.8817 50.8605 39.6567 51.0489 39.4674C51.2466 39.2679 51.4826 39.1104 51.7427 39.0043C52.0027 38.8982 52.2815 38.8456 52.5623 38.8498C52.8532 38.8465 53.1417 38.9019 53.4107 39.0127C53.6564 39.1149 53.8793 39.2651 54.0664 39.4544C54.2534 39.6438 54.4008 39.8685 54.4999 40.1155C54.6031 40.3711 54.6561 40.6442 54.656 40.9198C54.6579 41.1891 54.6084 41.4563 54.5101 41.707ZM53.8314 40.3497C53.7679 40.1813 53.6723 40.0269 53.5498 39.895C53.4286 39.7639 53.282 39.6588 53.1188 39.5862C52.9462 39.5081 52.7586 39.4687 52.5691 39.4708C52.3865 39.4684 52.2053 39.504 52.0371 39.5753C51.8688 39.6465 51.7172 39.7519 51.5919 39.8848C51.4716 40.0177 51.3772 40.1719 51.3136 40.3395C51.1825 40.6966 51.1825 41.0886 51.3136 41.4457C51.3784 41.6135 51.4739 41.7677 51.5952 41.9004C51.7219 42.0342 51.8745 42.1408 52.0436 42.2137C52.2128 42.2867 52.3951 42.3244 52.5793 42.3246C52.7673 42.3265 52.9536 42.2883 53.1256 42.2126C53.2874 42.1423 53.4329 42.0395 53.5532 41.9106C53.6742 41.7782 53.7686 41.6239 53.8314 41.4559C53.9 41.2796 53.9346 41.0919 53.9332 40.9028C53.9301 40.7179 53.8933 40.535 53.8247 40.3633L53.8314 40.3497Z" fill="white"/>
<path d="M59.943 42.6028C59.6854 42.7662 59.4002 42.8812 59.1014 42.9421C58.9347 42.9738 58.7655 42.9897 58.5958 42.9896C58.3044 42.9942 58.0149 42.9411 57.7441 42.8335C57.4985 42.7358 57.2759 42.5882 57.0901 42.4001C56.9044 42.2121 56.7597 41.9876 56.665 41.7408C56.5641 41.4789 56.5135 41.2003 56.5157 40.9197C56.5142 40.6453 56.566 40.3733 56.6684 40.1188C56.7653 39.8719 56.9107 39.6469 57.0959 39.4571C57.2891 39.2582 57.5209 39.1008 57.777 38.9946C58.0332 38.8884 58.3083 38.8356 58.5856 38.8396C58.7459 38.8388 58.9059 38.8513 59.0641 38.8769C59.2004 38.8998 59.3345 38.935 59.4645 38.9821C59.5826 39.0279 59.6962 39.0847 59.8038 39.1517C59.9155 39.2223 60.0221 39.3005 60.1228 39.3859L59.6749 39.9186C59.5968 39.8542 59.5188 39.7931 59.4407 39.7388C59.361 39.6854 59.2757 39.641 59.1862 39.6064C59.0935 39.567 58.9968 39.5374 58.8978 39.5182C58.7859 39.4975 58.6723 39.4873 58.5585 39.4877C58.3872 39.4886 58.2181 39.5268 58.063 39.5997C57.9049 39.6724 57.7638 39.7776 57.6491 39.9085C57.5288 40.0394 57.4354 40.1928 57.3742 40.3598C57.3056 40.536 57.2711 40.7237 57.2724 40.9129C57.2711 41.1083 57.3044 41.3025 57.3708 41.4863C57.431 41.6566 57.5257 41.8126 57.6491 41.9444C57.7716 42.0723 57.918 42.1749 58.08 42.2464C58.2561 42.3205 58.4455 42.3574 58.6365 42.355C58.8186 42.3557 58.9997 42.3271 59.1727 42.2702C59.3285 42.221 59.4753 42.1464 59.607 42.0496V41.2963H58.589V40.6821H60.2857V42.3788C60.1764 42.4608 60.0619 42.5356 59.943 42.6028Z" fill="white"/>
<path d="M63.1028 38.9214V42.9357H62.4038V38.9214H63.1028Z" fill="white"/>
<path d="M65.9867 40.1601C66.0205 40.2261 66.0708 40.2822 66.1326 40.323C66.2245 40.3813 66.3238 40.427 66.4278 40.4588C66.5824 40.5118 66.7399 40.5559 66.8995 40.5911C67.0908 40.6379 67.2789 40.6969 67.4628 40.7676C67.6096 40.8253 67.746 40.9067 67.8666 41.0085C67.9741 41.1003 68.0579 41.2167 68.1109 41.3478C68.1692 41.4863 68.1981 41.6353 68.1957 41.7856C68.1977 41.9608 68.1618 42.1344 68.0905 42.2946C68.0218 42.4417 67.9209 42.5716 67.7953 42.6746C67.6614 42.7811 67.5082 42.8606 67.344 42.9087C67.157 42.965 66.9624 42.9924 66.7671 42.9902C66.4636 42.9907 66.1625 42.9367 65.8781 42.8307C65.5886 42.7212 65.3226 42.5577 65.0942 42.3488L65.5184 41.8432C65.6943 42.0015 65.8935 42.132 66.1088 42.2301C66.3229 42.323 66.5542 42.3693 66.7875 42.3658C66.9708 42.3748 67.1524 42.3261 67.3067 42.2267C67.3677 42.186 67.4173 42.1303 67.4505 42.0649C67.4838 41.9995 67.4997 41.9267 67.4967 41.8534C67.4988 41.787 67.486 41.7209 67.4594 41.66C67.4295 41.5955 67.3826 41.5403 67.3237 41.5005C67.2374 41.4438 67.1438 41.3993 67.0454 41.3682C66.8968 41.3144 66.7449 41.2702 66.5907 41.2358C66.3965 41.1915 66.205 41.136 66.0172 41.0696C65.8662 41.0165 65.7251 40.9385 65.5998 40.8388C65.4865 40.7486 65.3968 40.6321 65.3386 40.4995C65.2762 40.349 65.2462 40.1872 65.2503 40.0244C65.2479 39.8593 65.2827 39.6958 65.3521 39.546C65.419 39.4043 65.515 39.2782 65.6338 39.1761C65.7609 39.07 65.9072 38.9894 66.0647 38.9386C66.2424 38.8819 66.4279 38.8533 66.6145 38.8537C66.8846 38.8502 67.1533 38.8938 67.4085 38.9827C67.6538 39.0702 67.8831 39.1974 68.0872 39.3593L67.7105 39.8921C67.5417 39.7681 67.3582 39.6655 67.1642 39.5867C66.9916 39.5172 66.8073 39.4815 66.6212 39.4815C66.4493 39.4698 66.2786 39.519 66.1394 39.6206C66.0863 39.6599 66.043 39.7111 66.013 39.7699C65.9829 39.8288 65.967 39.8939 65.9663 39.9599C65.9588 40.0274 65.9658 40.0956 65.9867 40.1601Z" fill="white"/>
<path d="M71.8127 42.9187H71.1001V39.5593H69.8276V38.9214H73.0852V39.5763H71.8127V42.9187Z" fill="white"/>
<path d="M75.7385 38.9214V42.9357H75.0293V38.9214H75.7385Z" fill="white"/>
<path d="M81.1581 42.5727C81.0442 42.6583 80.9227 42.7333 80.795 42.7966C80.6584 42.8603 80.515 42.9081 80.3675 42.9391C80.1986 42.9717 80.027 42.9876 79.8551 42.9866C79.5842 42.9906 79.3152 42.9398 79.0645 42.8372C78.8137 42.7345 78.5863 42.5822 78.396 42.3894C78.2121 42.1998 78.0669 41.9762 77.9684 41.7311C77.767 41.2092 77.767 40.631 77.9684 40.1091C78.0669 39.863 78.2121 39.6383 78.396 39.4474C78.5817 39.2553 78.8045 39.1029 79.0509 38.9995C79.3149 38.8883 79.5991 38.8328 79.8856 38.8366C80.0542 38.8356 80.2224 38.8516 80.3878 38.8841C80.5315 38.9107 80.6716 38.954 80.8052 39.0131C80.925 39.0665 81.0387 39.1324 81.1445 39.2099C81.2513 39.2859 81.3523 39.3699 81.4466 39.461L80.9952 39.9836C80.8408 39.841 80.6686 39.7189 80.4829 39.6205C80.2931 39.5268 80.0836 39.4802 79.872 39.4847C79.6884 39.4828 79.5066 39.521 79.3393 39.5967C79.1813 39.67 79.0385 39.7725 78.9185 39.8987C78.7982 40.0297 78.7048 40.183 78.6437 40.35C78.5775 40.5281 78.5442 40.7166 78.5453 40.9065C78.5448 41.0975 78.5781 41.2871 78.6437 41.4664C78.7044 41.6346 78.7978 41.7892 78.9185 41.9211C79.0378 42.0491 79.1807 42.1528 79.3393 42.2265C79.5066 42.3023 79.6884 42.3405 79.872 42.3385C80.0907 42.3454 80.3077 42.2976 80.5032 42.1994C80.6916 42.0951 80.866 41.9674 81.0224 41.8193L81.4771 42.2774C81.3774 42.3828 81.2709 42.4814 81.1581 42.5727Z" fill="white"/>
<path d="M84.0286 40.1601C84.0625 40.2261 84.1127 40.2822 84.1746 40.323C84.2655 40.3807 84.3636 40.4264 84.4664 40.4588C84.6223 40.5113 84.7809 40.5554 84.9414 40.5911C85.1315 40.6384 85.3185 40.6973 85.5013 40.7676C85.6492 40.8253 85.7867 40.9067 85.9085 41.0085C86.014 41.1022 86.0974 41.2181 86.1529 41.3478C86.2101 41.4865 86.2378 41.6356 86.2343 41.7856C86.2379 41.961 86.202 42.1349 86.1291 42.2946C86.0628 42.4423 85.9629 42.5724 85.8373 42.6746C85.7034 42.7811 85.5501 42.8606 85.386 42.9087C85.1989 42.9648 85.0044 42.9922 84.8091 42.9902C84.5056 42.991 84.2044 42.937 83.9201 42.8307C83.6291 42.7222 83.3618 42.5586 83.1328 42.3488L83.557 41.8432C83.7341 42 83.9329 42.1303 84.1474 42.2301C84.3616 42.3225 84.5928 42.3688 84.8261 42.3658C85.0094 42.3748 85.191 42.3261 85.3453 42.2267C85.4056 42.1853 85.4546 42.1295 85.4878 42.0643C85.521 41.999 85.5373 41.9266 85.5353 41.8534C85.5373 41.787 85.5246 41.7209 85.498 41.66C85.467 41.5962 85.4203 41.5413 85.3622 41.5005C85.276 41.4438 85.1824 41.3993 85.084 41.3682C84.9354 41.3144 84.7835 41.2702 84.6293 41.2358C84.4349 41.192 84.2434 41.1365 84.0558 41.0696C83.9041 41.0157 83.762 40.9378 83.635 40.8388C83.5237 40.7475 83.4353 40.6312 83.3771 40.4995C83.3148 40.349 83.2848 40.1872 83.2889 40.0244C83.2865 39.8593 83.3213 39.6958 83.3907 39.546C83.4576 39.4043 83.5536 39.2782 83.6723 39.1761C83.7986 39.0687 83.9451 38.9879 84.1033 38.9386C84.2809 38.8813 84.4664 38.8527 84.653 38.8537C84.9232 38.8502 85.1919 38.8938 85.4471 38.9827C85.6857 39.0734 85.9089 39.2005 86.1088 39.3593L85.7321 39.8921C85.5633 39.7681 85.3798 39.6655 85.1858 39.5867C85.0132 39.5172 84.8289 39.4815 84.6428 39.4815C84.4709 39.4698 84.3002 39.519 84.161 39.6206C84.1079 39.6599 84.0646 39.7111 84.0346 39.7699C84.0046 39.8288 83.9886 39.8939 83.9879 39.9599C83.9869 40.0288 84.0008 40.0971 84.0286 40.1601Z" fill="white"/>
<path d="M91.7694 40.1601C91.8021 40.2268 91.8526 40.2831 91.9153 40.323C92.0059 40.3813 92.1041 40.427 92.2071 40.4587C92.3629 40.5116 92.5215 40.5558 92.6822 40.5911C92.8722 40.6383 93.0592 40.6973 93.2421 40.7675C93.3893 40.8244 93.5258 40.9059 93.6459 41.0084C93.7534 41.1002 93.8372 41.2166 93.8902 41.3478C93.9505 41.4856 93.9794 41.6351 93.975 41.7855C93.9787 41.9609 93.9427 42.1349 93.8698 42.2945C93.8012 42.4408 93.7016 42.5705 93.578 42.6745C93.4437 42.7803 93.2905 42.8598 93.1267 42.9087C92.9384 42.9647 92.7428 42.9921 92.5464 42.9901C92.243 42.9904 91.9419 42.9364 91.6574 42.8306C91.3679 42.7212 91.1019 42.5577 90.8735 42.3488L91.2977 41.8432C91.4736 42.0015 91.6728 42.1319 91.8881 42.23C92.1023 42.3226 92.3335 42.3688 92.5668 42.3658C92.7502 42.3752 92.9319 42.3265 93.086 42.2266C93.1474 42.1861 93.1974 42.1305 93.2313 42.0652C93.2652 41.9998 93.2817 41.9269 93.2794 41.8534C93.2798 41.7871 93.2672 41.7213 93.2421 41.6599C93.2098 41.596 93.162 41.5411 93.103 41.5005C93.0176 41.4444 92.9252 41.3999 92.8281 41.3681C92.6783 41.3144 92.5253 41.2702 92.37 41.2358C92.1769 41.1915 91.9865 41.136 91.7999 41.0695C91.6479 41.0163 91.5057 40.9384 91.3791 40.8388C91.2667 40.7484 91.1782 40.6319 91.1213 40.4994C91.0573 40.3495 91.0272 40.1873 91.033 40.0244C91.0306 39.8593 91.0654 39.6957 91.1348 39.5459C91.2006 39.4036 91.2967 39.2773 91.4165 39.176C91.5427 39.0687 91.6893 38.9879 91.8474 38.9385C92.025 38.8813 92.2106 38.8526 92.3971 38.8537C92.6673 38.8506 92.9359 38.8943 93.1912 38.9826C93.4298 39.0734 93.653 39.2004 93.8529 39.3593L93.4728 39.892C93.3052 39.7681 93.1228 39.6655 92.9299 39.5866C92.7561 39.5172 92.5707 39.4815 92.3836 39.4814C92.2116 39.4697 92.041 39.519 91.9017 39.6206C91.8494 39.6604 91.8069 39.7117 91.7775 39.7705C91.7481 39.8294 91.7326 39.8941 91.732 39.9599C91.73 40.0285 91.7427 40.0968 91.7694 40.1601Z" fill="white"/>
<path d="M96.7195 38.9214V42.9357H96.0205V38.9214H96.7195Z" fill="white"/>
<path d="M100.951 41.9313H100.927L99.6717 40.0514V42.9187H98.9727V38.9214H99.7226L100.944 40.8183L102.176 38.9214H102.929V42.9357H102.227V40.0412L100.951 41.9313Z" fill="white"/>
<path d="M108.102 40.8489C108.023 41.0162 107.907 41.1635 107.763 41.2798C107.61 41.398 107.436 41.4866 107.25 41.5411C107.047 41.6005 106.837 41.6303 106.626 41.6293H105.825V42.9188H105.126V38.9215H106.711C106.925 38.9197 107.138 38.9518 107.342 39.0165C107.519 39.0744 107.682 39.1666 107.824 39.2879C107.955 39.4056 108.059 39.5503 108.129 39.7121C108.202 39.8884 108.238 40.0778 108.234 40.2686C108.234 40.4695 108.189 40.6679 108.102 40.8489ZM107.267 39.7223C107.082 39.5943 106.86 39.5311 106.636 39.5424H105.811V40.9914H106.636C106.864 41.0046 107.09 40.9347 107.271 40.7946C107.347 40.7304 107.408 40.6497 107.448 40.5585C107.489 40.4674 107.508 40.3683 107.505 40.2686C107.512 40.1651 107.495 40.0613 107.453 39.9662C107.412 39.871 107.348 39.7873 107.267 39.7223Z" fill="white"/>
<path d="M110.123 38.9214H110.822V42.2977H112.933V42.9357H110.123V38.9214Z" fill="white"/>
<path d="M115.587 38.9214V42.9357H114.888V38.9214H115.587Z" fill="white"/>
<path d="M120.84 39.5424H118.556V40.6486H120.592V41.2967H118.556V42.9323H117.857V38.9214H120.84V39.5424Z" fill="white"/>
<path d="M123.517 38.9214V42.9357H122.818V38.9214H123.517Z" fill="white"/>
<path d="M128.739 39.5424H126.469V40.5604H128.481V41.1949H126.469V42.2672H128.766V42.9051H125.77V38.9214H128.739V39.5424Z" fill="white"/>
<path d="M134.254 41.7006C134.154 41.9416 134.005 42.1589 133.816 42.3386C133.62 42.5235 133.389 42.6677 133.137 42.7627C132.863 42.8697 132.57 42.9227 132.275 42.9188H130.779V38.9215H132.275C132.57 38.9186 132.862 38.9704 133.137 39.0742C133.389 39.1683 133.62 39.3113 133.816 39.495C134.004 39.6752 134.153 39.8924 134.254 40.1329C134.358 40.3834 134.411 40.6522 134.41 40.9236C134.408 41.1902 134.355 41.4541 134.254 41.7006ZM133.575 40.3671C133.511 40.2048 133.415 40.0571 133.293 39.9327C133.167 39.808 133.017 39.71 132.852 39.6443C132.669 39.5742 132.475 39.5396 132.279 39.5425H131.485V42.2809H132.279C132.474 42.2848 132.669 42.2514 132.852 42.1825C133.017 42.1192 133.167 42.0234 133.293 41.9008C133.416 41.777 133.512 41.6291 133.575 41.4665C133.644 41.2917 133.679 41.1049 133.677 40.9168C133.676 40.7283 133.639 40.5416 133.568 40.3671H133.575Z" fill="white"/>
<path d="M53.3297 27.5162H51.4566V33.2543H46.292V14.4893H54.419C58.4638 14.4893 61.3923 17.2039 61.3923 21.1266C61.4128 22.1975 61.1464 23.2543 60.6207 24.1875C60.095 25.1207 59.3292 25.8963 58.4028 26.4338L62.1354 33.2543H56.3668L53.3297 27.5162ZM51.4566 23.166H53.832C55.2775 23.166 56.1089 22.2939 56.1089 21.13C56.1089 19.9661 55.2775 19.094 53.832 19.094H51.4566V23.166Z" fill="#F4A70F"/>
<path d="M63.5298 26.0265C63.5298 21.544 66.9231 18.3203 71.6398 18.3203C76.3566 18.3203 79.7533 21.544 79.7533 26.0265C79.7533 30.5091 76.343 33.7294 71.6364 33.7294C66.9299 33.7294 63.5298 30.4922 63.5298 26.0265ZM71.6398 29.2604C73.4587 29.2604 74.7617 27.9404 74.7617 26.0299C74.7617 24.1195 73.4587 22.7961 71.6398 22.7961C69.821 22.7961 68.5214 24.1161 68.5214 26.0299C68.5214 27.9438 69.8244 29.2604 71.6398 29.2604Z" fill="#F4A70F"/>
<path d="M115.943 23.8616C115.943 29.335 111.922 33.2543 106.262 33.2543H98.6714V14.4893H106.249C111.939 14.4893 115.943 18.3814 115.943 23.8616ZM110.646 23.8616C110.646 21.0791 108.794 19.2331 106.018 19.2331H103.873V28.524H106.032C108.794 28.524 110.66 26.6306 110.66 23.8616H110.646Z" fill="#F4A70F"/>
<path d="M118.05 26.0265C118.05 21.544 121.443 18.3203 126.163 18.3203C130.883 18.3203 134.273 21.544 134.273 26.0265C134.273 30.5091 130.863 33.7362 126.163 33.7362C121.463 33.7362 118.05 30.4922 118.05 26.0265ZM126.163 29.2604C127.979 29.2604 129.282 27.9404 129.282 26.0299C129.282 24.1195 127.979 22.7961 126.163 22.7961C124.348 22.7961 123.041 24.1161 123.041 26.0299C123.041 27.9438 124.344 29.2604 126.163 29.2604Z" fill="#F4A70F"/>
<path d="M80.3779 33.3124L86.1941 18.8467H90.7072L96.6014 33.3124H91.1415L88.4065 24.7443L85.6919 33.3124H80.3779Z" fill="#F4A70F"/>
</svg>
