<svg width="28" height="27" viewBox="0 0 28 27" fill="none" xmlns="http://www.w3.org/2000/svg">
<path d="M16.4564 26.5901C15.9432 26.8111 15.3874 26.8252 14.8481 26.8581C11.7757 27.097 8.71606 26.2601 6.19912 24.4925C3.68219 22.7248 1.86654 20.1378 1.0667 17.1795C0.281393 14.3155 0.503714 11.2709 1.69684 8.54968C2.88997 5.82847 4.98234 3.59392 7.62748 2.21606C10.2086 0.839314 13.1772 0.355424 16.0655 0.840654C18.9538 1.32588 21.5975 2.75264 23.5801 4.89608C25.5068 6.92425 26.7079 9.52677 26.9976 12.3014C27.1206 13.1532 27.1254 14.0178 27.0118 14.8709C26.8439 14.8145 26.7564 14.6664 26.6405 14.5512C24.7326 12.6705 22.8264 10.7835 20.9217 8.89025C20.7821 8.70453 20.6024 8.73979 20.425 8.81502C20.2476 8.89025 20.0655 8.98664 19.8858 9.07362C19.7039 9.1832 19.4921 9.23351 19.2801 9.21749C19.068 9.20147 18.8663 9.11993 18.7032 8.98429C17.7714 8.30018 16.7307 8.31663 15.7256 8.83618C15.2527 9.05257 14.8518 9.39877 14.5703 9.83401C14.2887 10.2692 14.1381 10.7754 14.1362 11.2929C14.1362 11.4363 14.1954 11.5891 14.0937 11.7395C13.3865 11.6466 12.6927 11.4714 12.0266 11.2176C11.005 10.8006 10.0885 10.1648 9.34218 9.35572C8.92356 8.90435 8.67286 8.95842 8.45527 9.53204C8.23459 10.0726 8.1956 10.6697 8.34411 11.2341C8.45697 11.5793 8.60433 11.9125 8.78401 12.2285C8.24713 12.3884 8.19984 12.4777 8.29917 13.0043C8.40939 13.6466 8.74448 14.2295 9.24521 14.6499C9.33745 14.7299 9.48171 14.7722 9.50773 14.9203C9.19317 15.193 9.18608 15.2165 9.32799 15.5362C9.54183 16.0242 9.90193 16.4347 10.3592 16.7117C10.6068 16.877 10.8438 17.0576 11.0687 17.2524C10.6749 17.4626 10.255 17.6207 9.81993 17.7225C9.31397 17.8335 8.7954 17.877 8.27788 17.8519C8.1076 17.8519 7.92076 17.826 7.8569 18.0258C7.79304 18.2256 7.98461 18.3056 8.11705 18.3973C8.32045 18.5336 8.52859 18.6629 8.73671 18.7969C8.73702 18.8117 8.74026 18.8263 8.74625 18.8399C8.75224 18.8535 8.76086 18.8658 8.77163 18.876C8.78239 18.8863 8.79508 18.8943 8.80897 18.8997C8.82286 18.9051 8.83769 18.9077 8.8526 18.9074L8.87152 18.8674C8.85496 19.0908 9.056 19.166 9.17662 19.2859C11.485 21.5819 13.7949 23.8756 16.1063 26.167C16.2341 26.3057 16.4044 26.395 16.4564 26.5901Z" fill="#0C2455"/>
<path d="M20.9215 8.88965C22.8278 10.7704 24.734 12.6573 26.6403 14.5506C26.7562 14.6658 26.8437 14.8139 27.0116 14.8703C27.0061 15.7791 26.8462 16.6804 26.5386 17.5362C24.9792 22.2474 21.78 25.2511 16.941 26.5472C16.7828 26.5999 16.6141 26.6144 16.4491 26.5895C16.3971 26.3991 16.2268 26.3051 16.0991 26.1805C13.7907 23.886 11.4808 21.5923 9.16934 19.2994C9.04872 19.1795 8.84769 19.1043 8.86424 18.8809C8.92842 18.8978 8.99159 18.9182 9.05346 18.9421C10.7125 19.6896 12.5942 19.7879 14.3229 19.2171C16.9411 18.4202 19.7839 16.0787 19.9991 12.3361C20.037 11.6778 20.2214 11.1982 20.7489 10.8221C20.9364 10.6825 21.0906 10.5035 21.2006 10.2978C21.2739 10.1615 21.4253 10.0275 21.2786 9.85116C21.132 9.67485 21.0019 9.76888 20.8624 9.80885C20.7228 9.84881 20.6259 9.93109 20.465 9.8347C20.6162 9.7292 20.7375 9.5869 20.8174 9.42142C20.8973 9.25594 20.9332 9.07284 20.9215 8.88965Z" fill="#0C2455"/>
<path d="M20.9251 8.88978C20.936 9.0722 20.8997 9.25434 20.8199 9.41892C20.74 9.5835 20.6191 9.72506 20.4687 9.83013C20.6295 9.92652 20.743 9.84188 20.866 9.80427C20.989 9.76666 21.1593 9.70318 21.2823 9.84658C21.4052 9.98999 21.2823 10.1569 21.2042 10.2933C21.0942 10.4989 20.94 10.6779 20.7525 10.8175C20.2251 11.1936 20.043 11.6732 20.0027 12.3315C19.7946 16.0741 16.9518 18.4156 14.3265 19.2125C12.5978 19.7833 10.7161 19.6851 9.05708 18.9375C8.99521 18.9136 8.93204 18.8932 8.86786 18.8764L8.84895 18.9163C8.86787 18.8176 8.78982 18.8223 8.73306 18.8058C8.52493 18.6718 8.3168 18.5425 8.1134 18.4062C7.98095 18.3145 7.78702 18.2463 7.85324 18.0347C7.91947 17.8232 8.10394 17.8537 8.27423 17.8608C8.79174 17.886 9.31032 17.8425 9.81627 17.7315C10.2514 17.6296 10.6712 17.4715 11.065 17.2613C10.8401 17.0665 10.6031 16.886 10.3555 16.7206C9.89828 16.4436 9.53817 16.0331 9.32433 15.5452C9.18243 15.2254 9.18952 15.2019 9.50408 14.9292C9.48043 14.7811 9.33379 14.7388 9.24155 14.6589C8.74082 14.2384 8.40574 13.6555 8.29552 13.0132C8.19618 12.4866 8.24348 12.3973 8.78036 12.2374C8.60068 11.9214 8.45331 11.5883 8.34045 11.243C8.19194 10.6786 8.23093 10.0816 8.45161 9.54097C8.6692 8.96735 8.92463 8.91328 9.33852 9.36465C10.0824 10.169 10.9947 10.8013 12.0111 11.2172C12.6772 11.4709 13.371 11.6461 14.0782 11.7391C14.1799 11.5886 14.1184 11.4358 14.1208 11.2924C14.123 10.7744 14.2743 10.2679 14.5568 9.83261C14.8392 9.39732 15.2411 9.05141 15.7148 8.8357C16.72 8.31616 17.7606 8.2997 18.6925 8.98381C18.8556 9.11945 19.0573 9.20099 19.2693 9.21701C19.4814 9.23303 19.6932 9.18273 19.875 9.07315C20.0548 8.98616 20.2322 8.89213 20.4143 8.81455C20.5964 8.73697 20.7856 8.70406 20.9251 8.88978Z" fill="#FDFDFD"/>
<path d="M8.73828 18.8105C8.79505 18.827 8.8731 18.8223 8.85418 18.921C8.83927 18.9214 8.82444 18.9187 8.81055 18.9134C8.79665 18.908 8.78396 18.8999 8.7732 18.8897C8.76243 18.8794 8.75381 18.8671 8.74782 18.8536C8.74183 18.84 8.73859 18.8254 8.73828 18.8105V18.8105Z" fill="#0C2455"/>
</svg>
